<?xml version="1.0" encoding="UTF-8" standalone="no"?>
<!DOCTYPE svg PUBLIC "-//W3C//DTD SVG 1.1//EN"
 "http://www.w3.org/Graphics/SVG/1.1/DTD/svg11.dtd">
<!-- Generated by graphviz version 6.0.2 (20221011.1828)
 -->
<!-- Title: List Pages: 1 -->
<svg width="300pt" height="68pt"
 viewBox="0.00 0.00 300.00 68.00" xmlns="http://www.w3.org/2000/svg" xmlns:xlink="http://www.w3.org/1999/xlink">
<g id="graph0" class="graph" transform="scale(1 1) rotate(0) translate(4 64)">
<title>List</title>
<polygon fill="#696969" stroke="none" points="-4,4 -4,-64 296,-64 296,4 -4,4"/>
<text text-anchor="middle" x="146" y="-7.8" font-family="Times New Roman,serif" font-size="14.00">tree_dump from function main, Tree/main.cpp:15</text>
<!-- node0 -->
<g id="node1" class="node">
<title>node0</title>
<path fill="#00bfff" stroke="black" d="M124,-23.5C124,-23.5 168,-23.5 168,-23.5 174,-23.5 180,-29.5 180,-35.5 180,-35.5 180,-47.5 180,-47.5 180,-53.5 174,-59.5 168,-59.5 168,-59.5 124,-59.5 124,-59.5 118,-59.5 112,-53.5 112,-47.5 112,-47.5 112,-35.5 112,-35.5 112,-29.5 118,-23.5 124,-23.5"/>
<text text-anchor="middle" x="146" y="-37.8" font-family="Times New Roman,serif" font-size="14.00">2.000000</text>
</g>
</g>
</svg>
