<?xml version="1.0" encoding="UTF-8" standalone="no"?>
<!DOCTYPE svg PUBLIC "-//W3C//DTD SVG 1.1//EN"
 "http://www.w3.org/Graphics/SVG/1.1/DTD/svg11.dtd">
<!-- Generated by graphviz version 6.0.2 (20221011.1828)
 -->
<!-- Title: List Pages: 1 -->
<svg width="2528pt" height="725pt"
 viewBox="0.00 0.00 2528.00 725.00" xmlns="http://www.w3.org/2000/svg" xmlns:xlink="http://www.w3.org/1999/xlink">
<g id="graph0" class="graph" transform="scale(1 1) rotate(0) translate(4 721)">
<title>List</title>
<polygon fill="#696969" stroke="none" points="-4,4 -4,-721 2524,-721 2524,4 -4,4"/>
<text text-anchor="middle" x="1260" y="-7.8" font-family="Times New Roman,serif" font-size="14.00">tree_dump from function print_tex_taylor, Tree/include/dump.cpp:473</text>
<!-- node0 -->
<g id="node1" class="node">
<title>node0</title>
<path fill="#8b00ff" stroke="black" d="M1794,-680.5C1794,-680.5 1824,-680.5 1824,-680.5 1830,-680.5 1836,-686.5 1836,-692.5 1836,-692.5 1836,-704.5 1836,-704.5 1836,-710.5 1830,-716.5 1824,-716.5 1824,-716.5 1794,-716.5 1794,-716.5 1788,-716.5 1782,-710.5 1782,-704.5 1782,-704.5 1782,-692.5 1782,-692.5 1782,-686.5 1788,-680.5 1794,-680.5"/>
<text text-anchor="middle" x="1809" y="-694.8" font-family="Times New Roman,serif" font-size="14.00">/</text>
</g>
<!-- node1 -->
<g id="node2" class="node">
<title>node1</title>
<path fill="#8b00ff" stroke="black" d="M1596,-607.5C1596,-607.5 1626,-607.5 1626,-607.5 1632,-607.5 1638,-613.5 1638,-619.5 1638,-619.5 1638,-631.5 1638,-631.5 1638,-637.5 1632,-643.5 1626,-643.5 1626,-643.5 1596,-643.5 1596,-643.5 1590,-643.5 1584,-637.5 1584,-631.5 1584,-631.5 1584,-619.5 1584,-619.5 1584,-613.5 1590,-607.5 1596,-607.5"/>
<text text-anchor="middle" x="1611" y="-621.8" font-family="Times New Roman,serif" font-size="14.00">&#45;</text>
</g>
<!-- node0&#45;&gt;node1 -->
<g id="edge1" class="edge">
<title>node0&#45;&gt;node1</title>
<path fill="none" stroke="#8b00ff" d="M1781.88,-687.78C1747.17,-675.33 1686.89,-653.71 1647.99,-639.76"/>
<polygon fill="#8b00ff" stroke="#8b00ff" points="1648.7,-636.3 1638.11,-636.22 1646.34,-642.89 1648.7,-636.3"/>
</g>
<!-- node104 -->
<g id="node105" class="node">
<title>node104</title>
<path fill="#8b00ff" stroke="black" d="M2082,-607.5C2082,-607.5 2112,-607.5 2112,-607.5 2118,-607.5 2124,-613.5 2124,-619.5 2124,-619.5 2124,-631.5 2124,-631.5 2124,-637.5 2118,-643.5 2112,-643.5 2112,-643.5 2082,-643.5 2082,-643.5 2076,-643.5 2070,-637.5 2070,-631.5 2070,-631.5 2070,-619.5 2070,-619.5 2070,-613.5 2076,-607.5 2082,-607.5"/>
<text text-anchor="middle" x="2097" y="-621.8" font-family="Times New Roman,serif" font-size="14.00">cdot</text>
</g>
<!-- node0&#45;&gt;node104 -->
<g id="edge104" class="edge">
<title>node0&#45;&gt;node104</title>
<path fill="none" stroke="#8b00ff" d="M1836.09,-690.82C1887.88,-678.05 2000.96,-650.18 2059.78,-635.67"/>
<polygon fill="#8b00ff" stroke="#8b00ff" points="2060.9,-639.01 2069.77,-633.21 2059.22,-632.21 2060.9,-639.01"/>
</g>
<!-- node2 -->
<g id="node3" class="node">
<title>node2</title>
<path fill="#8b00ff" stroke="black" d="M948,-534.5C948,-534.5 978,-534.5 978,-534.5 984,-534.5 990,-540.5 990,-546.5 990,-546.5 990,-558.5 990,-558.5 990,-564.5 984,-570.5 978,-570.5 978,-570.5 948,-570.5 948,-570.5 942,-570.5 936,-564.5 936,-558.5 936,-558.5 936,-546.5 936,-546.5 936,-540.5 942,-534.5 948,-534.5"/>
<text text-anchor="middle" x="963" y="-548.8" font-family="Times New Roman,serif" font-size="14.00">cdot</text>
</g>
<!-- node1&#45;&gt;node2 -->
<g id="edge2" class="edge">
<title>node1&#45;&gt;node2</title>
<path fill="none" stroke="#8b00ff" d="M1583.98,-621.54C1481.68,-610.33 1117.92,-570.47 1000.11,-557.57"/>
<polygon fill="#8b00ff" stroke="#8b00ff" points="1000.46,-554.08 990.13,-556.47 999.69,-561.04 1000.46,-554.08"/>
</g>
<!-- node59 -->
<g id="node60" class="node">
<title>node59</title>
<path fill="#8b00ff" stroke="black" d="M1596,-534.5C1596,-534.5 1626,-534.5 1626,-534.5 1632,-534.5 1638,-540.5 1638,-546.5 1638,-546.5 1638,-558.5 1638,-558.5 1638,-564.5 1632,-570.5 1626,-570.5 1626,-570.5 1596,-570.5 1596,-570.5 1590,-570.5 1584,-564.5 1584,-558.5 1584,-558.5 1584,-546.5 1584,-546.5 1584,-540.5 1590,-534.5 1596,-534.5"/>
<text text-anchor="middle" x="1611" y="-548.8" font-family="Times New Roman,serif" font-size="14.00">cdot</text>
</g>
<!-- node1&#45;&gt;node59 -->
<g id="edge59" class="edge">
<title>node1&#45;&gt;node59</title>
<path fill="none" stroke="#8b00ff" d="M1611,-607.31C1611,-599.29 1611,-589.55 1611,-580.57"/>
<polygon fill="#8b00ff" stroke="#8b00ff" points="1614.5,-580.53 1611,-570.53 1607.5,-580.53 1614.5,-580.53"/>
</g>
<!-- node3 -->
<g id="node4" class="node">
<title>node3</title>
<path fill="#8b00ff" stroke="black" d="M678,-461.5C678,-461.5 708,-461.5 708,-461.5 714,-461.5 720,-467.5 720,-473.5 720,-473.5 720,-485.5 720,-485.5 720,-491.5 714,-497.5 708,-497.5 708,-497.5 678,-497.5 678,-497.5 672,-497.5 666,-491.5 666,-485.5 666,-485.5 666,-473.5 666,-473.5 666,-467.5 672,-461.5 678,-461.5"/>
<text text-anchor="middle" x="693" y="-475.8" font-family="Times New Roman,serif" font-size="14.00">&#45;</text>
</g>
<!-- node2&#45;&gt;node3 -->
<g id="edge3" class="edge">
<title>node2&#45;&gt;node3</title>
<path fill="none" stroke="#8b00ff" d="M935.88,-544.37C887.16,-531.56 784.79,-504.64 729.8,-490.18"/>
<polygon fill="#8b00ff" stroke="#8b00ff" points="730.67,-486.79 720.11,-487.63 728.89,-493.56 730.67,-486.79"/>
</g>
<!-- node52 -->
<g id="node53" class="node">
<title>node52</title>
<path fill="#8b00ff" stroke="black" d="M948,-461.5C948,-461.5 978,-461.5 978,-461.5 984,-461.5 990,-467.5 990,-473.5 990,-473.5 990,-485.5 990,-485.5 990,-491.5 984,-497.5 978,-497.5 978,-497.5 948,-497.5 948,-497.5 942,-497.5 936,-491.5 936,-485.5 936,-485.5 936,-473.5 936,-473.5 936,-467.5 942,-461.5 948,-461.5"/>
<text text-anchor="middle" x="963" y="-475.8" font-family="Times New Roman,serif" font-size="14.00">cdot</text>
</g>
<!-- node2&#45;&gt;node52 -->
<g id="edge52" class="edge">
<title>node2&#45;&gt;node52</title>
<path fill="none" stroke="#8b00ff" d="M963,-534.31C963,-526.29 963,-516.55 963,-507.57"/>
<polygon fill="#8b00ff" stroke="#8b00ff" points="966.5,-507.53 963,-497.53 959.5,-507.53 966.5,-507.53"/>
</g>
<!-- node4 -->
<g id="node5" class="node">
<title>node4</title>
<path fill="#8b00ff" stroke="black" d="M264,-388.5C264,-388.5 294,-388.5 294,-388.5 300,-388.5 306,-394.5 306,-400.5 306,-400.5 306,-412.5 306,-412.5 306,-418.5 300,-424.5 294,-424.5 294,-424.5 264,-424.5 264,-424.5 258,-424.5 252,-418.5 252,-412.5 252,-412.5 252,-400.5 252,-400.5 252,-394.5 258,-388.5 264,-388.5"/>
<text text-anchor="middle" x="279" y="-402.8" font-family="Times New Roman,serif" font-size="14.00">+</text>
</g>
<!-- node3&#45;&gt;node4 -->
<g id="edge4" class="edge">
<title>node3&#45;&gt;node4</title>
<path fill="none" stroke="#8b00ff" d="M665.84,-473.84C593.9,-461.5 398.35,-427.97 316.17,-413.87"/>
<polygon fill="#8b00ff" stroke="#8b00ff" points="316.71,-410.42 306.26,-412.18 315.53,-417.32 316.71,-410.42"/>
</g>
<!-- node25 -->
<g id="node26" class="node">
<title>node25</title>
<path fill="#8b00ff" stroke="black" d="M678,-388.5C678,-388.5 708,-388.5 708,-388.5 714,-388.5 720,-394.5 720,-400.5 720,-400.5 720,-412.5 720,-412.5 720,-418.5 714,-424.5 708,-424.5 708,-424.5 678,-424.5 678,-424.5 672,-424.5 666,-418.5 666,-412.5 666,-412.5 666,-400.5 666,-400.5 666,-394.5 672,-388.5 678,-388.5"/>
<text text-anchor="middle" x="693" y="-402.8" font-family="Times New Roman,serif" font-size="14.00">+</text>
</g>
<!-- node3&#45;&gt;node25 -->
<g id="edge25" class="edge">
<title>node3&#45;&gt;node25</title>
<path fill="none" stroke="#8b00ff" d="M693,-461.31C693,-453.29 693,-443.55 693,-434.57"/>
<polygon fill="#8b00ff" stroke="#8b00ff" points="696.5,-434.53 693,-424.53 689.5,-434.53 696.5,-434.53"/>
</g>
<!-- node5 -->
<g id="node6" class="node">
<title>node5</title>
<path fill="#8b00ff" stroke="black" d="M84,-315.5C84,-315.5 114,-315.5 114,-315.5 120,-315.5 126,-321.5 126,-327.5 126,-327.5 126,-339.5 126,-339.5 126,-345.5 120,-351.5 114,-351.5 114,-351.5 84,-351.5 84,-351.5 78,-351.5 72,-345.5 72,-339.5 72,-339.5 72,-327.5 72,-327.5 72,-321.5 78,-315.5 84,-315.5"/>
<text text-anchor="middle" x="99" y="-329.8" font-family="Times New Roman,serif" font-size="14.00">cdot</text>
</g>
<!-- node4&#45;&gt;node5 -->
<g id="edge5" class="edge">
<title>node4&#45;&gt;node5</title>
<path fill="none" stroke="#8b00ff" d="M251.66,-394.72C220.69,-382.5 170.07,-362.53 135.68,-348.97"/>
<polygon fill="#8b00ff" stroke="#8b00ff" points="136.59,-345.57 126.01,-345.15 134.02,-352.08 136.59,-345.57"/>
</g>
<!-- node10 -->
<g id="node11" class="node">
<title>node10</title>
<path fill="#8b00ff" stroke="black" d="M264,-315.5C264,-315.5 294,-315.5 294,-315.5 300,-315.5 306,-321.5 306,-327.5 306,-327.5 306,-339.5 306,-339.5 306,-345.5 300,-351.5 294,-351.5 294,-351.5 264,-351.5 264,-351.5 258,-351.5 252,-345.5 252,-339.5 252,-339.5 252,-327.5 252,-327.5 252,-321.5 258,-315.5 264,-315.5"/>
<text text-anchor="middle" x="279" y="-329.8" font-family="Times New Roman,serif" font-size="14.00">cdot</text>
</g>
<!-- node4&#45;&gt;node10 -->
<g id="edge10" class="edge">
<title>node4&#45;&gt;node10</title>
<path fill="none" stroke="#8b00ff" d="M279,-388.31C279,-380.29 279,-370.55 279,-361.57"/>
<polygon fill="#8b00ff" stroke="#8b00ff" points="282.5,-361.53 279,-351.53 275.5,-361.53 282.5,-361.53"/>
</g>
<!-- node6 -->
<g id="node7" class="node">
<title>node6</title>
<path fill="#00bfff" stroke="black" d="M12,-242.5C12,-242.5 42,-242.5 42,-242.5 48,-242.5 54,-248.5 54,-254.5 54,-254.5 54,-266.5 54,-266.5 54,-272.5 48,-278.5 42,-278.5 42,-278.5 12,-278.5 12,-278.5 6,-278.5 0,-272.5 0,-266.5 0,-266.5 0,-254.5 0,-254.5 0,-248.5 6,-242.5 12,-242.5"/>
<text text-anchor="middle" x="27" y="-256.8" font-family="Times New Roman,serif" font-size="14.00">2</text>
</g>
<!-- node5&#45;&gt;node6 -->
<g id="edge6" class="edge">
<title>node5&#45;&gt;node6</title>
<path fill="none" stroke="#00bfff" d="M81.57,-315.31C72.55,-306.42 61.39,-295.41 51.51,-285.67"/>
<polygon fill="#00bfff" stroke="#00bfff" points="53.85,-283.06 44.27,-278.53 48.93,-288.04 53.85,-283.06"/>
</g>
<!-- node7 -->
<g id="node8" class="node">
<title>node7</title>
<path fill="#8b00ff" stroke="black" d="M84,-242.5C84,-242.5 114,-242.5 114,-242.5 120,-242.5 126,-248.5 126,-254.5 126,-254.5 126,-266.5 126,-266.5 126,-272.5 120,-278.5 114,-278.5 114,-278.5 84,-278.5 84,-278.5 78,-278.5 72,-272.5 72,-266.5 72,-266.5 72,-254.5 72,-254.5 72,-248.5 78,-242.5 84,-242.5"/>
<text text-anchor="middle" x="99" y="-256.8" font-family="Times New Roman,serif" font-size="14.00">cdot</text>
</g>
<!-- node5&#45;&gt;node7 -->
<g id="edge7" class="edge">
<title>node5&#45;&gt;node7</title>
<path fill="none" stroke="#8b00ff" d="M99,-315.31C99,-307.29 99,-297.55 99,-288.57"/>
<polygon fill="#8b00ff" stroke="#8b00ff" points="102.5,-288.53 99,-278.53 95.5,-288.53 102.5,-288.53"/>
</g>
<!-- node8 -->
<g id="node9" class="node">
<title>node8</title>
<path fill="#ccff99" stroke="black" d="M12,-169.5C12,-169.5 42,-169.5 42,-169.5 48,-169.5 54,-175.5 54,-181.5 54,-181.5 54,-193.5 54,-193.5 54,-199.5 48,-205.5 42,-205.5 42,-205.5 12,-205.5 12,-205.5 6,-205.5 0,-199.5 0,-193.5 0,-193.5 0,-181.5 0,-181.5 0,-175.5 6,-169.5 12,-169.5"/>
<text text-anchor="middle" x="27" y="-183.8" font-family="Times New Roman,serif" font-size="14.00">x</text>
</g>
<!-- node7&#45;&gt;node8 -->
<g id="edge8" class="edge">
<title>node7&#45;&gt;node8</title>
<path fill="none" stroke="#ccff99" d="M81.57,-242.31C72.55,-233.42 61.39,-222.41 51.51,-212.67"/>
<polygon fill="#ccff99" stroke="#ccff99" points="53.85,-210.06 44.27,-205.53 48.93,-215.04 53.85,-210.06"/>
</g>
<!-- node9 -->
<g id="node10" class="node">
<title>node9</title>
<path fill="#ccff99" stroke="black" d="M84,-169.5C84,-169.5 114,-169.5 114,-169.5 120,-169.5 126,-175.5 126,-181.5 126,-181.5 126,-193.5 126,-193.5 126,-199.5 120,-205.5 114,-205.5 114,-205.5 84,-205.5 84,-205.5 78,-205.5 72,-199.5 72,-193.5 72,-193.5 72,-181.5 72,-181.5 72,-175.5 78,-169.5 84,-169.5"/>
<text text-anchor="middle" x="99" y="-183.8" font-family="Times New Roman,serif" font-size="14.00">x</text>
</g>
<!-- node7&#45;&gt;node9 -->
<g id="edge9" class="edge">
<title>node7&#45;&gt;node9</title>
<path fill="none" stroke="#ccff99" d="M99,-242.31C99,-234.29 99,-224.55 99,-215.57"/>
<polygon fill="#ccff99" stroke="#ccff99" points="102.5,-215.53 99,-205.53 95.5,-215.53 102.5,-215.53"/>
</g>
<!-- node11 -->
<g id="node12" class="node">
<title>node11</title>
<path fill="#8b00ff" stroke="black" d="M228,-242.5C228,-242.5 258,-242.5 258,-242.5 264,-242.5 270,-248.5 270,-254.5 270,-254.5 270,-266.5 270,-266.5 270,-272.5 264,-278.5 258,-278.5 258,-278.5 228,-278.5 228,-278.5 222,-278.5 216,-272.5 216,-266.5 216,-266.5 216,-254.5 216,-254.5 216,-248.5 222,-242.5 228,-242.5"/>
<text text-anchor="middle" x="243" y="-256.8" font-family="Times New Roman,serif" font-size="14.00">&#45;</text>
</g>
<!-- node10&#45;&gt;node11 -->
<g id="edge11" class="edge">
<title>node10&#45;&gt;node11</title>
<path fill="none" stroke="#8b00ff" d="M270.29,-315.31C266.08,-307.03 260.95,-296.91 256.28,-287.69"/>
<polygon fill="#8b00ff" stroke="#8b00ff" points="259.28,-285.87 251.63,-278.53 253.04,-289.03 259.28,-285.87"/>
</g>
<!-- node22 -->
<g id="node23" class="node">
<title>node22</title>
<path fill="#8b00ff" stroke="black" d="M300,-242.5C300,-242.5 330,-242.5 330,-242.5 336,-242.5 342,-248.5 342,-254.5 342,-254.5 342,-266.5 342,-266.5 342,-272.5 336,-278.5 330,-278.5 330,-278.5 300,-278.5 300,-278.5 294,-278.5 288,-272.5 288,-266.5 288,-266.5 288,-254.5 288,-254.5 288,-248.5 294,-242.5 300,-242.5"/>
<text text-anchor="middle" x="315" y="-256.8" font-family="Times New Roman,serif" font-size="14.00">+</text>
</g>
<!-- node10&#45;&gt;node22 -->
<g id="edge22" class="edge">
<title>node10&#45;&gt;node22</title>
<path fill="none" stroke="#8b00ff" d="M287.71,-315.31C291.92,-307.03 297.05,-296.91 301.72,-287.69"/>
<polygon fill="#8b00ff" stroke="#8b00ff" points="304.96,-289.03 306.37,-278.53 298.72,-285.87 304.96,-289.03"/>
</g>
<!-- node12 -->
<g id="node13" class="node">
<title>node12</title>
<path fill="#8b00ff" stroke="black" d="M156,-169.5C156,-169.5 186,-169.5 186,-169.5 192,-169.5 198,-175.5 198,-181.5 198,-181.5 198,-193.5 198,-193.5 198,-199.5 192,-205.5 186,-205.5 186,-205.5 156,-205.5 156,-205.5 150,-205.5 144,-199.5 144,-193.5 144,-193.5 144,-181.5 144,-181.5 144,-175.5 150,-169.5 156,-169.5"/>
<text text-anchor="middle" x="171" y="-183.8" font-family="Times New Roman,serif" font-size="14.00">+</text>
</g>
<!-- node11&#45;&gt;node12 -->
<g id="edge12" class="edge">
<title>node11&#45;&gt;node12</title>
<path fill="none" stroke="#8b00ff" d="M225.57,-242.31C216.55,-233.42 205.39,-222.41 195.51,-212.67"/>
<polygon fill="#8b00ff" stroke="#8b00ff" points="197.85,-210.06 188.27,-205.53 192.93,-215.04 197.85,-210.06"/>
</g>
<!-- node19 -->
<g id="node20" class="node">
<title>node19</title>
<path fill="#8b00ff" stroke="black" d="M228,-169.5C228,-169.5 258,-169.5 258,-169.5 264,-169.5 270,-175.5 270,-181.5 270,-181.5 270,-193.5 270,-193.5 270,-199.5 264,-205.5 258,-205.5 258,-205.5 228,-205.5 228,-205.5 222,-205.5 216,-199.5 216,-193.5 216,-193.5 216,-181.5 216,-181.5 216,-175.5 222,-169.5 228,-169.5"/>
<text text-anchor="middle" x="243" y="-183.8" font-family="Times New Roman,serif" font-size="14.00">cdot</text>
</g>
<!-- node11&#45;&gt;node19 -->
<g id="edge19" class="edge">
<title>node11&#45;&gt;node19</title>
<path fill="none" stroke="#8b00ff" d="M243,-242.31C243,-234.29 243,-224.55 243,-215.57"/>
<polygon fill="#8b00ff" stroke="#8b00ff" points="246.5,-215.53 243,-205.53 239.5,-215.53 246.5,-215.53"/>
</g>
<!-- node13 -->
<g id="node14" class="node">
<title>node13</title>
<path fill="#8b00ff" stroke="black" d="M84,-96.5C84,-96.5 114,-96.5 114,-96.5 120,-96.5 126,-102.5 126,-108.5 126,-108.5 126,-120.5 126,-120.5 126,-126.5 120,-132.5 114,-132.5 114,-132.5 84,-132.5 84,-132.5 78,-132.5 72,-126.5 72,-120.5 72,-120.5 72,-108.5 72,-108.5 72,-102.5 78,-96.5 84,-96.5"/>
<text text-anchor="middle" x="99" y="-110.8" font-family="Times New Roman,serif" font-size="14.00">cdot</text>
</g>
<!-- node12&#45;&gt;node13 -->
<g id="edge13" class="edge">
<title>node12&#45;&gt;node13</title>
<path fill="none" stroke="#8b00ff" d="M153.57,-169.31C144.55,-160.42 133.39,-149.41 123.51,-139.67"/>
<polygon fill="#8b00ff" stroke="#8b00ff" points="125.85,-137.06 116.27,-132.53 120.93,-142.04 125.85,-137.06"/>
</g>
<!-- node16 -->
<g id="node17" class="node">
<title>node16</title>
<path fill="#8b00ff" stroke="black" d="M156,-96.5C156,-96.5 186,-96.5 186,-96.5 192,-96.5 198,-102.5 198,-108.5 198,-108.5 198,-120.5 198,-120.5 198,-126.5 192,-132.5 186,-132.5 186,-132.5 156,-132.5 156,-132.5 150,-132.5 144,-126.5 144,-120.5 144,-120.5 144,-108.5 144,-108.5 144,-102.5 150,-96.5 156,-96.5"/>
<text text-anchor="middle" x="171" y="-110.8" font-family="Times New Roman,serif" font-size="14.00">cdot</text>
</g>
<!-- node12&#45;&gt;node16 -->
<g id="edge16" class="edge">
<title>node12&#45;&gt;node16</title>
<path fill="none" stroke="#8b00ff" d="M171,-169.31C171,-161.29 171,-151.55 171,-142.57"/>
<polygon fill="#8b00ff" stroke="#8b00ff" points="174.5,-142.53 171,-132.53 167.5,-142.53 174.5,-142.53"/>
</g>
<!-- node14 -->
<g id="node15" class="node">
<title>node14</title>
<path fill="#00bfff" stroke="black" d="M12,-23.5C12,-23.5 42,-23.5 42,-23.5 48,-23.5 54,-29.5 54,-35.5 54,-35.5 54,-47.5 54,-47.5 54,-53.5 48,-59.5 42,-59.5 42,-59.5 12,-59.5 12,-59.5 6,-59.5 0,-53.5 0,-47.5 0,-47.5 0,-35.5 0,-35.5 0,-29.5 6,-23.5 12,-23.5"/>
<text text-anchor="middle" x="27" y="-37.8" font-family="Times New Roman,serif" font-size="14.00">2</text>
</g>
<!-- node13&#45;&gt;node14 -->
<g id="edge14" class="edge">
<title>node13&#45;&gt;node14</title>
<path fill="none" stroke="#00bfff" d="M81.57,-96.31C72.55,-87.42 61.39,-76.41 51.51,-66.67"/>
<polygon fill="#00bfff" stroke="#00bfff" points="53.85,-64.06 44.27,-59.53 48.93,-69.04 53.85,-64.06"/>
</g>
<!-- node15 -->
<g id="node16" class="node">
<title>node15</title>
<path fill="#ccff99" stroke="black" d="M84,-23.5C84,-23.5 114,-23.5 114,-23.5 120,-23.5 126,-29.5 126,-35.5 126,-35.5 126,-47.5 126,-47.5 126,-53.5 120,-59.5 114,-59.5 114,-59.5 84,-59.5 84,-59.5 78,-59.5 72,-53.5 72,-47.5 72,-47.5 72,-35.5 72,-35.5 72,-29.5 78,-23.5 84,-23.5"/>
<text text-anchor="middle" x="99" y="-37.8" font-family="Times New Roman,serif" font-size="14.00">x</text>
</g>
<!-- node13&#45;&gt;node15 -->
<g id="edge15" class="edge">
<title>node13&#45;&gt;node15</title>
<path fill="none" stroke="#ccff99" d="M99,-96.31C99,-88.29 99,-78.55 99,-69.57"/>
<polygon fill="#ccff99" stroke="#ccff99" points="102.5,-69.53 99,-59.53 95.5,-69.53 102.5,-69.53"/>
</g>
<!-- node17 -->
<g id="node18" class="node">
<title>node17</title>
<path fill="#00bfff" stroke="black" d="M156,-23.5C156,-23.5 186,-23.5 186,-23.5 192,-23.5 198,-29.5 198,-35.5 198,-35.5 198,-47.5 198,-47.5 198,-53.5 192,-59.5 186,-59.5 186,-59.5 156,-59.5 156,-59.5 150,-59.5 144,-53.5 144,-47.5 144,-47.5 144,-35.5 144,-35.5 144,-29.5 150,-23.5 156,-23.5"/>
<text text-anchor="middle" x="171" y="-37.8" font-family="Times New Roman,serif" font-size="14.00">2</text>
</g>
<!-- node16&#45;&gt;node17 -->
<g id="edge17" class="edge">
<title>node16&#45;&gt;node17</title>
<path fill="none" stroke="#00bfff" d="M171,-96.31C171,-88.29 171,-78.55 171,-69.57"/>
<polygon fill="#00bfff" stroke="#00bfff" points="174.5,-69.53 171,-59.53 167.5,-69.53 174.5,-69.53"/>
</g>
<!-- node18 -->
<g id="node19" class="node">
<title>node18</title>
<path fill="#ccff99" stroke="black" d="M228,-23.5C228,-23.5 258,-23.5 258,-23.5 264,-23.5 270,-29.5 270,-35.5 270,-35.5 270,-47.5 270,-47.5 270,-53.5 264,-59.5 258,-59.5 258,-59.5 228,-59.5 228,-59.5 222,-59.5 216,-53.5 216,-47.5 216,-47.5 216,-35.5 216,-35.5 216,-29.5 222,-23.5 228,-23.5"/>
<text text-anchor="middle" x="243" y="-37.8" font-family="Times New Roman,serif" font-size="14.00">x</text>
</g>
<!-- node16&#45;&gt;node18 -->
<g id="edge18" class="edge">
<title>node16&#45;&gt;node18</title>
<path fill="none" stroke="#ccff99" d="M188.43,-96.31C197.45,-87.42 208.61,-76.41 218.49,-66.67"/>
<polygon fill="#ccff99" stroke="#ccff99" points="221.07,-69.04 225.73,-59.53 216.15,-64.06 221.07,-69.04"/>
</g>
<!-- node20 -->
<g id="node21" class="node">
<title>node20</title>
<path fill="#00bfff" stroke="black" d="M228,-96.5C228,-96.5 258,-96.5 258,-96.5 264,-96.5 270,-102.5 270,-108.5 270,-108.5 270,-120.5 270,-120.5 270,-126.5 264,-132.5 258,-132.5 258,-132.5 228,-132.5 228,-132.5 222,-132.5 216,-126.5 216,-120.5 216,-120.5 216,-108.5 216,-108.5 216,-102.5 222,-96.5 228,-96.5"/>
<text text-anchor="middle" x="243" y="-110.8" font-family="Times New Roman,serif" font-size="14.00">2</text>
</g>
<!-- node19&#45;&gt;node20 -->
<g id="edge20" class="edge">
<title>node19&#45;&gt;node20</title>
<path fill="none" stroke="#00bfff" d="M243,-169.31C243,-161.29 243,-151.55 243,-142.57"/>
<polygon fill="#00bfff" stroke="#00bfff" points="246.5,-142.53 243,-132.53 239.5,-142.53 246.5,-142.53"/>
</g>
<!-- node21 -->
<g id="node22" class="node">
<title>node21</title>
<path fill="#ccff99" stroke="black" d="M300,-96.5C300,-96.5 330,-96.5 330,-96.5 336,-96.5 342,-102.5 342,-108.5 342,-108.5 342,-120.5 342,-120.5 342,-126.5 336,-132.5 330,-132.5 330,-132.5 300,-132.5 300,-132.5 294,-132.5 288,-126.5 288,-120.5 288,-120.5 288,-108.5 288,-108.5 288,-102.5 294,-96.5 300,-96.5"/>
<text text-anchor="middle" x="315" y="-110.8" font-family="Times New Roman,serif" font-size="14.00">x</text>
</g>
<!-- node19&#45;&gt;node21 -->
<g id="edge21" class="edge">
<title>node19&#45;&gt;node21</title>
<path fill="none" stroke="#ccff99" d="M260.43,-169.31C269.45,-160.42 280.61,-149.41 290.49,-139.67"/>
<polygon fill="#ccff99" stroke="#ccff99" points="293.07,-142.04 297.73,-132.53 288.15,-137.06 293.07,-142.04"/>
</g>
<!-- node23 -->
<g id="node24" class="node">
<title>node23</title>
<path fill="#ccff99" stroke="black" d="M300,-169.5C300,-169.5 330,-169.5 330,-169.5 336,-169.5 342,-175.5 342,-181.5 342,-181.5 342,-193.5 342,-193.5 342,-199.5 336,-205.5 330,-205.5 330,-205.5 300,-205.5 300,-205.5 294,-205.5 288,-199.5 288,-193.5 288,-193.5 288,-181.5 288,-181.5 288,-175.5 294,-169.5 300,-169.5"/>
<text text-anchor="middle" x="315" y="-183.8" font-family="Times New Roman,serif" font-size="14.00">x</text>
</g>
<!-- node22&#45;&gt;node23 -->
<g id="edge23" class="edge">
<title>node22&#45;&gt;node23</title>
<path fill="none" stroke="#ccff99" d="M315,-242.31C315,-234.29 315,-224.55 315,-215.57"/>
<polygon fill="#ccff99" stroke="#ccff99" points="318.5,-215.53 315,-205.53 311.5,-215.53 318.5,-215.53"/>
</g>
<!-- node24 -->
<g id="node25" class="node">
<title>node24</title>
<path fill="#ccff99" stroke="black" d="M372,-169.5C372,-169.5 402,-169.5 402,-169.5 408,-169.5 414,-175.5 414,-181.5 414,-181.5 414,-193.5 414,-193.5 414,-199.5 408,-205.5 402,-205.5 402,-205.5 372,-205.5 372,-205.5 366,-205.5 360,-199.5 360,-193.5 360,-193.5 360,-181.5 360,-181.5 360,-175.5 366,-169.5 372,-169.5"/>
<text text-anchor="middle" x="387" y="-183.8" font-family="Times New Roman,serif" font-size="14.00">x</text>
</g>
<!-- node22&#45;&gt;node24 -->
<g id="edge24" class="edge">
<title>node22&#45;&gt;node24</title>
<path fill="none" stroke="#ccff99" d="M332.43,-242.31C341.45,-233.42 352.61,-222.41 362.49,-212.67"/>
<polygon fill="#ccff99" stroke="#ccff99" points="365.07,-215.04 369.73,-205.53 360.15,-210.06 365.07,-215.04"/>
</g>
<!-- node26 -->
<g id="node27" class="node">
<title>node26</title>
<path fill="#8b00ff" stroke="black" d="M624,-315.5C624,-315.5 654,-315.5 654,-315.5 660,-315.5 666,-321.5 666,-327.5 666,-327.5 666,-339.5 666,-339.5 666,-345.5 660,-351.5 654,-351.5 654,-351.5 624,-351.5 624,-351.5 618,-351.5 612,-345.5 612,-339.5 612,-339.5 612,-327.5 612,-327.5 612,-321.5 618,-315.5 624,-315.5"/>
<text text-anchor="middle" x="639" y="-329.8" font-family="Times New Roman,serif" font-size="14.00">cdot</text>
</g>
<!-- node25&#45;&gt;node26 -->
<g id="edge26" class="edge">
<title>node25&#45;&gt;node26</title>
<path fill="none" stroke="#8b00ff" d="M679.93,-388.31C673.36,-379.68 665.28,-369.06 658.04,-359.53"/>
<polygon fill="#8b00ff" stroke="#8b00ff" points="660.79,-357.37 651.95,-351.53 655.22,-361.61 660.79,-357.37"/>
</g>
<!-- node41 -->
<g id="node42" class="node">
<title>node41</title>
<path fill="#8b00ff" stroke="black" d="M732,-315.5C732,-315.5 762,-315.5 762,-315.5 768,-315.5 774,-321.5 774,-327.5 774,-327.5 774,-339.5 774,-339.5 774,-345.5 768,-351.5 762,-351.5 762,-351.5 732,-351.5 732,-351.5 726,-351.5 720,-345.5 720,-339.5 720,-339.5 720,-327.5 720,-327.5 720,-321.5 726,-315.5 732,-315.5"/>
<text text-anchor="middle" x="747" y="-329.8" font-family="Times New Roman,serif" font-size="14.00">cdot</text>
</g>
<!-- node25&#45;&gt;node41 -->
<g id="edge41" class="edge">
<title>node25&#45;&gt;node41</title>
<path fill="none" stroke="#8b00ff" d="M706.07,-388.31C712.64,-379.68 720.72,-369.06 727.96,-359.53"/>
<polygon fill="#8b00ff" stroke="#8b00ff" points="730.78,-361.61 734.05,-351.53 725.21,-357.37 730.78,-361.61"/>
</g>
<!-- node27 -->
<g id="node28" class="node">
<title>node27</title>
<path fill="#8b00ff" stroke="black" d="M516,-242.5C516,-242.5 546,-242.5 546,-242.5 552,-242.5 558,-248.5 558,-254.5 558,-254.5 558,-266.5 558,-266.5 558,-272.5 552,-278.5 546,-278.5 546,-278.5 516,-278.5 516,-278.5 510,-278.5 504,-272.5 504,-266.5 504,-266.5 504,-254.5 504,-254.5 504,-248.5 510,-242.5 516,-242.5"/>
<text text-anchor="middle" x="531" y="-256.8" font-family="Times New Roman,serif" font-size="14.00">&#45;</text>
</g>
<!-- node26&#45;&gt;node27 -->
<g id="edge27" class="edge">
<title>node26&#45;&gt;node27</title>
<path fill="none" stroke="#8b00ff" d="M613.13,-315.49C598.94,-306.17 581.16,-294.47 565.77,-284.36"/>
<polygon fill="#8b00ff" stroke="#8b00ff" points="567.31,-281.18 557.03,-278.61 563.47,-287.03 567.31,-281.18"/>
</g>
<!-- node38 -->
<g id="node39" class="node">
<title>node38</title>
<path fill="#8b00ff" stroke="black" d="M624,-242.5C624,-242.5 654,-242.5 654,-242.5 660,-242.5 666,-248.5 666,-254.5 666,-254.5 666,-266.5 666,-266.5 666,-272.5 660,-278.5 654,-278.5 654,-278.5 624,-278.5 624,-278.5 618,-278.5 612,-272.5 612,-266.5 612,-266.5 612,-254.5 612,-254.5 612,-248.5 618,-242.5 624,-242.5"/>
<text text-anchor="middle" x="639" y="-256.8" font-family="Times New Roman,serif" font-size="14.00">+</text>
</g>
<!-- node26&#45;&gt;node38 -->
<g id="edge38" class="edge">
<title>node26&#45;&gt;node38</title>
<path fill="none" stroke="#8b00ff" d="M639,-315.31C639,-307.29 639,-297.55 639,-288.57"/>
<polygon fill="#8b00ff" stroke="#8b00ff" points="642.5,-288.53 639,-278.53 635.5,-288.53 642.5,-288.53"/>
</g>
<!-- node28 -->
<g id="node29" class="node">
<title>node28</title>
<path fill="#8b00ff" stroke="black" d="M444,-169.5C444,-169.5 474,-169.5 474,-169.5 480,-169.5 486,-175.5 486,-181.5 486,-181.5 486,-193.5 486,-193.5 486,-199.5 480,-205.5 474,-205.5 474,-205.5 444,-205.5 444,-205.5 438,-205.5 432,-199.5 432,-193.5 432,-193.5 432,-181.5 432,-181.5 432,-175.5 438,-169.5 444,-169.5"/>
<text text-anchor="middle" x="459" y="-183.8" font-family="Times New Roman,serif" font-size="14.00">+</text>
</g>
<!-- node27&#45;&gt;node28 -->
<g id="edge28" class="edge">
<title>node27&#45;&gt;node28</title>
<path fill="none" stroke="#8b00ff" d="M513.57,-242.31C504.55,-233.42 493.39,-222.41 483.51,-212.67"/>
<polygon fill="#8b00ff" stroke="#8b00ff" points="485.85,-210.06 476.27,-205.53 480.93,-215.04 485.85,-210.06"/>
</g>
<!-- node35 -->
<g id="node36" class="node">
<title>node35</title>
<path fill="#8b00ff" stroke="black" d="M516,-169.5C516,-169.5 546,-169.5 546,-169.5 552,-169.5 558,-175.5 558,-181.5 558,-181.5 558,-193.5 558,-193.5 558,-199.5 552,-205.5 546,-205.5 546,-205.5 516,-205.5 516,-205.5 510,-205.5 504,-199.5 504,-193.5 504,-193.5 504,-181.5 504,-181.5 504,-175.5 510,-169.5 516,-169.5"/>
<text text-anchor="middle" x="531" y="-183.8" font-family="Times New Roman,serif" font-size="14.00">cdot</text>
</g>
<!-- node27&#45;&gt;node35 -->
<g id="edge35" class="edge">
<title>node27&#45;&gt;node35</title>
<path fill="none" stroke="#8b00ff" d="M531,-242.31C531,-234.29 531,-224.55 531,-215.57"/>
<polygon fill="#8b00ff" stroke="#8b00ff" points="534.5,-215.53 531,-205.53 527.5,-215.53 534.5,-215.53"/>
</g>
<!-- node29 -->
<g id="node30" class="node">
<title>node29</title>
<path fill="#8b00ff" stroke="black" d="M372,-96.5C372,-96.5 402,-96.5 402,-96.5 408,-96.5 414,-102.5 414,-108.5 414,-108.5 414,-120.5 414,-120.5 414,-126.5 408,-132.5 402,-132.5 402,-132.5 372,-132.5 372,-132.5 366,-132.5 360,-126.5 360,-120.5 360,-120.5 360,-108.5 360,-108.5 360,-102.5 366,-96.5 372,-96.5"/>
<text text-anchor="middle" x="387" y="-110.8" font-family="Times New Roman,serif" font-size="14.00">cdot</text>
</g>
<!-- node28&#45;&gt;node29 -->
<g id="edge29" class="edge">
<title>node28&#45;&gt;node29</title>
<path fill="none" stroke="#8b00ff" d="M441.57,-169.31C432.55,-160.42 421.39,-149.41 411.51,-139.67"/>
<polygon fill="#8b00ff" stroke="#8b00ff" points="413.85,-137.06 404.27,-132.53 408.93,-142.04 413.85,-137.06"/>
</g>
<!-- node32 -->
<g id="node33" class="node">
<title>node32</title>
<path fill="#8b00ff" stroke="black" d="M444,-96.5C444,-96.5 474,-96.5 474,-96.5 480,-96.5 486,-102.5 486,-108.5 486,-108.5 486,-120.5 486,-120.5 486,-126.5 480,-132.5 474,-132.5 474,-132.5 444,-132.5 444,-132.5 438,-132.5 432,-126.5 432,-120.5 432,-120.5 432,-108.5 432,-108.5 432,-102.5 438,-96.5 444,-96.5"/>
<text text-anchor="middle" x="459" y="-110.8" font-family="Times New Roman,serif" font-size="14.00">cdot</text>
</g>
<!-- node28&#45;&gt;node32 -->
<g id="edge32" class="edge">
<title>node28&#45;&gt;node32</title>
<path fill="none" stroke="#8b00ff" d="M459,-169.31C459,-161.29 459,-151.55 459,-142.57"/>
<polygon fill="#8b00ff" stroke="#8b00ff" points="462.5,-142.53 459,-132.53 455.5,-142.53 462.5,-142.53"/>
</g>
<!-- node30 -->
<g id="node31" class="node">
<title>node30</title>
<path fill="#00bfff" stroke="black" d="M300,-23.5C300,-23.5 330,-23.5 330,-23.5 336,-23.5 342,-29.5 342,-35.5 342,-35.5 342,-47.5 342,-47.5 342,-53.5 336,-59.5 330,-59.5 330,-59.5 300,-59.5 300,-59.5 294,-59.5 288,-53.5 288,-47.5 288,-47.5 288,-35.5 288,-35.5 288,-29.5 294,-23.5 300,-23.5"/>
<text text-anchor="middle" x="315" y="-37.8" font-family="Times New Roman,serif" font-size="14.00">2</text>
</g>
<!-- node29&#45;&gt;node30 -->
<g id="edge30" class="edge">
<title>node29&#45;&gt;node30</title>
<path fill="none" stroke="#00bfff" d="M369.57,-96.31C360.55,-87.42 349.39,-76.41 339.51,-66.67"/>
<polygon fill="#00bfff" stroke="#00bfff" points="341.85,-64.06 332.27,-59.53 336.93,-69.04 341.85,-64.06"/>
</g>
<!-- node31 -->
<g id="node32" class="node">
<title>node31</title>
<path fill="#ccff99" stroke="black" d="M372,-23.5C372,-23.5 402,-23.5 402,-23.5 408,-23.5 414,-29.5 414,-35.5 414,-35.5 414,-47.5 414,-47.5 414,-53.5 408,-59.5 402,-59.5 402,-59.5 372,-59.5 372,-59.5 366,-59.5 360,-53.5 360,-47.5 360,-47.5 360,-35.5 360,-35.5 360,-29.5 366,-23.5 372,-23.5"/>
<text text-anchor="middle" x="387" y="-37.8" font-family="Times New Roman,serif" font-size="14.00">x</text>
</g>
<!-- node29&#45;&gt;node31 -->
<g id="edge31" class="edge">
<title>node29&#45;&gt;node31</title>
<path fill="none" stroke="#ccff99" d="M387,-96.31C387,-88.29 387,-78.55 387,-69.57"/>
<polygon fill="#ccff99" stroke="#ccff99" points="390.5,-69.53 387,-59.53 383.5,-69.53 390.5,-69.53"/>
</g>
<!-- node33 -->
<g id="node34" class="node">
<title>node33</title>
<path fill="#00bfff" stroke="black" d="M444,-23.5C444,-23.5 474,-23.5 474,-23.5 480,-23.5 486,-29.5 486,-35.5 486,-35.5 486,-47.5 486,-47.5 486,-53.5 480,-59.5 474,-59.5 474,-59.5 444,-59.5 444,-59.5 438,-59.5 432,-53.5 432,-47.5 432,-47.5 432,-35.5 432,-35.5 432,-29.5 438,-23.5 444,-23.5"/>
<text text-anchor="middle" x="459" y="-37.8" font-family="Times New Roman,serif" font-size="14.00">2</text>
</g>
<!-- node32&#45;&gt;node33 -->
<g id="edge33" class="edge">
<title>node32&#45;&gt;node33</title>
<path fill="none" stroke="#00bfff" d="M459,-96.31C459,-88.29 459,-78.55 459,-69.57"/>
<polygon fill="#00bfff" stroke="#00bfff" points="462.5,-69.53 459,-59.53 455.5,-69.53 462.5,-69.53"/>
</g>
<!-- node34 -->
<g id="node35" class="node">
<title>node34</title>
<path fill="#ccff99" stroke="black" d="M516,-23.5C516,-23.5 546,-23.5 546,-23.5 552,-23.5 558,-29.5 558,-35.5 558,-35.5 558,-47.5 558,-47.5 558,-53.5 552,-59.5 546,-59.5 546,-59.5 516,-59.5 516,-59.5 510,-59.5 504,-53.5 504,-47.5 504,-47.5 504,-35.5 504,-35.5 504,-29.5 510,-23.5 516,-23.5"/>
<text text-anchor="middle" x="531" y="-37.8" font-family="Times New Roman,serif" font-size="14.00">x</text>
</g>
<!-- node32&#45;&gt;node34 -->
<g id="edge34" class="edge">
<title>node32&#45;&gt;node34</title>
<path fill="none" stroke="#ccff99" d="M476.43,-96.31C485.45,-87.42 496.61,-76.41 506.49,-66.67"/>
<polygon fill="#ccff99" stroke="#ccff99" points="509.07,-69.04 513.73,-59.53 504.15,-64.06 509.07,-69.04"/>
</g>
<!-- node36 -->
<g id="node37" class="node">
<title>node36</title>
<path fill="#00bfff" stroke="black" d="M516,-96.5C516,-96.5 546,-96.5 546,-96.5 552,-96.5 558,-102.5 558,-108.5 558,-108.5 558,-120.5 558,-120.5 558,-126.5 552,-132.5 546,-132.5 546,-132.5 516,-132.5 516,-132.5 510,-132.5 504,-126.5 504,-120.5 504,-120.5 504,-108.5 504,-108.5 504,-102.5 510,-96.5 516,-96.5"/>
<text text-anchor="middle" x="531" y="-110.8" font-family="Times New Roman,serif" font-size="14.00">2</text>
</g>
<!-- node35&#45;&gt;node36 -->
<g id="edge36" class="edge">
<title>node35&#45;&gt;node36</title>
<path fill="none" stroke="#00bfff" d="M531,-169.31C531,-161.29 531,-151.55 531,-142.57"/>
<polygon fill="#00bfff" stroke="#00bfff" points="534.5,-142.53 531,-132.53 527.5,-142.53 534.5,-142.53"/>
</g>
<!-- node37 -->
<g id="node38" class="node">
<title>node37</title>
<path fill="#ccff99" stroke="black" d="M588,-96.5C588,-96.5 618,-96.5 618,-96.5 624,-96.5 630,-102.5 630,-108.5 630,-108.5 630,-120.5 630,-120.5 630,-126.5 624,-132.5 618,-132.5 618,-132.5 588,-132.5 588,-132.5 582,-132.5 576,-126.5 576,-120.5 576,-120.5 576,-108.5 576,-108.5 576,-102.5 582,-96.5 588,-96.5"/>
<text text-anchor="middle" x="603" y="-110.8" font-family="Times New Roman,serif" font-size="14.00">x</text>
</g>
<!-- node35&#45;&gt;node37 -->
<g id="edge37" class="edge">
<title>node35&#45;&gt;node37</title>
<path fill="none" stroke="#ccff99" d="M548.43,-169.31C557.45,-160.42 568.61,-149.41 578.49,-139.67"/>
<polygon fill="#ccff99" stroke="#ccff99" points="581.07,-142.04 585.73,-132.53 576.15,-137.06 581.07,-142.04"/>
</g>
<!-- node39 -->
<g id="node40" class="node">
<title>node39</title>
<path fill="#ccff99" stroke="black" d="M588,-169.5C588,-169.5 618,-169.5 618,-169.5 624,-169.5 630,-175.5 630,-181.5 630,-181.5 630,-193.5 630,-193.5 630,-199.5 624,-205.5 618,-205.5 618,-205.5 588,-205.5 588,-205.5 582,-205.5 576,-199.5 576,-193.5 576,-193.5 576,-181.5 576,-181.5 576,-175.5 582,-169.5 588,-169.5"/>
<text text-anchor="middle" x="603" y="-183.8" font-family="Times New Roman,serif" font-size="14.00">x</text>
</g>
<!-- node38&#45;&gt;node39 -->
<g id="edge39" class="edge">
<title>node38&#45;&gt;node39</title>
<path fill="none" stroke="#ccff99" d="M630.29,-242.31C626.08,-234.03 620.95,-223.91 616.28,-214.69"/>
<polygon fill="#ccff99" stroke="#ccff99" points="619.28,-212.87 611.63,-205.53 613.04,-216.03 619.28,-212.87"/>
</g>
<!-- node40 -->
<g id="node41" class="node">
<title>node40</title>
<path fill="#ccff99" stroke="black" d="M660,-169.5C660,-169.5 690,-169.5 690,-169.5 696,-169.5 702,-175.5 702,-181.5 702,-181.5 702,-193.5 702,-193.5 702,-199.5 696,-205.5 690,-205.5 690,-205.5 660,-205.5 660,-205.5 654,-205.5 648,-199.5 648,-193.5 648,-193.5 648,-181.5 648,-181.5 648,-175.5 654,-169.5 660,-169.5"/>
<text text-anchor="middle" x="675" y="-183.8" font-family="Times New Roman,serif" font-size="14.00">x</text>
</g>
<!-- node38&#45;&gt;node40 -->
<g id="edge40" class="edge">
<title>node38&#45;&gt;node40</title>
<path fill="none" stroke="#ccff99" d="M647.71,-242.31C651.92,-234.03 657.05,-223.91 661.72,-214.69"/>
<polygon fill="#ccff99" stroke="#ccff99" points="664.96,-216.03 666.37,-205.53 658.72,-212.87 664.96,-216.03"/>
</g>
<!-- node42 -->
<g id="node43" class="node">
<title>node42</title>
<path fill="#8b00ff" stroke="black" d="M732,-242.5C732,-242.5 762,-242.5 762,-242.5 768,-242.5 774,-248.5 774,-254.5 774,-254.5 774,-266.5 774,-266.5 774,-272.5 768,-278.5 762,-278.5 762,-278.5 732,-278.5 732,-278.5 726,-278.5 720,-272.5 720,-266.5 720,-266.5 720,-254.5 720,-254.5 720,-248.5 726,-242.5 732,-242.5"/>
<text text-anchor="middle" x="747" y="-256.8" font-family="Times New Roman,serif" font-size="14.00">&#45;</text>
</g>
<!-- node41&#45;&gt;node42 -->
<g id="edge42" class="edge">
<title>node41&#45;&gt;node42</title>
<path fill="none" stroke="#8b00ff" d="M747,-315.31C747,-307.29 747,-297.55 747,-288.57"/>
<polygon fill="#8b00ff" stroke="#8b00ff" points="750.5,-288.53 747,-278.53 743.5,-288.53 750.5,-288.53"/>
</g>
<!-- node51 -->
<g id="node52" class="node">
<title>node51</title>
<path fill="#00bfff" stroke="black" d="M804,-242.5C804,-242.5 834,-242.5 834,-242.5 840,-242.5 846,-248.5 846,-254.5 846,-254.5 846,-266.5 846,-266.5 846,-272.5 840,-278.5 834,-278.5 834,-278.5 804,-278.5 804,-278.5 798,-278.5 792,-272.5 792,-266.5 792,-266.5 792,-254.5 792,-254.5 792,-248.5 798,-242.5 804,-242.5"/>
<text text-anchor="middle" x="819" y="-256.8" font-family="Times New Roman,serif" font-size="14.00">2</text>
</g>
<!-- node41&#45;&gt;node51 -->
<g id="edge51" class="edge">
<title>node41&#45;&gt;node51</title>
<path fill="none" stroke="#00bfff" d="M764.43,-315.31C773.45,-306.42 784.61,-295.41 794.49,-285.67"/>
<polygon fill="#00bfff" stroke="#00bfff" points="797.07,-288.04 801.73,-278.53 792.15,-283.06 797.07,-288.04"/>
</g>
<!-- node43 -->
<g id="node44" class="node">
<title>node43</title>
<path fill="#8b00ff" stroke="black" d="M732,-169.5C732,-169.5 762,-169.5 762,-169.5 768,-169.5 774,-175.5 774,-181.5 774,-181.5 774,-193.5 774,-193.5 774,-199.5 768,-205.5 762,-205.5 762,-205.5 732,-205.5 732,-205.5 726,-205.5 720,-199.5 720,-193.5 720,-193.5 720,-181.5 720,-181.5 720,-175.5 726,-169.5 732,-169.5"/>
<text text-anchor="middle" x="747" y="-183.8" font-family="Times New Roman,serif" font-size="14.00">cdot</text>
</g>
<!-- node42&#45;&gt;node43 -->
<g id="edge43" class="edge">
<title>node42&#45;&gt;node43</title>
<path fill="none" stroke="#8b00ff" d="M747,-242.31C747,-234.29 747,-224.55 747,-215.57"/>
<polygon fill="#8b00ff" stroke="#8b00ff" points="750.5,-215.53 747,-205.53 743.5,-215.53 750.5,-215.53"/>
</g>
<!-- node48 -->
<g id="node49" class="node">
<title>node48</title>
<path fill="#8b00ff" stroke="black" d="M804,-169.5C804,-169.5 834,-169.5 834,-169.5 840,-169.5 846,-175.5 846,-181.5 846,-181.5 846,-193.5 846,-193.5 846,-199.5 840,-205.5 834,-205.5 834,-205.5 804,-205.5 804,-205.5 798,-205.5 792,-199.5 792,-193.5 792,-193.5 792,-181.5 792,-181.5 792,-175.5 798,-169.5 804,-169.5"/>
<text text-anchor="middle" x="819" y="-183.8" font-family="Times New Roman,serif" font-size="14.00">^</text>
</g>
<!-- node42&#45;&gt;node48 -->
<g id="edge48" class="edge">
<title>node42&#45;&gt;node48</title>
<path fill="none" stroke="#8b00ff" d="M764.43,-242.31C773.45,-233.42 784.61,-222.41 794.49,-212.67"/>
<polygon fill="#8b00ff" stroke="#8b00ff" points="797.07,-215.04 801.73,-205.53 792.15,-210.06 797.07,-215.04"/>
</g>
<!-- node44 -->
<g id="node45" class="node">
<title>node44</title>
<path fill="#8b00ff" stroke="black" d="M660,-96.5C660,-96.5 690,-96.5 690,-96.5 696,-96.5 702,-102.5 702,-108.5 702,-108.5 702,-120.5 702,-120.5 702,-126.5 696,-132.5 690,-132.5 690,-132.5 660,-132.5 660,-132.5 654,-132.5 648,-126.5 648,-120.5 648,-120.5 648,-108.5 648,-108.5 648,-102.5 654,-96.5 660,-96.5"/>
<text text-anchor="middle" x="675" y="-110.8" font-family="Times New Roman,serif" font-size="14.00">cdot</text>
</g>
<!-- node43&#45;&gt;node44 -->
<g id="edge44" class="edge">
<title>node43&#45;&gt;node44</title>
<path fill="none" stroke="#8b00ff" d="M729.57,-169.31C720.55,-160.42 709.39,-149.41 699.51,-139.67"/>
<polygon fill="#8b00ff" stroke="#8b00ff" points="701.85,-137.06 692.27,-132.53 696.93,-142.04 701.85,-137.06"/>
</g>
<!-- node47 -->
<g id="node48" class="node">
<title>node47</title>
<path fill="#ccff99" stroke="black" d="M732,-96.5C732,-96.5 762,-96.5 762,-96.5 768,-96.5 774,-102.5 774,-108.5 774,-108.5 774,-120.5 774,-120.5 774,-126.5 768,-132.5 762,-132.5 762,-132.5 732,-132.5 732,-132.5 726,-132.5 720,-126.5 720,-120.5 720,-120.5 720,-108.5 720,-108.5 720,-102.5 726,-96.5 732,-96.5"/>
<text text-anchor="middle" x="747" y="-110.8" font-family="Times New Roman,serif" font-size="14.00">x</text>
</g>
<!-- node43&#45;&gt;node47 -->
<g id="edge47" class="edge">
<title>node43&#45;&gt;node47</title>
<path fill="none" stroke="#ccff99" d="M747,-169.31C747,-161.29 747,-151.55 747,-142.57"/>
<polygon fill="#ccff99" stroke="#ccff99" points="750.5,-142.53 747,-132.53 743.5,-142.53 750.5,-142.53"/>
</g>
<!-- node45 -->
<g id="node46" class="node">
<title>node45</title>
<path fill="#00bfff" stroke="black" d="M624,-23.5C624,-23.5 654,-23.5 654,-23.5 660,-23.5 666,-29.5 666,-35.5 666,-35.5 666,-47.5 666,-47.5 666,-53.5 660,-59.5 654,-59.5 654,-59.5 624,-59.5 624,-59.5 618,-59.5 612,-53.5 612,-47.5 612,-47.5 612,-35.5 612,-35.5 612,-29.5 618,-23.5 624,-23.5"/>
<text text-anchor="middle" x="639" y="-37.8" font-family="Times New Roman,serif" font-size="14.00">2</text>
</g>
<!-- node44&#45;&gt;node45 -->
<g id="edge45" class="edge">
<title>node44&#45;&gt;node45</title>
<path fill="none" stroke="#00bfff" d="M666.29,-96.31C662.08,-88.03 656.95,-77.91 652.28,-68.69"/>
<polygon fill="#00bfff" stroke="#00bfff" points="655.28,-66.87 647.63,-59.53 649.04,-70.03 655.28,-66.87"/>
</g>
<!-- node46 -->
<g id="node47" class="node">
<title>node46</title>
<path fill="#ccff99" stroke="black" d="M696,-23.5C696,-23.5 726,-23.5 726,-23.5 732,-23.5 738,-29.5 738,-35.5 738,-35.5 738,-47.5 738,-47.5 738,-53.5 732,-59.5 726,-59.5 726,-59.5 696,-59.5 696,-59.5 690,-59.5 684,-53.5 684,-47.5 684,-47.5 684,-35.5 684,-35.5 684,-29.5 690,-23.5 696,-23.5"/>
<text text-anchor="middle" x="711" y="-37.8" font-family="Times New Roman,serif" font-size="14.00">x</text>
</g>
<!-- node44&#45;&gt;node46 -->
<g id="edge46" class="edge">
<title>node44&#45;&gt;node46</title>
<path fill="none" stroke="#ccff99" d="M683.71,-96.31C687.92,-88.03 693.05,-77.91 697.72,-68.69"/>
<polygon fill="#ccff99" stroke="#ccff99" points="700.96,-70.03 702.37,-59.53 694.72,-66.87 700.96,-70.03"/>
</g>
<!-- node49 -->
<g id="node50" class="node">
<title>node49</title>
<path fill="#ccff99" stroke="black" d="M804,-96.5C804,-96.5 834,-96.5 834,-96.5 840,-96.5 846,-102.5 846,-108.5 846,-108.5 846,-120.5 846,-120.5 846,-126.5 840,-132.5 834,-132.5 834,-132.5 804,-132.5 804,-132.5 798,-132.5 792,-126.5 792,-120.5 792,-120.5 792,-108.5 792,-108.5 792,-102.5 798,-96.5 804,-96.5"/>
<text text-anchor="middle" x="819" y="-110.8" font-family="Times New Roman,serif" font-size="14.00">x</text>
</g>
<!-- node48&#45;&gt;node49 -->
<g id="edge49" class="edge">
<title>node48&#45;&gt;node49</title>
<path fill="none" stroke="#ccff99" d="M819,-169.31C819,-161.29 819,-151.55 819,-142.57"/>
<polygon fill="#ccff99" stroke="#ccff99" points="822.5,-142.53 819,-132.53 815.5,-142.53 822.5,-142.53"/>
</g>
<!-- node50 -->
<g id="node51" class="node">
<title>node50</title>
<path fill="#00bfff" stroke="black" d="M876,-96.5C876,-96.5 906,-96.5 906,-96.5 912,-96.5 918,-102.5 918,-108.5 918,-108.5 918,-120.5 918,-120.5 918,-126.5 912,-132.5 906,-132.5 906,-132.5 876,-132.5 876,-132.5 870,-132.5 864,-126.5 864,-120.5 864,-120.5 864,-108.5 864,-108.5 864,-102.5 870,-96.5 876,-96.5"/>
<text text-anchor="middle" x="891" y="-110.8" font-family="Times New Roman,serif" font-size="14.00">2</text>
</g>
<!-- node48&#45;&gt;node50 -->
<g id="edge50" class="edge">
<title>node48&#45;&gt;node50</title>
<path fill="none" stroke="#00bfff" d="M836.43,-169.31C845.45,-160.42 856.61,-149.41 866.49,-139.67"/>
<polygon fill="#00bfff" stroke="#00bfff" points="869.07,-142.04 873.73,-132.53 864.15,-137.06 869.07,-142.04"/>
</g>
<!-- node53 -->
<g id="node54" class="node">
<title>node53</title>
<path fill="#8b00ff" stroke="black" d="M912,-388.5C912,-388.5 942,-388.5 942,-388.5 948,-388.5 954,-394.5 954,-400.5 954,-400.5 954,-412.5 954,-412.5 954,-418.5 948,-424.5 942,-424.5 942,-424.5 912,-424.5 912,-424.5 906,-424.5 900,-418.5 900,-412.5 900,-412.5 900,-400.5 900,-400.5 900,-394.5 906,-388.5 912,-388.5"/>
<text text-anchor="middle" x="927" y="-402.8" font-family="Times New Roman,serif" font-size="14.00">cdot</text>
</g>
<!-- node52&#45;&gt;node53 -->
<g id="edge53" class="edge">
<title>node52&#45;&gt;node53</title>
<path fill="none" stroke="#8b00ff" d="M954.29,-461.31C950.08,-453.03 944.95,-442.91 940.28,-433.69"/>
<polygon fill="#8b00ff" stroke="#8b00ff" points="943.28,-431.87 935.63,-424.53 937.04,-435.03 943.28,-431.87"/>
</g>
<!-- node56 -->
<g id="node57" class="node">
<title>node56</title>
<path fill="#8b00ff" stroke="black" d="M984,-388.5C984,-388.5 1014,-388.5 1014,-388.5 1020,-388.5 1026,-394.5 1026,-400.5 1026,-400.5 1026,-412.5 1026,-412.5 1026,-418.5 1020,-424.5 1014,-424.5 1014,-424.5 984,-424.5 984,-424.5 978,-424.5 972,-418.5 972,-412.5 972,-412.5 972,-400.5 972,-400.5 972,-394.5 978,-388.5 984,-388.5"/>
<text text-anchor="middle" x="999" y="-402.8" font-family="Times New Roman,serif" font-size="14.00">cdot</text>
</g>
<!-- node52&#45;&gt;node56 -->
<g id="edge56" class="edge">
<title>node52&#45;&gt;node56</title>
<path fill="none" stroke="#8b00ff" d="M971.71,-461.31C975.92,-453.03 981.05,-442.91 985.72,-433.69"/>
<polygon fill="#8b00ff" stroke="#8b00ff" points="988.96,-435.03 990.37,-424.53 982.72,-431.87 988.96,-435.03"/>
</g>
<!-- node54 -->
<g id="node55" class="node">
<title>node54</title>
<path fill="#ccff99" stroke="black" d="M840,-315.5C840,-315.5 870,-315.5 870,-315.5 876,-315.5 882,-321.5 882,-327.5 882,-327.5 882,-339.5 882,-339.5 882,-345.5 876,-351.5 870,-351.5 870,-351.5 840,-351.5 840,-351.5 834,-351.5 828,-345.5 828,-339.5 828,-339.5 828,-327.5 828,-327.5 828,-321.5 834,-315.5 840,-315.5"/>
<text text-anchor="middle" x="855" y="-329.8" font-family="Times New Roman,serif" font-size="14.00">x</text>
</g>
<!-- node53&#45;&gt;node54 -->
<g id="edge54" class="edge">
<title>node53&#45;&gt;node54</title>
<path fill="none" stroke="#ccff99" d="M909.57,-388.31C900.55,-379.42 889.39,-368.41 879.51,-358.67"/>
<polygon fill="#ccff99" stroke="#ccff99" points="881.85,-356.06 872.27,-351.53 876.93,-361.04 881.85,-356.06"/>
</g>
<!-- node55 -->
<g id="node56" class="node">
<title>node55</title>
<path fill="#ccff99" stroke="black" d="M912,-315.5C912,-315.5 942,-315.5 942,-315.5 948,-315.5 954,-321.5 954,-327.5 954,-327.5 954,-339.5 954,-339.5 954,-345.5 948,-351.5 942,-351.5 942,-351.5 912,-351.5 912,-351.5 906,-351.5 900,-345.5 900,-339.5 900,-339.5 900,-327.5 900,-327.5 900,-321.5 906,-315.5 912,-315.5"/>
<text text-anchor="middle" x="927" y="-329.8" font-family="Times New Roman,serif" font-size="14.00">x</text>
</g>
<!-- node53&#45;&gt;node55 -->
<g id="edge55" class="edge">
<title>node53&#45;&gt;node55</title>
<path fill="none" stroke="#ccff99" d="M927,-388.31C927,-380.29 927,-370.55 927,-361.57"/>
<polygon fill="#ccff99" stroke="#ccff99" points="930.5,-361.53 927,-351.53 923.5,-361.53 930.5,-361.53"/>
</g>
<!-- node57 -->
<g id="node58" class="node">
<title>node57</title>
<path fill="#ccff99" stroke="black" d="M984,-315.5C984,-315.5 1014,-315.5 1014,-315.5 1020,-315.5 1026,-321.5 1026,-327.5 1026,-327.5 1026,-339.5 1026,-339.5 1026,-345.5 1020,-351.5 1014,-351.5 1014,-351.5 984,-351.5 984,-351.5 978,-351.5 972,-345.5 972,-339.5 972,-339.5 972,-327.5 972,-327.5 972,-321.5 978,-315.5 984,-315.5"/>
<text text-anchor="middle" x="999" y="-329.8" font-family="Times New Roman,serif" font-size="14.00">x</text>
</g>
<!-- node56&#45;&gt;node57 -->
<g id="edge57" class="edge">
<title>node56&#45;&gt;node57</title>
<path fill="none" stroke="#ccff99" d="M999,-388.31C999,-380.29 999,-370.55 999,-361.57"/>
<polygon fill="#ccff99" stroke="#ccff99" points="1002.5,-361.53 999,-351.53 995.5,-361.53 1002.5,-361.53"/>
</g>
<!-- node58 -->
<g id="node59" class="node">
<title>node58</title>
<path fill="#ccff99" stroke="black" d="M1056,-315.5C1056,-315.5 1086,-315.5 1086,-315.5 1092,-315.5 1098,-321.5 1098,-327.5 1098,-327.5 1098,-339.5 1098,-339.5 1098,-345.5 1092,-351.5 1086,-351.5 1086,-351.5 1056,-351.5 1056,-351.5 1050,-351.5 1044,-345.5 1044,-339.5 1044,-339.5 1044,-327.5 1044,-327.5 1044,-321.5 1050,-315.5 1056,-315.5"/>
<text text-anchor="middle" x="1071" y="-329.8" font-family="Times New Roman,serif" font-size="14.00">x</text>
</g>
<!-- node56&#45;&gt;node58 -->
<g id="edge58" class="edge">
<title>node56&#45;&gt;node58</title>
<path fill="none" stroke="#ccff99" d="M1016.43,-388.31C1025.45,-379.42 1036.61,-368.41 1046.49,-358.67"/>
<polygon fill="#ccff99" stroke="#ccff99" points="1049.07,-361.04 1053.73,-351.53 1044.15,-356.06 1049.07,-361.04"/>
</g>
<!-- node60 -->
<g id="node61" class="node">
<title>node60</title>
<path fill="#8b00ff" stroke="black" d="M1488,-461.5C1488,-461.5 1518,-461.5 1518,-461.5 1524,-461.5 1530,-467.5 1530,-473.5 1530,-473.5 1530,-485.5 1530,-485.5 1530,-491.5 1524,-497.5 1518,-497.5 1518,-497.5 1488,-497.5 1488,-497.5 1482,-497.5 1476,-491.5 1476,-485.5 1476,-485.5 1476,-473.5 1476,-473.5 1476,-467.5 1482,-461.5 1488,-461.5"/>
<text text-anchor="middle" x="1503" y="-475.8" font-family="Times New Roman,serif" font-size="14.00">&#45;</text>
</g>
<!-- node59&#45;&gt;node60 -->
<g id="edge60" class="edge">
<title>node59&#45;&gt;node60</title>
<path fill="none" stroke="#8b00ff" d="M1585.13,-534.49C1570.94,-525.17 1553.16,-513.47 1537.77,-503.36"/>
<polygon fill="#8b00ff" stroke="#8b00ff" points="1539.31,-500.18 1529.03,-497.61 1535.47,-506.03 1539.31,-500.18"/>
</g>
<!-- node89 -->
<g id="node90" class="node">
<title>node89</title>
<path fill="#8b00ff" stroke="black" d="M1776,-461.5C1776,-461.5 1806,-461.5 1806,-461.5 1812,-461.5 1818,-467.5 1818,-473.5 1818,-473.5 1818,-485.5 1818,-485.5 1818,-491.5 1812,-497.5 1806,-497.5 1806,-497.5 1776,-497.5 1776,-497.5 1770,-497.5 1764,-491.5 1764,-485.5 1764,-485.5 1764,-473.5 1764,-473.5 1764,-467.5 1770,-461.5 1776,-461.5"/>
<text text-anchor="middle" x="1791" y="-475.8" font-family="Times New Roman,serif" font-size="14.00">+</text>
</g>
<!-- node59&#45;&gt;node89 -->
<g id="edge89" class="edge">
<title>node59&#45;&gt;node89</title>
<path fill="none" stroke="#8b00ff" d="M1638.34,-540.72C1669.31,-528.5 1719.93,-508.53 1754.32,-494.97"/>
<polygon fill="#8b00ff" stroke="#8b00ff" points="1755.98,-498.08 1763.99,-491.15 1753.41,-491.57 1755.98,-498.08"/>
</g>
<!-- node61 -->
<g id="node62" class="node">
<title>node61</title>
<path fill="#8b00ff" stroke="black" d="M1272,-388.5C1272,-388.5 1302,-388.5 1302,-388.5 1308,-388.5 1314,-394.5 1314,-400.5 1314,-400.5 1314,-412.5 1314,-412.5 1314,-418.5 1308,-424.5 1302,-424.5 1302,-424.5 1272,-424.5 1272,-424.5 1266,-424.5 1260,-418.5 1260,-412.5 1260,-412.5 1260,-400.5 1260,-400.5 1260,-394.5 1266,-388.5 1272,-388.5"/>
<text text-anchor="middle" x="1287" y="-402.8" font-family="Times New Roman,serif" font-size="14.00">cdot</text>
</g>
<!-- node60&#45;&gt;node61 -->
<g id="edge61" class="edge">
<title>node60&#45;&gt;node61</title>
<path fill="none" stroke="#8b00ff" d="M1475.64,-469.51C1437.1,-456.84 1366.71,-433.7 1323.67,-419.55"/>
<polygon fill="#8b00ff" stroke="#8b00ff" points="1324.73,-416.22 1314.13,-416.42 1322.54,-422.87 1324.73,-416.22"/>
</g>
<!-- node76 -->
<g id="node77" class="node">
<title>node76</title>
<path fill="#8b00ff" stroke="black" d="M1488,-388.5C1488,-388.5 1518,-388.5 1518,-388.5 1524,-388.5 1530,-394.5 1530,-400.5 1530,-400.5 1530,-412.5 1530,-412.5 1530,-418.5 1524,-424.5 1518,-424.5 1518,-424.5 1488,-424.5 1488,-424.5 1482,-424.5 1476,-418.5 1476,-412.5 1476,-412.5 1476,-400.5 1476,-400.5 1476,-394.5 1482,-388.5 1488,-388.5"/>
<text text-anchor="middle" x="1503" y="-402.8" font-family="Times New Roman,serif" font-size="14.00">cdot</text>
</g>
<!-- node60&#45;&gt;node76 -->
<g id="edge76" class="edge">
<title>node60&#45;&gt;node76</title>
<path fill="none" stroke="#8b00ff" d="M1503,-461.31C1503,-453.29 1503,-443.55 1503,-434.57"/>
<polygon fill="#8b00ff" stroke="#8b00ff" points="1506.5,-434.53 1503,-424.53 1499.5,-434.53 1506.5,-434.53"/>
</g>
<!-- node62 -->
<g id="node63" class="node">
<title>node62</title>
<path fill="#8b00ff" stroke="black" d="M1164,-315.5C1164,-315.5 1194,-315.5 1194,-315.5 1200,-315.5 1206,-321.5 1206,-327.5 1206,-327.5 1206,-339.5 1206,-339.5 1206,-345.5 1200,-351.5 1194,-351.5 1194,-351.5 1164,-351.5 1164,-351.5 1158,-351.5 1152,-345.5 1152,-339.5 1152,-339.5 1152,-327.5 1152,-327.5 1152,-321.5 1158,-315.5 1164,-315.5"/>
<text text-anchor="middle" x="1179" y="-329.8" font-family="Times New Roman,serif" font-size="14.00">&#45;</text>
</g>
<!-- node61&#45;&gt;node62 -->
<g id="edge62" class="edge">
<title>node61&#45;&gt;node62</title>
<path fill="none" stroke="#8b00ff" d="M1261.13,-388.49C1246.94,-379.17 1229.16,-367.47 1213.77,-357.36"/>
<polygon fill="#8b00ff" stroke="#8b00ff" points="1215.31,-354.18 1205.03,-351.61 1211.47,-360.03 1215.31,-354.18"/>
</g>
<!-- node73 -->
<g id="node74" class="node">
<title>node73</title>
<path fill="#8b00ff" stroke="black" d="M1272,-315.5C1272,-315.5 1302,-315.5 1302,-315.5 1308,-315.5 1314,-321.5 1314,-327.5 1314,-327.5 1314,-339.5 1314,-339.5 1314,-345.5 1308,-351.5 1302,-351.5 1302,-351.5 1272,-351.5 1272,-351.5 1266,-351.5 1260,-345.5 1260,-339.5 1260,-339.5 1260,-327.5 1260,-327.5 1260,-321.5 1266,-315.5 1272,-315.5"/>
<text text-anchor="middle" x="1287" y="-329.8" font-family="Times New Roman,serif" font-size="14.00">cdot</text>
</g>
<!-- node61&#45;&gt;node73 -->
<g id="edge73" class="edge">
<title>node61&#45;&gt;node73</title>
<path fill="none" stroke="#8b00ff" d="M1287,-388.31C1287,-380.29 1287,-370.55 1287,-361.57"/>
<polygon fill="#8b00ff" stroke="#8b00ff" points="1290.5,-361.53 1287,-351.53 1283.5,-361.53 1290.5,-361.53"/>
</g>
<!-- node63 -->
<g id="node64" class="node">
<title>node63</title>
<path fill="#8b00ff" stroke="black" d="M1092,-242.5C1092,-242.5 1122,-242.5 1122,-242.5 1128,-242.5 1134,-248.5 1134,-254.5 1134,-254.5 1134,-266.5 1134,-266.5 1134,-272.5 1128,-278.5 1122,-278.5 1122,-278.5 1092,-278.5 1092,-278.5 1086,-278.5 1080,-272.5 1080,-266.5 1080,-266.5 1080,-254.5 1080,-254.5 1080,-248.5 1086,-242.5 1092,-242.5"/>
<text text-anchor="middle" x="1107" y="-256.8" font-family="Times New Roman,serif" font-size="14.00">+</text>
</g>
<!-- node62&#45;&gt;node63 -->
<g id="edge63" class="edge">
<title>node62&#45;&gt;node63</title>
<path fill="none" stroke="#8b00ff" d="M1161.57,-315.31C1152.55,-306.42 1141.39,-295.41 1131.51,-285.67"/>
<polygon fill="#8b00ff" stroke="#8b00ff" points="1133.85,-283.06 1124.27,-278.53 1128.93,-288.04 1133.85,-283.06"/>
</g>
<!-- node70 -->
<g id="node71" class="node">
<title>node70</title>
<path fill="#8b00ff" stroke="black" d="M1164,-242.5C1164,-242.5 1194,-242.5 1194,-242.5 1200,-242.5 1206,-248.5 1206,-254.5 1206,-254.5 1206,-266.5 1206,-266.5 1206,-272.5 1200,-278.5 1194,-278.5 1194,-278.5 1164,-278.5 1164,-278.5 1158,-278.5 1152,-272.5 1152,-266.5 1152,-266.5 1152,-254.5 1152,-254.5 1152,-248.5 1158,-242.5 1164,-242.5"/>
<text text-anchor="middle" x="1179" y="-256.8" font-family="Times New Roman,serif" font-size="14.00">cdot</text>
</g>
<!-- node62&#45;&gt;node70 -->
<g id="edge70" class="edge">
<title>node62&#45;&gt;node70</title>
<path fill="none" stroke="#8b00ff" d="M1179,-315.31C1179,-307.29 1179,-297.55 1179,-288.57"/>
<polygon fill="#8b00ff" stroke="#8b00ff" points="1182.5,-288.53 1179,-278.53 1175.5,-288.53 1182.5,-288.53"/>
</g>
<!-- node64 -->
<g id="node65" class="node">
<title>node64</title>
<path fill="#8b00ff" stroke="black" d="M1020,-169.5C1020,-169.5 1050,-169.5 1050,-169.5 1056,-169.5 1062,-175.5 1062,-181.5 1062,-181.5 1062,-193.5 1062,-193.5 1062,-199.5 1056,-205.5 1050,-205.5 1050,-205.5 1020,-205.5 1020,-205.5 1014,-205.5 1008,-199.5 1008,-193.5 1008,-193.5 1008,-181.5 1008,-181.5 1008,-175.5 1014,-169.5 1020,-169.5"/>
<text text-anchor="middle" x="1035" y="-183.8" font-family="Times New Roman,serif" font-size="14.00">cdot</text>
</g>
<!-- node63&#45;&gt;node64 -->
<g id="edge64" class="edge">
<title>node63&#45;&gt;node64</title>
<path fill="none" stroke="#8b00ff" d="M1089.57,-242.31C1080.55,-233.42 1069.39,-222.41 1059.51,-212.67"/>
<polygon fill="#8b00ff" stroke="#8b00ff" points="1061.85,-210.06 1052.27,-205.53 1056.93,-215.04 1061.85,-210.06"/>
</g>
<!-- node67 -->
<g id="node68" class="node">
<title>node67</title>
<path fill="#8b00ff" stroke="black" d="M1092,-169.5C1092,-169.5 1122,-169.5 1122,-169.5 1128,-169.5 1134,-175.5 1134,-181.5 1134,-181.5 1134,-193.5 1134,-193.5 1134,-199.5 1128,-205.5 1122,-205.5 1122,-205.5 1092,-205.5 1092,-205.5 1086,-205.5 1080,-199.5 1080,-193.5 1080,-193.5 1080,-181.5 1080,-181.5 1080,-175.5 1086,-169.5 1092,-169.5"/>
<text text-anchor="middle" x="1107" y="-183.8" font-family="Times New Roman,serif" font-size="14.00">cdot</text>
</g>
<!-- node63&#45;&gt;node67 -->
<g id="edge67" class="edge">
<title>node63&#45;&gt;node67</title>
<path fill="none" stroke="#8b00ff" d="M1107,-242.31C1107,-234.29 1107,-224.55 1107,-215.57"/>
<polygon fill="#8b00ff" stroke="#8b00ff" points="1110.5,-215.53 1107,-205.53 1103.5,-215.53 1110.5,-215.53"/>
</g>
<!-- node65 -->
<g id="node66" class="node">
<title>node65</title>
<path fill="#00bfff" stroke="black" d="M948,-96.5C948,-96.5 978,-96.5 978,-96.5 984,-96.5 990,-102.5 990,-108.5 990,-108.5 990,-120.5 990,-120.5 990,-126.5 984,-132.5 978,-132.5 978,-132.5 948,-132.5 948,-132.5 942,-132.5 936,-126.5 936,-120.5 936,-120.5 936,-108.5 936,-108.5 936,-102.5 942,-96.5 948,-96.5"/>
<text text-anchor="middle" x="963" y="-110.8" font-family="Times New Roman,serif" font-size="14.00">2</text>
</g>
<!-- node64&#45;&gt;node65 -->
<g id="edge65" class="edge">
<title>node64&#45;&gt;node65</title>
<path fill="none" stroke="#00bfff" d="M1017.57,-169.31C1008.55,-160.42 997.39,-149.41 987.51,-139.67"/>
<polygon fill="#00bfff" stroke="#00bfff" points="989.85,-137.06 980.27,-132.53 984.93,-142.04 989.85,-137.06"/>
</g>
<!-- node66 -->
<g id="node67" class="node">
<title>node66</title>
<path fill="#ccff99" stroke="black" d="M1020,-96.5C1020,-96.5 1050,-96.5 1050,-96.5 1056,-96.5 1062,-102.5 1062,-108.5 1062,-108.5 1062,-120.5 1062,-120.5 1062,-126.5 1056,-132.5 1050,-132.5 1050,-132.5 1020,-132.5 1020,-132.5 1014,-132.5 1008,-126.5 1008,-120.5 1008,-120.5 1008,-108.5 1008,-108.5 1008,-102.5 1014,-96.5 1020,-96.5"/>
<text text-anchor="middle" x="1035" y="-110.8" font-family="Times New Roman,serif" font-size="14.00">x</text>
</g>
<!-- node64&#45;&gt;node66 -->
<g id="edge66" class="edge">
<title>node64&#45;&gt;node66</title>
<path fill="none" stroke="#ccff99" d="M1035,-169.31C1035,-161.29 1035,-151.55 1035,-142.57"/>
<polygon fill="#ccff99" stroke="#ccff99" points="1038.5,-142.53 1035,-132.53 1031.5,-142.53 1038.5,-142.53"/>
</g>
<!-- node68 -->
<g id="node69" class="node">
<title>node68</title>
<path fill="#00bfff" stroke="black" d="M1092,-96.5C1092,-96.5 1122,-96.5 1122,-96.5 1128,-96.5 1134,-102.5 1134,-108.5 1134,-108.5 1134,-120.5 1134,-120.5 1134,-126.5 1128,-132.5 1122,-132.5 1122,-132.5 1092,-132.5 1092,-132.5 1086,-132.5 1080,-126.5 1080,-120.5 1080,-120.5 1080,-108.5 1080,-108.5 1080,-102.5 1086,-96.5 1092,-96.5"/>
<text text-anchor="middle" x="1107" y="-110.8" font-family="Times New Roman,serif" font-size="14.00">2</text>
</g>
<!-- node67&#45;&gt;node68 -->
<g id="edge68" class="edge">
<title>node67&#45;&gt;node68</title>
<path fill="none" stroke="#00bfff" d="M1107,-169.31C1107,-161.29 1107,-151.55 1107,-142.57"/>
<polygon fill="#00bfff" stroke="#00bfff" points="1110.5,-142.53 1107,-132.53 1103.5,-142.53 1110.5,-142.53"/>
</g>
<!-- node69 -->
<g id="node70" class="node">
<title>node69</title>
<path fill="#ccff99" stroke="black" d="M1164,-96.5C1164,-96.5 1194,-96.5 1194,-96.5 1200,-96.5 1206,-102.5 1206,-108.5 1206,-108.5 1206,-120.5 1206,-120.5 1206,-126.5 1200,-132.5 1194,-132.5 1194,-132.5 1164,-132.5 1164,-132.5 1158,-132.5 1152,-126.5 1152,-120.5 1152,-120.5 1152,-108.5 1152,-108.5 1152,-102.5 1158,-96.5 1164,-96.5"/>
<text text-anchor="middle" x="1179" y="-110.8" font-family="Times New Roman,serif" font-size="14.00">x</text>
</g>
<!-- node67&#45;&gt;node69 -->
<g id="edge69" class="edge">
<title>node67&#45;&gt;node69</title>
<path fill="none" stroke="#ccff99" d="M1124.43,-169.31C1133.45,-160.42 1144.61,-149.41 1154.49,-139.67"/>
<polygon fill="#ccff99" stroke="#ccff99" points="1157.07,-142.04 1161.73,-132.53 1152.15,-137.06 1157.07,-142.04"/>
</g>
<!-- node71 -->
<g id="node72" class="node">
<title>node71</title>
<path fill="#00bfff" stroke="black" d="M1164,-169.5C1164,-169.5 1194,-169.5 1194,-169.5 1200,-169.5 1206,-175.5 1206,-181.5 1206,-181.5 1206,-193.5 1206,-193.5 1206,-199.5 1200,-205.5 1194,-205.5 1194,-205.5 1164,-205.5 1164,-205.5 1158,-205.5 1152,-199.5 1152,-193.5 1152,-193.5 1152,-181.5 1152,-181.5 1152,-175.5 1158,-169.5 1164,-169.5"/>
<text text-anchor="middle" x="1179" y="-183.8" font-family="Times New Roman,serif" font-size="14.00">2</text>
</g>
<!-- node70&#45;&gt;node71 -->
<g id="edge71" class="edge">
<title>node70&#45;&gt;node71</title>
<path fill="none" stroke="#00bfff" d="M1179,-242.31C1179,-234.29 1179,-224.55 1179,-215.57"/>
<polygon fill="#00bfff" stroke="#00bfff" points="1182.5,-215.53 1179,-205.53 1175.5,-215.53 1182.5,-215.53"/>
</g>
<!-- node72 -->
<g id="node73" class="node">
<title>node72</title>
<path fill="#ccff99" stroke="black" d="M1236,-169.5C1236,-169.5 1266,-169.5 1266,-169.5 1272,-169.5 1278,-175.5 1278,-181.5 1278,-181.5 1278,-193.5 1278,-193.5 1278,-199.5 1272,-205.5 1266,-205.5 1266,-205.5 1236,-205.5 1236,-205.5 1230,-205.5 1224,-199.5 1224,-193.5 1224,-193.5 1224,-181.5 1224,-181.5 1224,-175.5 1230,-169.5 1236,-169.5"/>
<text text-anchor="middle" x="1251" y="-183.8" font-family="Times New Roman,serif" font-size="14.00">x</text>
</g>
<!-- node70&#45;&gt;node72 -->
<g id="edge72" class="edge">
<title>node70&#45;&gt;node72</title>
<path fill="none" stroke="#ccff99" d="M1196.43,-242.31C1205.45,-233.42 1216.61,-222.41 1226.49,-212.67"/>
<polygon fill="#ccff99" stroke="#ccff99" points="1229.07,-215.04 1233.73,-205.53 1224.15,-210.06 1229.07,-215.04"/>
</g>
<!-- node74 -->
<g id="node75" class="node">
<title>node74</title>
<path fill="#ccff99" stroke="black" d="M1236,-242.5C1236,-242.5 1266,-242.5 1266,-242.5 1272,-242.5 1278,-248.5 1278,-254.5 1278,-254.5 1278,-266.5 1278,-266.5 1278,-272.5 1272,-278.5 1266,-278.5 1266,-278.5 1236,-278.5 1236,-278.5 1230,-278.5 1224,-272.5 1224,-266.5 1224,-266.5 1224,-254.5 1224,-254.5 1224,-248.5 1230,-242.5 1236,-242.5"/>
<text text-anchor="middle" x="1251" y="-256.8" font-family="Times New Roman,serif" font-size="14.00">x</text>
</g>
<!-- node73&#45;&gt;node74 -->
<g id="edge74" class="edge">
<title>node73&#45;&gt;node74</title>
<path fill="none" stroke="#ccff99" d="M1278.29,-315.31C1274.08,-307.03 1268.95,-296.91 1264.28,-287.69"/>
<polygon fill="#ccff99" stroke="#ccff99" points="1267.28,-285.87 1259.63,-278.53 1261.04,-289.03 1267.28,-285.87"/>
</g>
<!-- node75 -->
<g id="node76" class="node">
<title>node75</title>
<path fill="#ccff99" stroke="black" d="M1308,-242.5C1308,-242.5 1338,-242.5 1338,-242.5 1344,-242.5 1350,-248.5 1350,-254.5 1350,-254.5 1350,-266.5 1350,-266.5 1350,-272.5 1344,-278.5 1338,-278.5 1338,-278.5 1308,-278.5 1308,-278.5 1302,-278.5 1296,-272.5 1296,-266.5 1296,-266.5 1296,-254.5 1296,-254.5 1296,-248.5 1302,-242.5 1308,-242.5"/>
<text text-anchor="middle" x="1323" y="-256.8" font-family="Times New Roman,serif" font-size="14.00">x</text>
</g>
<!-- node73&#45;&gt;node75 -->
<g id="edge75" class="edge">
<title>node73&#45;&gt;node75</title>
<path fill="none" stroke="#ccff99" d="M1295.71,-315.31C1299.92,-307.03 1305.05,-296.91 1309.72,-287.69"/>
<polygon fill="#ccff99" stroke="#ccff99" points="1312.96,-289.03 1314.37,-278.53 1306.72,-285.87 1312.96,-289.03"/>
</g>
<!-- node77 -->
<g id="node78" class="node">
<title>node77</title>
<path fill="#8b00ff" stroke="black" d="M1452,-315.5C1452,-315.5 1482,-315.5 1482,-315.5 1488,-315.5 1494,-321.5 1494,-327.5 1494,-327.5 1494,-339.5 1494,-339.5 1494,-345.5 1488,-351.5 1482,-351.5 1482,-351.5 1452,-351.5 1452,-351.5 1446,-351.5 1440,-345.5 1440,-339.5 1440,-339.5 1440,-327.5 1440,-327.5 1440,-321.5 1446,-315.5 1452,-315.5"/>
<text text-anchor="middle" x="1467" y="-329.8" font-family="Times New Roman,serif" font-size="14.00">&#45;</text>
</g>
<!-- node76&#45;&gt;node77 -->
<g id="edge77" class="edge">
<title>node76&#45;&gt;node77</title>
<path fill="none" stroke="#8b00ff" d="M1494.29,-388.31C1490.08,-380.03 1484.95,-369.91 1480.28,-360.69"/>
<polygon fill="#8b00ff" stroke="#8b00ff" points="1483.28,-358.87 1475.63,-351.53 1477.04,-362.03 1483.28,-358.87"/>
</g>
<!-- node86 -->
<g id="node87" class="node">
<title>node86</title>
<path fill="#8b00ff" stroke="black" d="M1524,-315.5C1524,-315.5 1554,-315.5 1554,-315.5 1560,-315.5 1566,-321.5 1566,-327.5 1566,-327.5 1566,-339.5 1566,-339.5 1566,-345.5 1560,-351.5 1554,-351.5 1554,-351.5 1524,-351.5 1524,-351.5 1518,-351.5 1512,-345.5 1512,-339.5 1512,-339.5 1512,-327.5 1512,-327.5 1512,-321.5 1518,-315.5 1524,-315.5"/>
<text text-anchor="middle" x="1539" y="-329.8" font-family="Times New Roman,serif" font-size="14.00">+</text>
</g>
<!-- node76&#45;&gt;node86 -->
<g id="edge86" class="edge">
<title>node76&#45;&gt;node86</title>
<path fill="none" stroke="#8b00ff" d="M1511.71,-388.31C1515.92,-380.03 1521.05,-369.91 1525.72,-360.69"/>
<polygon fill="#8b00ff" stroke="#8b00ff" points="1528.96,-362.03 1530.37,-351.53 1522.72,-358.87 1528.96,-362.03"/>
</g>
<!-- node78 -->
<g id="node79" class="node">
<title>node78</title>
<path fill="#8b00ff" stroke="black" d="M1380,-242.5C1380,-242.5 1410,-242.5 1410,-242.5 1416,-242.5 1422,-248.5 1422,-254.5 1422,-254.5 1422,-266.5 1422,-266.5 1422,-272.5 1416,-278.5 1410,-278.5 1410,-278.5 1380,-278.5 1380,-278.5 1374,-278.5 1368,-272.5 1368,-266.5 1368,-266.5 1368,-254.5 1368,-254.5 1368,-248.5 1374,-242.5 1380,-242.5"/>
<text text-anchor="middle" x="1395" y="-256.8" font-family="Times New Roman,serif" font-size="14.00">cdot</text>
</g>
<!-- node77&#45;&gt;node78 -->
<g id="edge78" class="edge">
<title>node77&#45;&gt;node78</title>
<path fill="none" stroke="#8b00ff" d="M1449.57,-315.31C1440.55,-306.42 1429.39,-295.41 1419.51,-285.67"/>
<polygon fill="#8b00ff" stroke="#8b00ff" points="1421.85,-283.06 1412.27,-278.53 1416.93,-288.04 1421.85,-283.06"/>
</g>
<!-- node83 -->
<g id="node84" class="node">
<title>node83</title>
<path fill="#8b00ff" stroke="black" d="M1452,-242.5C1452,-242.5 1482,-242.5 1482,-242.5 1488,-242.5 1494,-248.5 1494,-254.5 1494,-254.5 1494,-266.5 1494,-266.5 1494,-272.5 1488,-278.5 1482,-278.5 1482,-278.5 1452,-278.5 1452,-278.5 1446,-278.5 1440,-272.5 1440,-266.5 1440,-266.5 1440,-254.5 1440,-254.5 1440,-248.5 1446,-242.5 1452,-242.5"/>
<text text-anchor="middle" x="1467" y="-256.8" font-family="Times New Roman,serif" font-size="14.00">^</text>
</g>
<!-- node77&#45;&gt;node83 -->
<g id="edge83" class="edge">
<title>node77&#45;&gt;node83</title>
<path fill="none" stroke="#8b00ff" d="M1467,-315.31C1467,-307.29 1467,-297.55 1467,-288.57"/>
<polygon fill="#8b00ff" stroke="#8b00ff" points="1470.5,-288.53 1467,-278.53 1463.5,-288.53 1470.5,-288.53"/>
</g>
<!-- node79 -->
<g id="node80" class="node">
<title>node79</title>
<path fill="#8b00ff" stroke="black" d="M1308,-169.5C1308,-169.5 1338,-169.5 1338,-169.5 1344,-169.5 1350,-175.5 1350,-181.5 1350,-181.5 1350,-193.5 1350,-193.5 1350,-199.5 1344,-205.5 1338,-205.5 1338,-205.5 1308,-205.5 1308,-205.5 1302,-205.5 1296,-199.5 1296,-193.5 1296,-193.5 1296,-181.5 1296,-181.5 1296,-175.5 1302,-169.5 1308,-169.5"/>
<text text-anchor="middle" x="1323" y="-183.8" font-family="Times New Roman,serif" font-size="14.00">cdot</text>
</g>
<!-- node78&#45;&gt;node79 -->
<g id="edge79" class="edge">
<title>node78&#45;&gt;node79</title>
<path fill="none" stroke="#8b00ff" d="M1377.57,-242.31C1368.55,-233.42 1357.39,-222.41 1347.51,-212.67"/>
<polygon fill="#8b00ff" stroke="#8b00ff" points="1349.85,-210.06 1340.27,-205.53 1344.93,-215.04 1349.85,-210.06"/>
</g>
<!-- node82 -->
<g id="node83" class="node">
<title>node82</title>
<path fill="#ccff99" stroke="black" d="M1380,-169.5C1380,-169.5 1410,-169.5 1410,-169.5 1416,-169.5 1422,-175.5 1422,-181.5 1422,-181.5 1422,-193.5 1422,-193.5 1422,-199.5 1416,-205.5 1410,-205.5 1410,-205.5 1380,-205.5 1380,-205.5 1374,-205.5 1368,-199.5 1368,-193.5 1368,-193.5 1368,-181.5 1368,-181.5 1368,-175.5 1374,-169.5 1380,-169.5"/>
<text text-anchor="middle" x="1395" y="-183.8" font-family="Times New Roman,serif" font-size="14.00">x</text>
</g>
<!-- node78&#45;&gt;node82 -->
<g id="edge82" class="edge">
<title>node78&#45;&gt;node82</title>
<path fill="none" stroke="#ccff99" d="M1395,-242.31C1395,-234.29 1395,-224.55 1395,-215.57"/>
<polygon fill="#ccff99" stroke="#ccff99" points="1398.5,-215.53 1395,-205.53 1391.5,-215.53 1398.5,-215.53"/>
</g>
<!-- node80 -->
<g id="node81" class="node">
<title>node80</title>
<path fill="#00bfff" stroke="black" d="M1272,-96.5C1272,-96.5 1302,-96.5 1302,-96.5 1308,-96.5 1314,-102.5 1314,-108.5 1314,-108.5 1314,-120.5 1314,-120.5 1314,-126.5 1308,-132.5 1302,-132.5 1302,-132.5 1272,-132.5 1272,-132.5 1266,-132.5 1260,-126.5 1260,-120.5 1260,-120.5 1260,-108.5 1260,-108.5 1260,-102.5 1266,-96.5 1272,-96.5"/>
<text text-anchor="middle" x="1287" y="-110.8" font-family="Times New Roman,serif" font-size="14.00">2</text>
</g>
<!-- node79&#45;&gt;node80 -->
<g id="edge80" class="edge">
<title>node79&#45;&gt;node80</title>
<path fill="none" stroke="#00bfff" d="M1314.29,-169.31C1310.08,-161.03 1304.95,-150.91 1300.28,-141.69"/>
<polygon fill="#00bfff" stroke="#00bfff" points="1303.28,-139.87 1295.63,-132.53 1297.04,-143.03 1303.28,-139.87"/>
</g>
<!-- node81 -->
<g id="node82" class="node">
<title>node81</title>
<path fill="#ccff99" stroke="black" d="M1344,-96.5C1344,-96.5 1374,-96.5 1374,-96.5 1380,-96.5 1386,-102.5 1386,-108.5 1386,-108.5 1386,-120.5 1386,-120.5 1386,-126.5 1380,-132.5 1374,-132.5 1374,-132.5 1344,-132.5 1344,-132.5 1338,-132.5 1332,-126.5 1332,-120.5 1332,-120.5 1332,-108.5 1332,-108.5 1332,-102.5 1338,-96.5 1344,-96.5"/>
<text text-anchor="middle" x="1359" y="-110.8" font-family="Times New Roman,serif" font-size="14.00">x</text>
</g>
<!-- node79&#45;&gt;node81 -->
<g id="edge81" class="edge">
<title>node79&#45;&gt;node81</title>
<path fill="none" stroke="#ccff99" d="M1331.71,-169.31C1335.92,-161.03 1341.05,-150.91 1345.72,-141.69"/>
<polygon fill="#ccff99" stroke="#ccff99" points="1348.96,-143.03 1350.37,-132.53 1342.72,-139.87 1348.96,-143.03"/>
</g>
<!-- node84 -->
<g id="node85" class="node">
<title>node84</title>
<path fill="#ccff99" stroke="black" d="M1452,-169.5C1452,-169.5 1482,-169.5 1482,-169.5 1488,-169.5 1494,-175.5 1494,-181.5 1494,-181.5 1494,-193.5 1494,-193.5 1494,-199.5 1488,-205.5 1482,-205.5 1482,-205.5 1452,-205.5 1452,-205.5 1446,-205.5 1440,-199.5 1440,-193.5 1440,-193.5 1440,-181.5 1440,-181.5 1440,-175.5 1446,-169.5 1452,-169.5"/>
<text text-anchor="middle" x="1467" y="-183.8" font-family="Times New Roman,serif" font-size="14.00">x</text>
</g>
<!-- node83&#45;&gt;node84 -->
<g id="edge84" class="edge">
<title>node83&#45;&gt;node84</title>
<path fill="none" stroke="#ccff99" d="M1467,-242.31C1467,-234.29 1467,-224.55 1467,-215.57"/>
<polygon fill="#ccff99" stroke="#ccff99" points="1470.5,-215.53 1467,-205.53 1463.5,-215.53 1470.5,-215.53"/>
</g>
<!-- node85 -->
<g id="node86" class="node">
<title>node85</title>
<path fill="#00bfff" stroke="black" d="M1524,-169.5C1524,-169.5 1554,-169.5 1554,-169.5 1560,-169.5 1566,-175.5 1566,-181.5 1566,-181.5 1566,-193.5 1566,-193.5 1566,-199.5 1560,-205.5 1554,-205.5 1554,-205.5 1524,-205.5 1524,-205.5 1518,-205.5 1512,-199.5 1512,-193.5 1512,-193.5 1512,-181.5 1512,-181.5 1512,-175.5 1518,-169.5 1524,-169.5"/>
<text text-anchor="middle" x="1539" y="-183.8" font-family="Times New Roman,serif" font-size="14.00">2</text>
</g>
<!-- node83&#45;&gt;node85 -->
<g id="edge85" class="edge">
<title>node83&#45;&gt;node85</title>
<path fill="none" stroke="#00bfff" d="M1484.43,-242.31C1493.45,-233.42 1504.61,-222.41 1514.49,-212.67"/>
<polygon fill="#00bfff" stroke="#00bfff" points="1517.07,-215.04 1521.73,-205.53 1512.15,-210.06 1517.07,-215.04"/>
</g>
<!-- node87 -->
<g id="node88" class="node">
<title>node87</title>
<path fill="#ccff99" stroke="black" d="M1524,-242.5C1524,-242.5 1554,-242.5 1554,-242.5 1560,-242.5 1566,-248.5 1566,-254.5 1566,-254.5 1566,-266.5 1566,-266.5 1566,-272.5 1560,-278.5 1554,-278.5 1554,-278.5 1524,-278.5 1524,-278.5 1518,-278.5 1512,-272.5 1512,-266.5 1512,-266.5 1512,-254.5 1512,-254.5 1512,-248.5 1518,-242.5 1524,-242.5"/>
<text text-anchor="middle" x="1539" y="-256.8" font-family="Times New Roman,serif" font-size="14.00">x</text>
</g>
<!-- node86&#45;&gt;node87 -->
<g id="edge87" class="edge">
<title>node86&#45;&gt;node87</title>
<path fill="none" stroke="#ccff99" d="M1539,-315.31C1539,-307.29 1539,-297.55 1539,-288.57"/>
<polygon fill="#ccff99" stroke="#ccff99" points="1542.5,-288.53 1539,-278.53 1535.5,-288.53 1542.5,-288.53"/>
</g>
<!-- node88 -->
<g id="node89" class="node">
<title>node88</title>
<path fill="#ccff99" stroke="black" d="M1596,-242.5C1596,-242.5 1626,-242.5 1626,-242.5 1632,-242.5 1638,-248.5 1638,-254.5 1638,-254.5 1638,-266.5 1638,-266.5 1638,-272.5 1632,-278.5 1626,-278.5 1626,-278.5 1596,-278.5 1596,-278.5 1590,-278.5 1584,-272.5 1584,-266.5 1584,-266.5 1584,-254.5 1584,-254.5 1584,-248.5 1590,-242.5 1596,-242.5"/>
<text text-anchor="middle" x="1611" y="-256.8" font-family="Times New Roman,serif" font-size="14.00">x</text>
</g>
<!-- node86&#45;&gt;node88 -->
<g id="edge88" class="edge">
<title>node86&#45;&gt;node88</title>
<path fill="none" stroke="#ccff99" d="M1556.43,-315.31C1565.45,-306.42 1576.61,-295.41 1586.49,-285.67"/>
<polygon fill="#ccff99" stroke="#ccff99" points="1589.07,-288.04 1593.73,-278.53 1584.15,-283.06 1589.07,-288.04"/>
</g>
<!-- node90 -->
<g id="node91" class="node">
<title>node90</title>
<path fill="#8b00ff" stroke="black" d="M1776,-388.5C1776,-388.5 1806,-388.5 1806,-388.5 1812,-388.5 1818,-394.5 1818,-400.5 1818,-400.5 1818,-412.5 1818,-412.5 1818,-418.5 1812,-424.5 1806,-424.5 1806,-424.5 1776,-424.5 1776,-424.5 1770,-424.5 1764,-418.5 1764,-412.5 1764,-412.5 1764,-400.5 1764,-400.5 1764,-394.5 1770,-388.5 1776,-388.5"/>
<text text-anchor="middle" x="1791" y="-402.8" font-family="Times New Roman,serif" font-size="14.00">cdot</text>
</g>
<!-- node89&#45;&gt;node90 -->
<g id="edge90" class="edge">
<title>node89&#45;&gt;node90</title>
<path fill="none" stroke="#8b00ff" d="M1791,-461.31C1791,-453.29 1791,-443.55 1791,-434.57"/>
<polygon fill="#8b00ff" stroke="#8b00ff" points="1794.5,-434.53 1791,-424.53 1787.5,-434.53 1794.5,-434.53"/>
</g>
<!-- node97 -->
<g id="node98" class="node">
<title>node97</title>
<path fill="#8b00ff" stroke="black" d="M1902,-388.5C1902,-388.5 1932,-388.5 1932,-388.5 1938,-388.5 1944,-394.5 1944,-400.5 1944,-400.5 1944,-412.5 1944,-412.5 1944,-418.5 1938,-424.5 1932,-424.5 1932,-424.5 1902,-424.5 1902,-424.5 1896,-424.5 1890,-418.5 1890,-412.5 1890,-412.5 1890,-400.5 1890,-400.5 1890,-394.5 1896,-388.5 1902,-388.5"/>
<text text-anchor="middle" x="1917" y="-402.8" font-family="Times New Roman,serif" font-size="14.00">cdot</text>
</g>
<!-- node89&#45;&gt;node97 -->
<g id="edge97" class="edge">
<title>node89&#45;&gt;node97</title>
<path fill="none" stroke="#8b00ff" d="M1818.03,-463.27C1836.34,-452.95 1860.75,-439.2 1880.74,-427.93"/>
<polygon fill="#8b00ff" stroke="#8b00ff" points="1882.59,-430.91 1889.58,-422.95 1879.15,-424.81 1882.59,-430.91"/>
</g>
<!-- node91 -->
<g id="node92" class="node">
<title>node91</title>
<path fill="#8b00ff" stroke="black" d="M1740,-315.5C1740,-315.5 1770,-315.5 1770,-315.5 1776,-315.5 1782,-321.5 1782,-327.5 1782,-327.5 1782,-339.5 1782,-339.5 1782,-345.5 1776,-351.5 1770,-351.5 1770,-351.5 1740,-351.5 1740,-351.5 1734,-351.5 1728,-345.5 1728,-339.5 1728,-339.5 1728,-327.5 1728,-327.5 1728,-321.5 1734,-315.5 1740,-315.5"/>
<text text-anchor="middle" x="1755" y="-329.8" font-family="Times New Roman,serif" font-size="14.00">+</text>
</g>
<!-- node90&#45;&gt;node91 -->
<g id="edge91" class="edge">
<title>node90&#45;&gt;node91</title>
<path fill="none" stroke="#8b00ff" d="M1782.29,-388.31C1778.08,-380.03 1772.95,-369.91 1768.28,-360.69"/>
<polygon fill="#8b00ff" stroke="#8b00ff" points="1771.28,-358.87 1763.63,-351.53 1765.04,-362.03 1771.28,-358.87"/>
</g>
<!-- node94 -->
<g id="node95" class="node">
<title>node94</title>
<path fill="#8b00ff" stroke="black" d="M1812,-315.5C1812,-315.5 1842,-315.5 1842,-315.5 1848,-315.5 1854,-321.5 1854,-327.5 1854,-327.5 1854,-339.5 1854,-339.5 1854,-345.5 1848,-351.5 1842,-351.5 1842,-351.5 1812,-351.5 1812,-351.5 1806,-351.5 1800,-345.5 1800,-339.5 1800,-339.5 1800,-327.5 1800,-327.5 1800,-321.5 1806,-315.5 1812,-315.5"/>
<text text-anchor="middle" x="1827" y="-329.8" font-family="Times New Roman,serif" font-size="14.00">cdot</text>
</g>
<!-- node90&#45;&gt;node94 -->
<g id="edge94" class="edge">
<title>node90&#45;&gt;node94</title>
<path fill="none" stroke="#8b00ff" d="M1799.71,-388.31C1803.92,-380.03 1809.05,-369.91 1813.72,-360.69"/>
<polygon fill="#8b00ff" stroke="#8b00ff" points="1816.96,-362.03 1818.37,-351.53 1810.72,-358.87 1816.96,-362.03"/>
</g>
<!-- node92 -->
<g id="node93" class="node">
<title>node92</title>
<path fill="#ccff99" stroke="black" d="M1668,-242.5C1668,-242.5 1698,-242.5 1698,-242.5 1704,-242.5 1710,-248.5 1710,-254.5 1710,-254.5 1710,-266.5 1710,-266.5 1710,-272.5 1704,-278.5 1698,-278.5 1698,-278.5 1668,-278.5 1668,-278.5 1662,-278.5 1656,-272.5 1656,-266.5 1656,-266.5 1656,-254.5 1656,-254.5 1656,-248.5 1662,-242.5 1668,-242.5"/>
<text text-anchor="middle" x="1683" y="-256.8" font-family="Times New Roman,serif" font-size="14.00">x</text>
</g>
<!-- node91&#45;&gt;node92 -->
<g id="edge92" class="edge">
<title>node91&#45;&gt;node92</title>
<path fill="none" stroke="#ccff99" d="M1737.57,-315.31C1728.55,-306.42 1717.39,-295.41 1707.51,-285.67"/>
<polygon fill="#ccff99" stroke="#ccff99" points="1709.85,-283.06 1700.27,-278.53 1704.93,-288.04 1709.85,-283.06"/>
</g>
<!-- node93 -->
<g id="node94" class="node">
<title>node93</title>
<path fill="#ccff99" stroke="black" d="M1740,-242.5C1740,-242.5 1770,-242.5 1770,-242.5 1776,-242.5 1782,-248.5 1782,-254.5 1782,-254.5 1782,-266.5 1782,-266.5 1782,-272.5 1776,-278.5 1770,-278.5 1770,-278.5 1740,-278.5 1740,-278.5 1734,-278.5 1728,-272.5 1728,-266.5 1728,-266.5 1728,-254.5 1728,-254.5 1728,-248.5 1734,-242.5 1740,-242.5"/>
<text text-anchor="middle" x="1755" y="-256.8" font-family="Times New Roman,serif" font-size="14.00">x</text>
</g>
<!-- node91&#45;&gt;node93 -->
<g id="edge93" class="edge">
<title>node91&#45;&gt;node93</title>
<path fill="none" stroke="#ccff99" d="M1755,-315.31C1755,-307.29 1755,-297.55 1755,-288.57"/>
<polygon fill="#ccff99" stroke="#ccff99" points="1758.5,-288.53 1755,-278.53 1751.5,-288.53 1758.5,-288.53"/>
</g>
<!-- node95 -->
<g id="node96" class="node">
<title>node95</title>
<path fill="#ccff99" stroke="black" d="M1812,-242.5C1812,-242.5 1842,-242.5 1842,-242.5 1848,-242.5 1854,-248.5 1854,-254.5 1854,-254.5 1854,-266.5 1854,-266.5 1854,-272.5 1848,-278.5 1842,-278.5 1842,-278.5 1812,-278.5 1812,-278.5 1806,-278.5 1800,-272.5 1800,-266.5 1800,-266.5 1800,-254.5 1800,-254.5 1800,-248.5 1806,-242.5 1812,-242.5"/>
<text text-anchor="middle" x="1827" y="-256.8" font-family="Times New Roman,serif" font-size="14.00">x</text>
</g>
<!-- node94&#45;&gt;node95 -->
<g id="edge95" class="edge">
<title>node94&#45;&gt;node95</title>
<path fill="none" stroke="#ccff99" d="M1827,-315.31C1827,-307.29 1827,-297.55 1827,-288.57"/>
<polygon fill="#ccff99" stroke="#ccff99" points="1830.5,-288.53 1827,-278.53 1823.5,-288.53 1830.5,-288.53"/>
</g>
<!-- node96 -->
<g id="node97" class="node">
<title>node96</title>
<path fill="#ccff99" stroke="black" d="M1884,-242.5C1884,-242.5 1914,-242.5 1914,-242.5 1920,-242.5 1926,-248.5 1926,-254.5 1926,-254.5 1926,-266.5 1926,-266.5 1926,-272.5 1920,-278.5 1914,-278.5 1914,-278.5 1884,-278.5 1884,-278.5 1878,-278.5 1872,-272.5 1872,-266.5 1872,-266.5 1872,-254.5 1872,-254.5 1872,-248.5 1878,-242.5 1884,-242.5"/>
<text text-anchor="middle" x="1899" y="-256.8" font-family="Times New Roman,serif" font-size="14.00">x</text>
</g>
<!-- node94&#45;&gt;node96 -->
<g id="edge96" class="edge">
<title>node94&#45;&gt;node96</title>
<path fill="none" stroke="#ccff99" d="M1844.43,-315.31C1853.45,-306.42 1864.61,-295.41 1874.49,-285.67"/>
<polygon fill="#ccff99" stroke="#ccff99" points="1877.07,-288.04 1881.73,-278.53 1872.15,-283.06 1877.07,-288.04"/>
</g>
<!-- node98 -->
<g id="node99" class="node">
<title>node98</title>
<path fill="#8b00ff" stroke="black" d="M1956,-315.5C1956,-315.5 1986,-315.5 1986,-315.5 1992,-315.5 1998,-321.5 1998,-327.5 1998,-327.5 1998,-339.5 1998,-339.5 1998,-345.5 1992,-351.5 1986,-351.5 1986,-351.5 1956,-351.5 1956,-351.5 1950,-351.5 1944,-345.5 1944,-339.5 1944,-339.5 1944,-327.5 1944,-327.5 1944,-321.5 1950,-315.5 1956,-315.5"/>
<text text-anchor="middle" x="1971" y="-329.8" font-family="Times New Roman,serif" font-size="14.00">cdot</text>
</g>
<!-- node97&#45;&gt;node98 -->
<g id="edge98" class="edge">
<title>node97&#45;&gt;node98</title>
<path fill="none" stroke="#8b00ff" d="M1930.07,-388.31C1936.64,-379.68 1944.72,-369.06 1951.96,-359.53"/>
<polygon fill="#8b00ff" stroke="#8b00ff" points="1954.78,-361.61 1958.05,-351.53 1949.21,-357.37 1954.78,-361.61"/>
</g>
<!-- node101 -->
<g id="node102" class="node">
<title>node101</title>
<path fill="#8b00ff" stroke="black" d="M2100,-315.5C2100,-315.5 2130,-315.5 2130,-315.5 2136,-315.5 2142,-321.5 2142,-327.5 2142,-327.5 2142,-339.5 2142,-339.5 2142,-345.5 2136,-351.5 2130,-351.5 2130,-351.5 2100,-351.5 2100,-351.5 2094,-351.5 2088,-345.5 2088,-339.5 2088,-339.5 2088,-327.5 2088,-327.5 2088,-321.5 2094,-315.5 2100,-315.5"/>
<text text-anchor="middle" x="2115" y="-329.8" font-family="Times New Roman,serif" font-size="14.00">+</text>
</g>
<!-- node97&#45;&gt;node101 -->
<g id="edge101" class="edge">
<title>node97&#45;&gt;node101</title>
<path fill="none" stroke="#8b00ff" d="M1944.35,-391.74C1947.24,-390.42 1950.17,-389.15 1953,-388 1995.15,-370.88 2045.05,-355.04 2078.22,-345.11"/>
<polygon fill="#8b00ff" stroke="#8b00ff" points="2079.35,-348.43 2087.94,-342.23 2077.36,-341.72 2079.35,-348.43"/>
</g>
<!-- node99 -->
<g id="node100" class="node">
<title>node99</title>
<path fill="#ccff99" stroke="black" d="M1956,-242.5C1956,-242.5 1986,-242.5 1986,-242.5 1992,-242.5 1998,-248.5 1998,-254.5 1998,-254.5 1998,-266.5 1998,-266.5 1998,-272.5 1992,-278.5 1986,-278.5 1986,-278.5 1956,-278.5 1956,-278.5 1950,-278.5 1944,-272.5 1944,-266.5 1944,-266.5 1944,-254.5 1944,-254.5 1944,-248.5 1950,-242.5 1956,-242.5"/>
<text text-anchor="middle" x="1971" y="-256.8" font-family="Times New Roman,serif" font-size="14.00">x</text>
</g>
<!-- node98&#45;&gt;node99 -->
<g id="edge99" class="edge">
<title>node98&#45;&gt;node99</title>
<path fill="none" stroke="#ccff99" d="M1971,-315.31C1971,-307.29 1971,-297.55 1971,-288.57"/>
<polygon fill="#ccff99" stroke="#ccff99" points="1974.5,-288.53 1971,-278.53 1967.5,-288.53 1974.5,-288.53"/>
</g>
<!-- node100 -->
<g id="node101" class="node">
<title>node100</title>
<path fill="#ccff99" stroke="black" d="M2028,-242.5C2028,-242.5 2058,-242.5 2058,-242.5 2064,-242.5 2070,-248.5 2070,-254.5 2070,-254.5 2070,-266.5 2070,-266.5 2070,-272.5 2064,-278.5 2058,-278.5 2058,-278.5 2028,-278.5 2028,-278.5 2022,-278.5 2016,-272.5 2016,-266.5 2016,-266.5 2016,-254.5 2016,-254.5 2016,-248.5 2022,-242.5 2028,-242.5"/>
<text text-anchor="middle" x="2043" y="-256.8" font-family="Times New Roman,serif" font-size="14.00">x</text>
</g>
<!-- node98&#45;&gt;node100 -->
<g id="edge100" class="edge">
<title>node98&#45;&gt;node100</title>
<path fill="none" stroke="#ccff99" d="M1988.43,-315.31C1997.45,-306.42 2008.61,-295.41 2018.49,-285.67"/>
<polygon fill="#ccff99" stroke="#ccff99" points="2021.07,-288.04 2025.73,-278.53 2016.15,-283.06 2021.07,-288.04"/>
</g>
<!-- node102 -->
<g id="node103" class="node">
<title>node102</title>
<path fill="#ccff99" stroke="black" d="M2100,-242.5C2100,-242.5 2130,-242.5 2130,-242.5 2136,-242.5 2142,-248.5 2142,-254.5 2142,-254.5 2142,-266.5 2142,-266.5 2142,-272.5 2136,-278.5 2130,-278.5 2130,-278.5 2100,-278.5 2100,-278.5 2094,-278.5 2088,-272.5 2088,-266.5 2088,-266.5 2088,-254.5 2088,-254.5 2088,-248.5 2094,-242.5 2100,-242.5"/>
<text text-anchor="middle" x="2115" y="-256.8" font-family="Times New Roman,serif" font-size="14.00">x</text>
</g>
<!-- node101&#45;&gt;node102 -->
<g id="edge102" class="edge">
<title>node101&#45;&gt;node102</title>
<path fill="none" stroke="#ccff99" d="M2115,-315.31C2115,-307.29 2115,-297.55 2115,-288.57"/>
<polygon fill="#ccff99" stroke="#ccff99" points="2118.5,-288.53 2115,-278.53 2111.5,-288.53 2118.5,-288.53"/>
</g>
<!-- node103 -->
<g id="node104" class="node">
<title>node103</title>
<path fill="#ccff99" stroke="black" d="M2172,-242.5C2172,-242.5 2202,-242.5 2202,-242.5 2208,-242.5 2214,-248.5 2214,-254.5 2214,-254.5 2214,-266.5 2214,-266.5 2214,-272.5 2208,-278.5 2202,-278.5 2202,-278.5 2172,-278.5 2172,-278.5 2166,-278.5 2160,-272.5 2160,-266.5 2160,-266.5 2160,-254.5 2160,-254.5 2160,-248.5 2166,-242.5 2172,-242.5"/>
<text text-anchor="middle" x="2187" y="-256.8" font-family="Times New Roman,serif" font-size="14.00">x</text>
</g>
<!-- node101&#45;&gt;node103 -->
<g id="edge103" class="edge">
<title>node101&#45;&gt;node103</title>
<path fill="none" stroke="#ccff99" d="M2132.43,-315.31C2141.45,-306.42 2152.61,-295.41 2162.49,-285.67"/>
<polygon fill="#ccff99" stroke="#ccff99" points="2165.07,-288.04 2169.73,-278.53 2160.15,-283.06 2165.07,-288.04"/>
</g>
<!-- node105 -->
<g id="node106" class="node">
<title>node105</title>
<path fill="#8b00ff" stroke="black" d="M2082,-534.5C2082,-534.5 2112,-534.5 2112,-534.5 2118,-534.5 2124,-540.5 2124,-546.5 2124,-546.5 2124,-558.5 2124,-558.5 2124,-564.5 2118,-570.5 2112,-570.5 2112,-570.5 2082,-570.5 2082,-570.5 2076,-570.5 2070,-564.5 2070,-558.5 2070,-558.5 2070,-546.5 2070,-546.5 2070,-540.5 2076,-534.5 2082,-534.5"/>
<text text-anchor="middle" x="2097" y="-548.8" font-family="Times New Roman,serif" font-size="14.00">cdot</text>
</g>
<!-- node104&#45;&gt;node105 -->
<g id="edge105" class="edge">
<title>node104&#45;&gt;node105</title>
<path fill="none" stroke="#8b00ff" d="M2097,-607.31C2097,-599.29 2097,-589.55 2097,-580.57"/>
<polygon fill="#8b00ff" stroke="#8b00ff" points="2100.5,-580.53 2097,-570.53 2093.5,-580.53 2100.5,-580.53"/>
</g>
<!-- node112 -->
<g id="node113" class="node">
<title>node112</title>
<path fill="#8b00ff" stroke="black" d="M2298,-534.5C2298,-534.5 2328,-534.5 2328,-534.5 2334,-534.5 2340,-540.5 2340,-546.5 2340,-546.5 2340,-558.5 2340,-558.5 2340,-564.5 2334,-570.5 2328,-570.5 2328,-570.5 2298,-570.5 2298,-570.5 2292,-570.5 2286,-564.5 2286,-558.5 2286,-558.5 2286,-546.5 2286,-546.5 2286,-540.5 2292,-534.5 2298,-534.5"/>
<text text-anchor="middle" x="2313" y="-548.8" font-family="Times New Roman,serif" font-size="14.00">cdot</text>
</g>
<!-- node104&#45;&gt;node112 -->
<g id="edge112" class="edge">
<title>node104&#45;&gt;node112</title>
<path fill="none" stroke="#8b00ff" d="M2124.36,-615.51C2162.9,-602.84 2233.29,-579.7 2276.33,-565.55"/>
<polygon fill="#8b00ff" stroke="#8b00ff" points="2277.46,-568.87 2285.87,-562.42 2275.27,-562.22 2277.46,-568.87"/>
</g>
<!-- node106 -->
<g id="node107" class="node">
<title>node106</title>
<path fill="#8b00ff" stroke="black" d="M2046,-461.5C2046,-461.5 2076,-461.5 2076,-461.5 2082,-461.5 2088,-467.5 2088,-473.5 2088,-473.5 2088,-485.5 2088,-485.5 2088,-491.5 2082,-497.5 2076,-497.5 2076,-497.5 2046,-497.5 2046,-497.5 2040,-497.5 2034,-491.5 2034,-485.5 2034,-485.5 2034,-473.5 2034,-473.5 2034,-467.5 2040,-461.5 2046,-461.5"/>
<text text-anchor="middle" x="2061" y="-475.8" font-family="Times New Roman,serif" font-size="14.00">cdot</text>
</g>
<!-- node105&#45;&gt;node106 -->
<g id="edge106" class="edge">
<title>node105&#45;&gt;node106</title>
<path fill="none" stroke="#8b00ff" d="M2088.29,-534.31C2084.08,-526.03 2078.95,-515.91 2074.28,-506.69"/>
<polygon fill="#8b00ff" stroke="#8b00ff" points="2077.28,-504.87 2069.63,-497.53 2071.04,-508.03 2077.28,-504.87"/>
</g>
<!-- node109 -->
<g id="node110" class="node">
<title>node109</title>
<path fill="#8b00ff" stroke="black" d="M2118,-461.5C2118,-461.5 2148,-461.5 2148,-461.5 2154,-461.5 2160,-467.5 2160,-473.5 2160,-473.5 2160,-485.5 2160,-485.5 2160,-491.5 2154,-497.5 2148,-497.5 2148,-497.5 2118,-497.5 2118,-497.5 2112,-497.5 2106,-491.5 2106,-485.5 2106,-485.5 2106,-473.5 2106,-473.5 2106,-467.5 2112,-461.5 2118,-461.5"/>
<text text-anchor="middle" x="2133" y="-475.8" font-family="Times New Roman,serif" font-size="14.00">cdot</text>
</g>
<!-- node105&#45;&gt;node109 -->
<g id="edge109" class="edge">
<title>node105&#45;&gt;node109</title>
<path fill="none" stroke="#8b00ff" d="M2105.71,-534.31C2109.92,-526.03 2115.05,-515.91 2119.72,-506.69"/>
<polygon fill="#8b00ff" stroke="#8b00ff" points="2122.96,-508.03 2124.37,-497.53 2116.72,-504.87 2122.96,-508.03"/>
</g>
<!-- node107 -->
<g id="node108" class="node">
<title>node107</title>
<path fill="#ccff99" stroke="black" d="M1974,-388.5C1974,-388.5 2004,-388.5 2004,-388.5 2010,-388.5 2016,-394.5 2016,-400.5 2016,-400.5 2016,-412.5 2016,-412.5 2016,-418.5 2010,-424.5 2004,-424.5 2004,-424.5 1974,-424.5 1974,-424.5 1968,-424.5 1962,-418.5 1962,-412.5 1962,-412.5 1962,-400.5 1962,-400.5 1962,-394.5 1968,-388.5 1974,-388.5"/>
<text text-anchor="middle" x="1989" y="-402.8" font-family="Times New Roman,serif" font-size="14.00">x</text>
</g>
<!-- node106&#45;&gt;node107 -->
<g id="edge107" class="edge">
<title>node106&#45;&gt;node107</title>
<path fill="none" stroke="#ccff99" d="M2043.57,-461.31C2034.55,-452.42 2023.39,-441.41 2013.51,-431.67"/>
<polygon fill="#ccff99" stroke="#ccff99" points="2015.85,-429.06 2006.27,-424.53 2010.93,-434.04 2015.85,-429.06"/>
</g>
<!-- node108 -->
<g id="node109" class="node">
<title>node108</title>
<path fill="#ccff99" stroke="black" d="M2046,-388.5C2046,-388.5 2076,-388.5 2076,-388.5 2082,-388.5 2088,-394.5 2088,-400.5 2088,-400.5 2088,-412.5 2088,-412.5 2088,-418.5 2082,-424.5 2076,-424.5 2076,-424.5 2046,-424.5 2046,-424.5 2040,-424.5 2034,-418.5 2034,-412.5 2034,-412.5 2034,-400.5 2034,-400.5 2034,-394.5 2040,-388.5 2046,-388.5"/>
<text text-anchor="middle" x="2061" y="-402.8" font-family="Times New Roman,serif" font-size="14.00">x</text>
</g>
<!-- node106&#45;&gt;node108 -->
<g id="edge108" class="edge">
<title>node106&#45;&gt;node108</title>
<path fill="none" stroke="#ccff99" d="M2061,-461.31C2061,-453.29 2061,-443.55 2061,-434.57"/>
<polygon fill="#ccff99" stroke="#ccff99" points="2064.5,-434.53 2061,-424.53 2057.5,-434.53 2064.5,-434.53"/>
</g>
<!-- node110 -->
<g id="node111" class="node">
<title>node110</title>
<path fill="#ccff99" stroke="black" d="M2118,-388.5C2118,-388.5 2148,-388.5 2148,-388.5 2154,-388.5 2160,-394.5 2160,-400.5 2160,-400.5 2160,-412.5 2160,-412.5 2160,-418.5 2154,-424.5 2148,-424.5 2148,-424.5 2118,-424.5 2118,-424.5 2112,-424.5 2106,-418.5 2106,-412.5 2106,-412.5 2106,-400.5 2106,-400.5 2106,-394.5 2112,-388.5 2118,-388.5"/>
<text text-anchor="middle" x="2133" y="-402.8" font-family="Times New Roman,serif" font-size="14.00">x</text>
</g>
<!-- node109&#45;&gt;node110 -->
<g id="edge110" class="edge">
<title>node109&#45;&gt;node110</title>
<path fill="none" stroke="#ccff99" d="M2133,-461.31C2133,-453.29 2133,-443.55 2133,-434.57"/>
<polygon fill="#ccff99" stroke="#ccff99" points="2136.5,-434.53 2133,-424.53 2129.5,-434.53 2136.5,-434.53"/>
</g>
<!-- node111 -->
<g id="node112" class="node">
<title>node111</title>
<path fill="#ccff99" stroke="black" d="M2190,-388.5C2190,-388.5 2220,-388.5 2220,-388.5 2226,-388.5 2232,-394.5 2232,-400.5 2232,-400.5 2232,-412.5 2232,-412.5 2232,-418.5 2226,-424.5 2220,-424.5 2220,-424.5 2190,-424.5 2190,-424.5 2184,-424.5 2178,-418.5 2178,-412.5 2178,-412.5 2178,-400.5 2178,-400.5 2178,-394.5 2184,-388.5 2190,-388.5"/>
<text text-anchor="middle" x="2205" y="-402.8" font-family="Times New Roman,serif" font-size="14.00">x</text>
</g>
<!-- node109&#45;&gt;node111 -->
<g id="edge111" class="edge">
<title>node109&#45;&gt;node111</title>
<path fill="none" stroke="#ccff99" d="M2150.43,-461.31C2159.45,-452.42 2170.61,-441.41 2180.49,-431.67"/>
<polygon fill="#ccff99" stroke="#ccff99" points="2183.07,-434.04 2187.73,-424.53 2178.15,-429.06 2183.07,-434.04"/>
</g>
<!-- node113 -->
<g id="node114" class="node">
<title>node113</title>
<path fill="#8b00ff" stroke="black" d="M2298,-461.5C2298,-461.5 2328,-461.5 2328,-461.5 2334,-461.5 2340,-467.5 2340,-473.5 2340,-473.5 2340,-485.5 2340,-485.5 2340,-491.5 2334,-497.5 2328,-497.5 2328,-497.5 2298,-497.5 2298,-497.5 2292,-497.5 2286,-491.5 2286,-485.5 2286,-485.5 2286,-473.5 2286,-473.5 2286,-467.5 2292,-461.5 2298,-461.5"/>
<text text-anchor="middle" x="2313" y="-475.8" font-family="Times New Roman,serif" font-size="14.00">cdot</text>
</g>
<!-- node112&#45;&gt;node113 -->
<g id="edge113" class="edge">
<title>node112&#45;&gt;node113</title>
<path fill="none" stroke="#8b00ff" d="M2313,-534.31C2313,-526.29 2313,-516.55 2313,-507.57"/>
<polygon fill="#8b00ff" stroke="#8b00ff" points="2316.5,-507.53 2313,-497.53 2309.5,-507.53 2316.5,-507.53"/>
</g>
<!-- node116 -->
<g id="node117" class="node">
<title>node116</title>
<path fill="#8b00ff" stroke="black" d="M2406,-461.5C2406,-461.5 2436,-461.5 2436,-461.5 2442,-461.5 2448,-467.5 2448,-473.5 2448,-473.5 2448,-485.5 2448,-485.5 2448,-491.5 2442,-497.5 2436,-497.5 2436,-497.5 2406,-497.5 2406,-497.5 2400,-497.5 2394,-491.5 2394,-485.5 2394,-485.5 2394,-473.5 2394,-473.5 2394,-467.5 2400,-461.5 2406,-461.5"/>
<text text-anchor="middle" x="2421" y="-475.8" font-family="Times New Roman,serif" font-size="14.00">cdot</text>
</g>
<!-- node112&#45;&gt;node116 -->
<g id="edge116" class="edge">
<title>node112&#45;&gt;node116</title>
<path fill="none" stroke="#8b00ff" d="M2338.87,-534.49C2353.06,-525.17 2370.84,-513.47 2386.23,-503.36"/>
<polygon fill="#8b00ff" stroke="#8b00ff" points="2388.53,-506.03 2394.97,-497.61 2384.69,-500.18 2388.53,-506.03"/>
</g>
<!-- node114 -->
<g id="node115" class="node">
<title>node114</title>
<path fill="#ccff99" stroke="black" d="M2262,-388.5C2262,-388.5 2292,-388.5 2292,-388.5 2298,-388.5 2304,-394.5 2304,-400.5 2304,-400.5 2304,-412.5 2304,-412.5 2304,-418.5 2298,-424.5 2292,-424.5 2292,-424.5 2262,-424.5 2262,-424.5 2256,-424.5 2250,-418.5 2250,-412.5 2250,-412.5 2250,-400.5 2250,-400.5 2250,-394.5 2256,-388.5 2262,-388.5"/>
<text text-anchor="middle" x="2277" y="-402.8" font-family="Times New Roman,serif" font-size="14.00">x</text>
</g>
<!-- node113&#45;&gt;node114 -->
<g id="edge114" class="edge">
<title>node113&#45;&gt;node114</title>
<path fill="none" stroke="#ccff99" d="M2304.29,-461.31C2300.08,-453.03 2294.95,-442.91 2290.28,-433.69"/>
<polygon fill="#ccff99" stroke="#ccff99" points="2293.28,-431.87 2285.63,-424.53 2287.04,-435.03 2293.28,-431.87"/>
</g>
<!-- node115 -->
<g id="node116" class="node">
<title>node115</title>
<path fill="#ccff99" stroke="black" d="M2334,-388.5C2334,-388.5 2364,-388.5 2364,-388.5 2370,-388.5 2376,-394.5 2376,-400.5 2376,-400.5 2376,-412.5 2376,-412.5 2376,-418.5 2370,-424.5 2364,-424.5 2364,-424.5 2334,-424.5 2334,-424.5 2328,-424.5 2322,-418.5 2322,-412.5 2322,-412.5 2322,-400.5 2322,-400.5 2322,-394.5 2328,-388.5 2334,-388.5"/>
<text text-anchor="middle" x="2349" y="-402.8" font-family="Times New Roman,serif" font-size="14.00">x</text>
</g>
<!-- node113&#45;&gt;node115 -->
<g id="edge115" class="edge">
<title>node113&#45;&gt;node115</title>
<path fill="none" stroke="#ccff99" d="M2321.71,-461.31C2325.92,-453.03 2331.05,-442.91 2335.72,-433.69"/>
<polygon fill="#ccff99" stroke="#ccff99" points="2338.96,-435.03 2340.37,-424.53 2332.72,-431.87 2338.96,-435.03"/>
</g>
<!-- node117 -->
<g id="node118" class="node">
<title>node117</title>
<path fill="#ccff99" stroke="black" d="M2406,-388.5C2406,-388.5 2436,-388.5 2436,-388.5 2442,-388.5 2448,-394.5 2448,-400.5 2448,-400.5 2448,-412.5 2448,-412.5 2448,-418.5 2442,-424.5 2436,-424.5 2436,-424.5 2406,-424.5 2406,-424.5 2400,-424.5 2394,-418.5 2394,-412.5 2394,-412.5 2394,-400.5 2394,-400.5 2394,-394.5 2400,-388.5 2406,-388.5"/>
<text text-anchor="middle" x="2421" y="-402.8" font-family="Times New Roman,serif" font-size="14.00">x</text>
</g>
<!-- node116&#45;&gt;node117 -->
<g id="edge117" class="edge">
<title>node116&#45;&gt;node117</title>
<path fill="none" stroke="#ccff99" d="M2421,-461.31C2421,-453.29 2421,-443.55 2421,-434.57"/>
<polygon fill="#ccff99" stroke="#ccff99" points="2424.5,-434.53 2421,-424.53 2417.5,-434.53 2424.5,-434.53"/>
</g>
<!-- node118 -->
<g id="node119" class="node">
<title>node118</title>
<path fill="#ccff99" stroke="black" d="M2478,-388.5C2478,-388.5 2508,-388.5 2508,-388.5 2514,-388.5 2520,-394.5 2520,-400.5 2520,-400.5 2520,-412.5 2520,-412.5 2520,-418.5 2514,-424.5 2508,-424.5 2508,-424.5 2478,-424.5 2478,-424.5 2472,-424.5 2466,-418.5 2466,-412.5 2466,-412.5 2466,-400.5 2466,-400.5 2466,-394.5 2472,-388.5 2478,-388.5"/>
<text text-anchor="middle" x="2493" y="-402.8" font-family="Times New Roman,serif" font-size="14.00">x</text>
</g>
<!-- node116&#45;&gt;node118 -->
<g id="edge118" class="edge">
<title>node116&#45;&gt;node118</title>
<path fill="none" stroke="#ccff99" d="M2438.43,-461.31C2447.45,-452.42 2458.61,-441.41 2468.49,-431.67"/>
<polygon fill="#ccff99" stroke="#ccff99" points="2471.07,-434.04 2475.73,-424.53 2466.15,-429.06 2471.07,-434.04"/>
</g>
</g>
</svg>
