<?xml version="1.0" encoding="UTF-8" standalone="no"?>
<!DOCTYPE svg PUBLIC "-//W3C//DTD SVG 1.1//EN"
 "http://www.w3.org/Graphics/SVG/1.1/DTD/svg11.dtd">
<!-- Generated by graphviz version 6.0.2 (20221011.1828)
 -->
<!-- Title: List Pages: 1 -->
<svg width="1092pt" height="579pt"
 viewBox="0.00 0.00 1092.00 579.00" xmlns="http://www.w3.org/2000/svg" xmlns:xlink="http://www.w3.org/1999/xlink">
<g id="graph0" class="graph" transform="scale(1 1) rotate(0) translate(4 575)">
<title>List</title>
<polygon fill="#696969" stroke="none" points="-4,4 -4,-575 1088,-575 1088,4 -4,4"/>
<text text-anchor="middle" x="542" y="-7.8" font-family="Times New Roman,serif" font-size="14.00">tree_dump from function main, Tree/main.cpp:15</text>
<!-- node0 -->
<g id="node1" class="node">
<title>node0</title>
<path fill="#8b00ff" stroke="black" d="M385,-534.5C385,-534.5 415,-534.5 415,-534.5 421,-534.5 427,-540.5 427,-546.5 427,-546.5 427,-558.5 427,-558.5 427,-564.5 421,-570.5 415,-570.5 415,-570.5 385,-570.5 385,-570.5 379,-570.5 373,-564.5 373,-558.5 373,-558.5 373,-546.5 373,-546.5 373,-540.5 379,-534.5 385,-534.5"/>
<text text-anchor="middle" x="400" y="-548.8" font-family="Times New Roman,serif" font-size="14.00">*</text>
</g>
<!-- node1 -->
<g id="node2" class="node">
<title>node1</title>
<path fill="#8b00ff" stroke="black" d="M291,-461.5C291,-461.5 321,-461.5 321,-461.5 327,-461.5 333,-467.5 333,-473.5 333,-473.5 333,-485.5 333,-485.5 333,-491.5 327,-497.5 321,-497.5 321,-497.5 291,-497.5 291,-497.5 285,-497.5 279,-491.5 279,-485.5 279,-485.5 279,-473.5 279,-473.5 279,-467.5 285,-461.5 291,-461.5"/>
<text text-anchor="middle" x="306" y="-475.8" font-family="Times New Roman,serif" font-size="14.00">cos</text>
</g>
<!-- node0&#45;&gt;node1 -->
<g id="edge1" class="edge">
<title>node0&#45;&gt;node1</title>
<path fill="none" stroke="#8b00ff" d="M377.25,-534.31C365.12,-525.16 350.03,-513.76 336.87,-503.82"/>
<polygon fill="#8b00ff" stroke="#8b00ff" points="338.63,-500.76 328.55,-497.53 334.42,-506.35 338.63,-500.76"/>
</g>
<!-- node14 -->
<g id="node15" class="node">
<title>node14</title>
<path fill="#8b00ff" stroke="black" d="M552,-461.5C552,-461.5 582,-461.5 582,-461.5 588,-461.5 594,-467.5 594,-473.5 594,-473.5 594,-485.5 594,-485.5 594,-491.5 588,-497.5 582,-497.5 582,-497.5 552,-497.5 552,-497.5 546,-497.5 540,-491.5 540,-485.5 540,-485.5 540,-473.5 540,-473.5 540,-467.5 546,-461.5 552,-461.5"/>
<text text-anchor="middle" x="567" y="-475.8" font-family="Times New Roman,serif" font-size="14.00">+</text>
</g>
<!-- node0&#45;&gt;node14 -->
<g id="edge14" class="edge">
<title>node0&#45;&gt;node14</title>
<path fill="none" stroke="#8b00ff" d="M427.2,-539.93C455.35,-527.97 499.46,-509.21 530.59,-495.98"/>
<polygon fill="#8b00ff" stroke="#8b00ff" points="531.98,-499.19 539.81,-492.06 529.24,-492.75 531.98,-499.19"/>
</g>
<!-- node2 -->
<g id="node3" class="node">
<title>node2</title>
<path fill="#00bfff" stroke="black" d="M219,-388.5C219,-388.5 249,-388.5 249,-388.5 255,-388.5 261,-394.5 261,-400.5 261,-400.5 261,-412.5 261,-412.5 261,-418.5 255,-424.5 249,-424.5 249,-424.5 219,-424.5 219,-424.5 213,-424.5 207,-418.5 207,-412.5 207,-412.5 207,-400.5 207,-400.5 207,-394.5 213,-388.5 219,-388.5"/>
<text text-anchor="middle" x="234" y="-402.8" font-family="Times New Roman,serif" font-size="14.00">1</text>
</g>
<!-- node1&#45;&gt;node2 -->
<g id="edge2" class="edge">
<title>node1&#45;&gt;node2</title>
<path fill="none" stroke="#00bfff" d="M288.57,-461.31C279.55,-452.42 268.39,-441.41 258.51,-431.67"/>
<polygon fill="#00bfff" stroke="#00bfff" points="260.85,-429.06 251.27,-424.53 255.93,-434.04 260.85,-429.06"/>
</g>
<!-- node3 -->
<g id="node4" class="node">
<title>node3</title>
<path fill="#8b00ff" stroke="black" d="M291,-388.5C291,-388.5 321,-388.5 321,-388.5 327,-388.5 333,-394.5 333,-400.5 333,-400.5 333,-412.5 333,-412.5 333,-418.5 327,-424.5 321,-424.5 321,-424.5 291,-424.5 291,-424.5 285,-424.5 279,-418.5 279,-412.5 279,-412.5 279,-400.5 279,-400.5 279,-394.5 285,-388.5 291,-388.5"/>
<text text-anchor="middle" x="306" y="-402.8" font-family="Times New Roman,serif" font-size="14.00">*</text>
</g>
<!-- node1&#45;&gt;node3 -->
<g id="edge3" class="edge">
<title>node1&#45;&gt;node3</title>
<path fill="none" stroke="#8b00ff" d="M306,-461.31C306,-453.29 306,-443.55 306,-434.57"/>
<polygon fill="#8b00ff" stroke="#8b00ff" points="309.5,-434.53 306,-424.53 302.5,-434.53 309.5,-434.53"/>
</g>
<!-- node4 -->
<g id="node5" class="node">
<title>node4</title>
<path fill="#8b00ff" stroke="black" d="M165,-315.5C165,-315.5 195,-315.5 195,-315.5 201,-315.5 207,-321.5 207,-327.5 207,-327.5 207,-339.5 207,-339.5 207,-345.5 201,-351.5 195,-351.5 195,-351.5 165,-351.5 165,-351.5 159,-351.5 153,-345.5 153,-339.5 153,-339.5 153,-327.5 153,-327.5 153,-321.5 159,-315.5 165,-315.5"/>
<text text-anchor="middle" x="180" y="-329.8" font-family="Times New Roman,serif" font-size="14.00">*</text>
</g>
<!-- node3&#45;&gt;node4 -->
<g id="edge4" class="edge">
<title>node3&#45;&gt;node4</title>
<path fill="none" stroke="#8b00ff" d="M278.97,-390.27C260.66,-379.95 236.25,-366.2 216.26,-354.93"/>
<polygon fill="#8b00ff" stroke="#8b00ff" points="217.85,-351.81 207.42,-349.95 214.41,-357.91 217.85,-351.81"/>
</g>
<!-- node11 -->
<g id="node12" class="node">
<title>node11</title>
<path fill="#8b00ff" stroke="black" d="M291,-315.5C291,-315.5 321,-315.5 321,-315.5 327,-315.5 333,-321.5 333,-327.5 333,-327.5 333,-339.5 333,-339.5 333,-345.5 327,-351.5 321,-351.5 321,-351.5 291,-351.5 291,-351.5 285,-351.5 279,-345.5 279,-339.5 279,-339.5 279,-327.5 279,-327.5 279,-321.5 285,-315.5 291,-315.5"/>
<text text-anchor="middle" x="306" y="-329.8" font-family="Times New Roman,serif" font-size="14.00">^</text>
</g>
<!-- node3&#45;&gt;node11 -->
<g id="edge11" class="edge">
<title>node3&#45;&gt;node11</title>
<path fill="none" stroke="#8b00ff" d="M306,-388.31C306,-380.29 306,-370.55 306,-361.57"/>
<polygon fill="#8b00ff" stroke="#8b00ff" points="309.5,-361.53 306,-351.53 302.5,-361.53 309.5,-361.53"/>
</g>
<!-- node5 -->
<g id="node6" class="node">
<title>node5</title>
<path fill="#8b00ff" stroke="black" d="M84,-242.5C84,-242.5 114,-242.5 114,-242.5 120,-242.5 126,-248.5 126,-254.5 126,-254.5 126,-266.5 126,-266.5 126,-272.5 120,-278.5 114,-278.5 114,-278.5 84,-278.5 84,-278.5 78,-278.5 72,-272.5 72,-266.5 72,-266.5 72,-254.5 72,-254.5 72,-248.5 78,-242.5 84,-242.5"/>
<text text-anchor="middle" x="99" y="-256.8" font-family="Times New Roman,serif" font-size="14.00">^</text>
</g>
<!-- node4&#45;&gt;node5 -->
<g id="edge5" class="edge">
<title>node4&#45;&gt;node5</title>
<path fill="none" stroke="#8b00ff" d="M160.39,-315.31C150.14,-306.33 137.44,-295.19 126.25,-285.39"/>
<polygon fill="#8b00ff" stroke="#8b00ff" points="128.25,-282.49 118.43,-278.53 123.64,-287.75 128.25,-282.49"/>
</g>
<!-- node8 -->
<g id="node9" class="node">
<title>node8</title>
<path fill="#8b00ff" stroke="black" d="M165,-242.5C165,-242.5 195,-242.5 195,-242.5 201,-242.5 207,-248.5 207,-254.5 207,-254.5 207,-266.5 207,-266.5 207,-272.5 201,-278.5 195,-278.5 195,-278.5 165,-278.5 165,-278.5 159,-278.5 153,-272.5 153,-266.5 153,-266.5 153,-254.5 153,-254.5 153,-248.5 159,-242.5 165,-242.5"/>
<text text-anchor="middle" x="180" y="-256.8" font-family="Times New Roman,serif" font-size="14.00">cos</text>
</g>
<!-- node4&#45;&gt;node8 -->
<g id="edge8" class="edge">
<title>node4&#45;&gt;node8</title>
<path fill="none" stroke="#8b00ff" d="M180,-315.31C180,-307.29 180,-297.55 180,-288.57"/>
<polygon fill="#8b00ff" stroke="#8b00ff" points="183.5,-288.53 180,-278.53 176.5,-288.53 183.5,-288.53"/>
</g>
<!-- node6 -->
<g id="node7" class="node">
<title>node6</title>
<path fill="#ccff99" stroke="black" d="M12,-169.5C12,-169.5 42,-169.5 42,-169.5 48,-169.5 54,-175.5 54,-181.5 54,-181.5 54,-193.5 54,-193.5 54,-199.5 48,-205.5 42,-205.5 42,-205.5 12,-205.5 12,-205.5 6,-205.5 0,-199.5 0,-193.5 0,-193.5 0,-181.5 0,-181.5 0,-175.5 6,-169.5 12,-169.5"/>
<text text-anchor="middle" x="27" y="-183.8" font-family="Times New Roman,serif" font-size="14.00">x</text>
</g>
<!-- node5&#45;&gt;node6 -->
<g id="edge6" class="edge">
<title>node5&#45;&gt;node6</title>
<path fill="none" stroke="#ccff99" d="M81.57,-242.31C72.55,-233.42 61.39,-222.41 51.51,-212.67"/>
<polygon fill="#ccff99" stroke="#ccff99" points="53.85,-210.06 44.27,-205.53 48.93,-215.04 53.85,-210.06"/>
</g>
<!-- node7 -->
<g id="node8" class="node">
<title>node7</title>
<path fill="#00bfff" stroke="black" d="M84,-169.5C84,-169.5 114,-169.5 114,-169.5 120,-169.5 126,-175.5 126,-181.5 126,-181.5 126,-193.5 126,-193.5 126,-199.5 120,-205.5 114,-205.5 114,-205.5 84,-205.5 84,-205.5 78,-205.5 72,-199.5 72,-193.5 72,-193.5 72,-181.5 72,-181.5 72,-175.5 78,-169.5 84,-169.5"/>
<text text-anchor="middle" x="99" y="-183.8" font-family="Times New Roman,serif" font-size="14.00">2</text>
</g>
<!-- node5&#45;&gt;node7 -->
<g id="edge7" class="edge">
<title>node5&#45;&gt;node7</title>
<path fill="none" stroke="#00bfff" d="M99,-242.31C99,-234.29 99,-224.55 99,-215.57"/>
<polygon fill="#00bfff" stroke="#00bfff" points="102.5,-215.53 99,-205.53 95.5,-215.53 102.5,-215.53"/>
</g>
<!-- node9 -->
<g id="node10" class="node">
<title>node9</title>
<path fill="#00bfff" stroke="black" d="M156,-169.5C156,-169.5 186,-169.5 186,-169.5 192,-169.5 198,-175.5 198,-181.5 198,-181.5 198,-193.5 198,-193.5 198,-199.5 192,-205.5 186,-205.5 186,-205.5 156,-205.5 156,-205.5 150,-205.5 144,-199.5 144,-193.5 144,-193.5 144,-181.5 144,-181.5 144,-175.5 150,-169.5 156,-169.5"/>
<text text-anchor="middle" x="171" y="-183.8" font-family="Times New Roman,serif" font-size="14.00">1</text>
</g>
<!-- node8&#45;&gt;node9 -->
<g id="edge9" class="edge">
<title>node8&#45;&gt;node9</title>
<path fill="none" stroke="#00bfff" d="M177.82,-242.31C176.8,-234.29 175.57,-224.55 174.43,-215.57"/>
<polygon fill="#00bfff" stroke="#00bfff" points="177.89,-215.01 173.16,-205.53 170.94,-215.89 177.89,-215.01"/>
</g>
<!-- node10 -->
<g id="node11" class="node">
<title>node10</title>
<path fill="#ccff99" stroke="black" d="M228,-169.5C228,-169.5 258,-169.5 258,-169.5 264,-169.5 270,-175.5 270,-181.5 270,-181.5 270,-193.5 270,-193.5 270,-199.5 264,-205.5 258,-205.5 258,-205.5 228,-205.5 228,-205.5 222,-205.5 216,-199.5 216,-193.5 216,-193.5 216,-181.5 216,-181.5 216,-175.5 222,-169.5 228,-169.5"/>
<text text-anchor="middle" x="243" y="-183.8" font-family="Times New Roman,serif" font-size="14.00">x</text>
</g>
<!-- node8&#45;&gt;node10 -->
<g id="edge10" class="edge">
<title>node8&#45;&gt;node10</title>
<path fill="none" stroke="#ccff99" d="M195.25,-242.31C202.99,-233.59 212.53,-222.84 221.04,-213.25"/>
<polygon fill="#ccff99" stroke="#ccff99" points="223.87,-215.33 227.89,-205.53 218.63,-210.69 223.87,-215.33"/>
</g>
<!-- node12 -->
<g id="node13" class="node">
<title>node12</title>
<path fill="#00bfff" stroke="black" d="M255,-242.5C255,-242.5 285,-242.5 285,-242.5 291,-242.5 297,-248.5 297,-254.5 297,-254.5 297,-266.5 297,-266.5 297,-272.5 291,-278.5 285,-278.5 285,-278.5 255,-278.5 255,-278.5 249,-278.5 243,-272.5 243,-266.5 243,-266.5 243,-254.5 243,-254.5 243,-248.5 249,-242.5 255,-242.5"/>
<text text-anchor="middle" x="270" y="-256.8" font-family="Times New Roman,serif" font-size="14.00">5</text>
</g>
<!-- node11&#45;&gt;node12 -->
<g id="edge12" class="edge">
<title>node11&#45;&gt;node12</title>
<path fill="none" stroke="#00bfff" d="M297.29,-315.31C293.08,-307.03 287.95,-296.91 283.28,-287.69"/>
<polygon fill="#00bfff" stroke="#00bfff" points="286.28,-285.87 278.63,-278.53 280.04,-289.03 286.28,-285.87"/>
</g>
<!-- node13 -->
<g id="node14" class="node">
<title>node13</title>
<path fill="#ccff99" stroke="black" d="M327,-242.5C327,-242.5 357,-242.5 357,-242.5 363,-242.5 369,-248.5 369,-254.5 369,-254.5 369,-266.5 369,-266.5 369,-272.5 363,-278.5 357,-278.5 357,-278.5 327,-278.5 327,-278.5 321,-278.5 315,-272.5 315,-266.5 315,-266.5 315,-254.5 315,-254.5 315,-248.5 321,-242.5 327,-242.5"/>
<text text-anchor="middle" x="342" y="-256.8" font-family="Times New Roman,serif" font-size="14.00">x</text>
</g>
<!-- node11&#45;&gt;node13 -->
<g id="edge13" class="edge">
<title>node11&#45;&gt;node13</title>
<path fill="none" stroke="#ccff99" d="M314.71,-315.31C318.92,-307.03 324.05,-296.91 328.72,-287.69"/>
<polygon fill="#ccff99" stroke="#ccff99" points="331.96,-289.03 333.37,-278.53 325.72,-285.87 331.96,-289.03"/>
</g>
<!-- node15 -->
<g id="node16" class="node">
<title>node15</title>
<path fill="#8b00ff" stroke="black" d="M552,-388.5C552,-388.5 582,-388.5 582,-388.5 588,-388.5 594,-394.5 594,-400.5 594,-400.5 594,-412.5 594,-412.5 594,-418.5 588,-424.5 582,-424.5 582,-424.5 552,-424.5 552,-424.5 546,-424.5 540,-418.5 540,-412.5 540,-412.5 540,-400.5 540,-400.5 540,-394.5 546,-388.5 552,-388.5"/>
<text text-anchor="middle" x="567" y="-402.8" font-family="Times New Roman,serif" font-size="14.00">*</text>
</g>
<!-- node14&#45;&gt;node15 -->
<g id="edge15" class="edge">
<title>node14&#45;&gt;node15</title>
<path fill="none" stroke="#8b00ff" d="M567,-461.31C567,-453.29 567,-443.55 567,-434.57"/>
<polygon fill="#8b00ff" stroke="#8b00ff" points="570.5,-434.53 567,-424.53 563.5,-434.53 570.5,-434.53"/>
</g>
<!-- node36 -->
<g id="node37" class="node">
<title>node36</title>
<path fill="#8b00ff" stroke="black" d="M786,-388.5C786,-388.5 816,-388.5 816,-388.5 822,-388.5 828,-394.5 828,-400.5 828,-400.5 828,-412.5 828,-412.5 828,-418.5 822,-424.5 816,-424.5 816,-424.5 786,-424.5 786,-424.5 780,-424.5 774,-418.5 774,-412.5 774,-412.5 774,-400.5 774,-400.5 774,-394.5 780,-388.5 786,-388.5"/>
<text text-anchor="middle" x="801" y="-402.8" font-family="Times New Roman,serif" font-size="14.00">*</text>
</g>
<!-- node14&#45;&gt;node36 -->
<g id="edge36" class="edge">
<title>node14&#45;&gt;node36</title>
<path fill="none" stroke="#8b00ff" d="M594.3,-470.22C636.31,-457.47 716.87,-433.03 764.05,-418.71"/>
<polygon fill="#8b00ff" stroke="#8b00ff" points="765.32,-421.98 773.87,-415.73 763.29,-415.29 765.32,-421.98"/>
</g>
<!-- node16 -->
<g id="node17" class="node">
<title>node16</title>
<path fill="#8b00ff" stroke="black" d="M516,-315.5C516,-315.5 546,-315.5 546,-315.5 552,-315.5 558,-321.5 558,-327.5 558,-327.5 558,-339.5 558,-339.5 558,-345.5 552,-351.5 546,-351.5 546,-351.5 516,-351.5 516,-351.5 510,-351.5 504,-345.5 504,-339.5 504,-339.5 504,-327.5 504,-327.5 504,-321.5 510,-315.5 516,-315.5"/>
<text text-anchor="middle" x="531" y="-329.8" font-family="Times New Roman,serif" font-size="14.00">+</text>
</g>
<!-- node15&#45;&gt;node16 -->
<g id="edge16" class="edge">
<title>node15&#45;&gt;node16</title>
<path fill="none" stroke="#8b00ff" d="M558.29,-388.31C554.08,-380.03 548.95,-369.91 544.28,-360.69"/>
<polygon fill="#8b00ff" stroke="#8b00ff" points="547.28,-358.87 539.63,-351.53 541.04,-362.03 547.28,-358.87"/>
</g>
<!-- node33 -->
<g id="node34" class="node">
<title>node33</title>
<path fill="#8b00ff" stroke="black" d="M588,-315.5C588,-315.5 618,-315.5 618,-315.5 624,-315.5 630,-321.5 630,-327.5 630,-327.5 630,-339.5 630,-339.5 630,-345.5 624,-351.5 618,-351.5 618,-351.5 588,-351.5 588,-351.5 582,-351.5 576,-345.5 576,-339.5 576,-339.5 576,-327.5 576,-327.5 576,-321.5 582,-315.5 588,-315.5"/>
<text text-anchor="middle" x="603" y="-329.8" font-family="Times New Roman,serif" font-size="14.00">^</text>
</g>
<!-- node15&#45;&gt;node33 -->
<g id="edge33" class="edge">
<title>node15&#45;&gt;node33</title>
<path fill="none" stroke="#8b00ff" d="M575.71,-388.31C579.92,-380.03 585.05,-369.91 589.72,-360.69"/>
<polygon fill="#8b00ff" stroke="#8b00ff" points="592.96,-362.03 594.37,-351.53 586.72,-358.87 592.96,-362.03"/>
</g>
<!-- node17 -->
<g id="node18" class="node">
<title>node17</title>
<path fill="#8b00ff" stroke="black" d="M408,-242.5C408,-242.5 438,-242.5 438,-242.5 444,-242.5 450,-248.5 450,-254.5 450,-254.5 450,-266.5 450,-266.5 450,-272.5 444,-278.5 438,-278.5 438,-278.5 408,-278.5 408,-278.5 402,-278.5 396,-272.5 396,-266.5 396,-266.5 396,-254.5 396,-254.5 396,-248.5 402,-242.5 408,-242.5"/>
<text text-anchor="middle" x="423" y="-256.8" font-family="Times New Roman,serif" font-size="14.00">*</text>
</g>
<!-- node16&#45;&gt;node17 -->
<g id="edge17" class="edge">
<title>node16&#45;&gt;node17</title>
<path fill="none" stroke="#8b00ff" d="M505.13,-315.49C490.94,-306.17 473.16,-294.47 457.77,-284.36"/>
<polygon fill="#8b00ff" stroke="#8b00ff" points="459.31,-281.18 449.03,-278.61 455.47,-287.03 459.31,-281.18"/>
</g>
<!-- node24 -->
<g id="node25" class="node">
<title>node24</title>
<path fill="#8b00ff" stroke="black" d="M516,-242.5C516,-242.5 546,-242.5 546,-242.5 552,-242.5 558,-248.5 558,-254.5 558,-254.5 558,-266.5 558,-266.5 558,-272.5 552,-278.5 546,-278.5 546,-278.5 516,-278.5 516,-278.5 510,-278.5 504,-272.5 504,-266.5 504,-266.5 504,-254.5 504,-254.5 504,-248.5 510,-242.5 516,-242.5"/>
<text text-anchor="middle" x="531" y="-256.8" font-family="Times New Roman,serif" font-size="14.00">*</text>
</g>
<!-- node16&#45;&gt;node24 -->
<g id="edge24" class="edge">
<title>node16&#45;&gt;node24</title>
<path fill="none" stroke="#8b00ff" d="M531,-315.31C531,-307.29 531,-297.55 531,-288.57"/>
<polygon fill="#8b00ff" stroke="#8b00ff" points="534.5,-288.53 531,-278.53 527.5,-288.53 534.5,-288.53"/>
</g>
<!-- node18 -->
<g id="node19" class="node">
<title>node18</title>
<path fill="#8b00ff" stroke="black" d="M300,-169.5C300,-169.5 330,-169.5 330,-169.5 336,-169.5 342,-175.5 342,-181.5 342,-181.5 342,-193.5 342,-193.5 342,-199.5 336,-205.5 330,-205.5 330,-205.5 300,-205.5 300,-205.5 294,-205.5 288,-199.5 288,-193.5 288,-193.5 288,-181.5 288,-181.5 288,-175.5 294,-169.5 300,-169.5"/>
<text text-anchor="middle" x="315" y="-183.8" font-family="Times New Roman,serif" font-size="14.00">*</text>
</g>
<!-- node17&#45;&gt;node18 -->
<g id="edge18" class="edge">
<title>node17&#45;&gt;node18</title>
<path fill="none" stroke="#8b00ff" d="M397.13,-242.49C382.94,-233.17 365.16,-221.47 349.77,-211.36"/>
<polygon fill="#8b00ff" stroke="#8b00ff" points="351.31,-208.18 341.03,-205.61 347.47,-214.03 351.31,-208.18"/>
</g>
<!-- node21 -->
<g id="node22" class="node">
<title>node21</title>
<path fill="#8b00ff" stroke="black" d="M408,-169.5C408,-169.5 438,-169.5 438,-169.5 444,-169.5 450,-175.5 450,-181.5 450,-181.5 450,-193.5 450,-193.5 450,-199.5 444,-205.5 438,-205.5 438,-205.5 408,-205.5 408,-205.5 402,-205.5 396,-199.5 396,-193.5 396,-193.5 396,-181.5 396,-181.5 396,-175.5 402,-169.5 408,-169.5"/>
<text text-anchor="middle" x="423" y="-183.8" font-family="Times New Roman,serif" font-size="14.00">cos</text>
</g>
<!-- node17&#45;&gt;node21 -->
<g id="edge21" class="edge">
<title>node17&#45;&gt;node21</title>
<path fill="none" stroke="#8b00ff" d="M423,-242.31C423,-234.29 423,-224.55 423,-215.57"/>
<polygon fill="#8b00ff" stroke="#8b00ff" points="426.5,-215.53 423,-205.53 419.5,-215.53 426.5,-215.53"/>
</g>
<!-- node19 -->
<g id="node20" class="node">
<title>node19</title>
<path fill="#00bfff" stroke="black" d="M210,-96.5C210,-96.5 240,-96.5 240,-96.5 246,-96.5 252,-102.5 252,-108.5 252,-108.5 252,-120.5 252,-120.5 252,-126.5 246,-132.5 240,-132.5 240,-132.5 210,-132.5 210,-132.5 204,-132.5 198,-126.5 198,-120.5 198,-120.5 198,-108.5 198,-108.5 198,-102.5 204,-96.5 210,-96.5"/>
<text text-anchor="middle" x="225" y="-110.8" font-family="Times New Roman,serif" font-size="14.00">2</text>
</g>
<!-- node18&#45;&gt;node19 -->
<g id="edge19" class="edge">
<title>node18&#45;&gt;node19</title>
<path fill="none" stroke="#00bfff" d="M293.21,-169.31C281.61,-160.16 267.16,-148.76 254.56,-138.82"/>
<polygon fill="#00bfff" stroke="#00bfff" points="256.6,-135.97 246.59,-132.53 252.27,-141.47 256.6,-135.97"/>
</g>
<!-- node20 -->
<g id="node21" class="node">
<title>node20</title>
<path fill="#ccff99" stroke="black" d="M282,-96.5C282,-96.5 312,-96.5 312,-96.5 318,-96.5 324,-102.5 324,-108.5 324,-108.5 324,-120.5 324,-120.5 324,-126.5 318,-132.5 312,-132.5 312,-132.5 282,-132.5 282,-132.5 276,-132.5 270,-126.5 270,-120.5 270,-120.5 270,-108.5 270,-108.5 270,-102.5 276,-96.5 282,-96.5"/>
<text text-anchor="middle" x="297" y="-110.8" font-family="Times New Roman,serif" font-size="14.00">x</text>
</g>
<!-- node18&#45;&gt;node20 -->
<g id="edge20" class="edge">
<title>node18&#45;&gt;node20</title>
<path fill="none" stroke="#ccff99" d="M310.64,-169.31C308.59,-161.2 306.09,-151.34 303.79,-142.28"/>
<polygon fill="#ccff99" stroke="#ccff99" points="307.17,-141.36 301.32,-132.53 300.38,-143.08 307.17,-141.36"/>
</g>
<!-- node22 -->
<g id="node23" class="node">
<title>node22</title>
<path fill="#00bfff" stroke="black" d="M354,-96.5C354,-96.5 384,-96.5 384,-96.5 390,-96.5 396,-102.5 396,-108.5 396,-108.5 396,-120.5 396,-120.5 396,-126.5 390,-132.5 384,-132.5 384,-132.5 354,-132.5 354,-132.5 348,-132.5 342,-126.5 342,-120.5 342,-120.5 342,-108.5 342,-108.5 342,-102.5 348,-96.5 354,-96.5"/>
<text text-anchor="middle" x="369" y="-110.8" font-family="Times New Roman,serif" font-size="14.00">1</text>
</g>
<!-- node21&#45;&gt;node22 -->
<g id="edge22" class="edge">
<title>node21&#45;&gt;node22</title>
<path fill="none" stroke="#00bfff" d="M409.93,-169.31C403.36,-160.68 395.28,-150.06 388.04,-140.53"/>
<polygon fill="#00bfff" stroke="#00bfff" points="390.79,-138.37 381.95,-132.53 385.22,-142.61 390.79,-138.37"/>
</g>
<!-- node23 -->
<g id="node24" class="node">
<title>node23</title>
<path fill="#ccff99" stroke="black" d="M426,-96.5C426,-96.5 456,-96.5 456,-96.5 462,-96.5 468,-102.5 468,-108.5 468,-108.5 468,-120.5 468,-120.5 468,-126.5 462,-132.5 456,-132.5 456,-132.5 426,-132.5 426,-132.5 420,-132.5 414,-126.5 414,-120.5 414,-120.5 414,-108.5 414,-108.5 414,-102.5 420,-96.5 426,-96.5"/>
<text text-anchor="middle" x="441" y="-110.8" font-family="Times New Roman,serif" font-size="14.00">x</text>
</g>
<!-- node21&#45;&gt;node23 -->
<g id="edge23" class="edge">
<title>node21&#45;&gt;node23</title>
<path fill="none" stroke="#ccff99" d="M427.36,-169.31C429.41,-161.2 431.91,-151.34 434.21,-142.28"/>
<polygon fill="#ccff99" stroke="#ccff99" points="437.62,-143.08 436.68,-132.53 430.83,-141.36 437.62,-143.08"/>
</g>
<!-- node25 -->
<g id="node26" class="node">
<title>node25</title>
<path fill="#8b00ff" stroke="black" d="M516,-169.5C516,-169.5 546,-169.5 546,-169.5 552,-169.5 558,-175.5 558,-181.5 558,-181.5 558,-193.5 558,-193.5 558,-199.5 552,-205.5 546,-205.5 546,-205.5 516,-205.5 516,-205.5 510,-205.5 504,-199.5 504,-193.5 504,-193.5 504,-181.5 504,-181.5 504,-175.5 510,-169.5 516,-169.5"/>
<text text-anchor="middle" x="531" y="-183.8" font-family="Times New Roman,serif" font-size="14.00">^</text>
</g>
<!-- node24&#45;&gt;node25 -->
<g id="edge25" class="edge">
<title>node24&#45;&gt;node25</title>
<path fill="none" stroke="#8b00ff" d="M531,-242.31C531,-234.29 531,-224.55 531,-215.57"/>
<polygon fill="#8b00ff" stroke="#8b00ff" points="534.5,-215.53 531,-205.53 527.5,-215.53 534.5,-215.53"/>
</g>
<!-- node28 -->
<g id="node29" class="node">
<title>node28</title>
<path fill="#8b00ff" stroke="black" d="M606,-169.5C606,-169.5 636,-169.5 636,-169.5 642,-169.5 648,-175.5 648,-181.5 648,-181.5 648,-193.5 648,-193.5 648,-199.5 642,-205.5 636,-205.5 636,-205.5 606,-205.5 606,-205.5 600,-205.5 594,-199.5 594,-193.5 594,-193.5 594,-181.5 594,-181.5 594,-175.5 600,-169.5 606,-169.5"/>
<text text-anchor="middle" x="621" y="-183.8" font-family="Times New Roman,serif" font-size="14.00">*</text>
</g>
<!-- node24&#45;&gt;node28 -->
<g id="edge28" class="edge">
<title>node24&#45;&gt;node28</title>
<path fill="none" stroke="#8b00ff" d="M552.79,-242.31C564.39,-233.16 578.84,-221.76 591.44,-211.82"/>
<polygon fill="#8b00ff" stroke="#8b00ff" points="593.73,-214.47 599.41,-205.53 589.4,-208.97 593.73,-214.47"/>
</g>
<!-- node26 -->
<g id="node27" class="node">
<title>node26</title>
<path fill="#ccff99" stroke="black" d="M498,-96.5C498,-96.5 528,-96.5 528,-96.5 534,-96.5 540,-102.5 540,-108.5 540,-108.5 540,-120.5 540,-120.5 540,-126.5 534,-132.5 528,-132.5 528,-132.5 498,-132.5 498,-132.5 492,-132.5 486,-126.5 486,-120.5 486,-120.5 486,-108.5 486,-108.5 486,-102.5 492,-96.5 498,-96.5"/>
<text text-anchor="middle" x="513" y="-110.8" font-family="Times New Roman,serif" font-size="14.00">x</text>
</g>
<!-- node25&#45;&gt;node26 -->
<g id="edge26" class="edge">
<title>node25&#45;&gt;node26</title>
<path fill="none" stroke="#ccff99" d="M526.64,-169.31C524.59,-161.2 522.09,-151.34 519.79,-142.28"/>
<polygon fill="#ccff99" stroke="#ccff99" points="523.17,-141.36 517.32,-132.53 516.38,-143.08 523.17,-141.36"/>
</g>
<!-- node27 -->
<g id="node28" class="node">
<title>node27</title>
<path fill="#00bfff" stroke="black" d="M570,-96.5C570,-96.5 600,-96.5 600,-96.5 606,-96.5 612,-102.5 612,-108.5 612,-108.5 612,-120.5 612,-120.5 612,-126.5 606,-132.5 600,-132.5 600,-132.5 570,-132.5 570,-132.5 564,-132.5 558,-126.5 558,-120.5 558,-120.5 558,-108.5 558,-108.5 558,-102.5 564,-96.5 570,-96.5"/>
<text text-anchor="middle" x="585" y="-110.8" font-family="Times New Roman,serif" font-size="14.00">2</text>
</g>
<!-- node25&#45;&gt;node27 -->
<g id="edge27" class="edge">
<title>node25&#45;&gt;node27</title>
<path fill="none" stroke="#00bfff" d="M544.07,-169.31C550.64,-160.68 558.72,-150.06 565.96,-140.53"/>
<polygon fill="#00bfff" stroke="#00bfff" points="568.78,-142.61 572.05,-132.53 563.21,-138.37 568.78,-142.61"/>
</g>
<!-- node29 -->
<g id="node30" class="node">
<title>node29</title>
<path fill="#8b00ff" stroke="black" d="M642,-96.5C642,-96.5 672,-96.5 672,-96.5 678,-96.5 684,-102.5 684,-108.5 684,-108.5 684,-120.5 684,-120.5 684,-126.5 678,-132.5 672,-132.5 672,-132.5 642,-132.5 642,-132.5 636,-132.5 630,-126.5 630,-120.5 630,-120.5 630,-108.5 630,-108.5 630,-102.5 636,-96.5 642,-96.5"/>
<text text-anchor="middle" x="657" y="-110.8" font-family="Times New Roman,serif" font-size="14.00">sin</text>
</g>
<!-- node28&#45;&gt;node29 -->
<g id="edge29" class="edge">
<title>node28&#45;&gt;node29</title>
<path fill="none" stroke="#8b00ff" d="M629.71,-169.31C633.92,-161.03 639.05,-150.91 643.72,-141.69"/>
<polygon fill="#8b00ff" stroke="#8b00ff" points="646.96,-143.03 648.37,-132.53 640.72,-139.87 646.96,-143.03"/>
</g>
<!-- node32 -->
<g id="node33" class="node">
<title>node32</title>
<path fill="#00bfff" stroke="black" d="M714,-96.5C714,-96.5 744,-96.5 744,-96.5 750,-96.5 756,-102.5 756,-108.5 756,-108.5 756,-120.5 756,-120.5 756,-126.5 750,-132.5 744,-132.5 744,-132.5 714,-132.5 714,-132.5 708,-132.5 702,-126.5 702,-120.5 702,-120.5 702,-108.5 702,-108.5 702,-102.5 708,-96.5 714,-96.5"/>
<text text-anchor="middle" x="729" y="-110.8" font-family="Times New Roman,serif" font-size="14.00">&#45;1</text>
</g>
<!-- node28&#45;&gt;node32 -->
<g id="edge32" class="edge">
<title>node28&#45;&gt;node32</title>
<path fill="none" stroke="#00bfff" d="M646.87,-169.49C661.06,-160.17 678.84,-148.47 694.23,-138.36"/>
<polygon fill="#00bfff" stroke="#00bfff" points="696.53,-141.03 702.97,-132.61 692.69,-135.18 696.53,-141.03"/>
</g>
<!-- node30 -->
<g id="node31" class="node">
<title>node30</title>
<path fill="#00bfff" stroke="black" d="M606,-23.5C606,-23.5 636,-23.5 636,-23.5 642,-23.5 648,-29.5 648,-35.5 648,-35.5 648,-47.5 648,-47.5 648,-53.5 642,-59.5 636,-59.5 636,-59.5 606,-59.5 606,-59.5 600,-59.5 594,-53.5 594,-47.5 594,-47.5 594,-35.5 594,-35.5 594,-29.5 600,-23.5 606,-23.5"/>
<text text-anchor="middle" x="621" y="-37.8" font-family="Times New Roman,serif" font-size="14.00">1</text>
</g>
<!-- node29&#45;&gt;node30 -->
<g id="edge30" class="edge">
<title>node29&#45;&gt;node30</title>
<path fill="none" stroke="#00bfff" d="M648.29,-96.31C644.08,-88.03 638.95,-77.91 634.28,-68.69"/>
<polygon fill="#00bfff" stroke="#00bfff" points="637.28,-66.87 629.63,-59.53 631.04,-70.03 637.28,-66.87"/>
</g>
<!-- node31 -->
<g id="node32" class="node">
<title>node31</title>
<path fill="#ccff99" stroke="black" d="M678,-23.5C678,-23.5 708,-23.5 708,-23.5 714,-23.5 720,-29.5 720,-35.5 720,-35.5 720,-47.5 720,-47.5 720,-53.5 714,-59.5 708,-59.5 708,-59.5 678,-59.5 678,-59.5 672,-59.5 666,-53.5 666,-47.5 666,-47.5 666,-35.5 666,-35.5 666,-29.5 672,-23.5 678,-23.5"/>
<text text-anchor="middle" x="693" y="-37.8" font-family="Times New Roman,serif" font-size="14.00">x</text>
</g>
<!-- node29&#45;&gt;node31 -->
<g id="edge31" class="edge">
<title>node29&#45;&gt;node31</title>
<path fill="none" stroke="#ccff99" d="M665.71,-96.31C669.92,-88.03 675.05,-77.91 679.72,-68.69"/>
<polygon fill="#ccff99" stroke="#ccff99" points="682.96,-70.03 684.37,-59.53 676.72,-66.87 682.96,-70.03"/>
</g>
<!-- node34 -->
<g id="node35" class="node">
<title>node34</title>
<path fill="#00bfff" stroke="black" d="M588,-242.5C588,-242.5 618,-242.5 618,-242.5 624,-242.5 630,-248.5 630,-254.5 630,-254.5 630,-266.5 630,-266.5 630,-272.5 624,-278.5 618,-278.5 618,-278.5 588,-278.5 588,-278.5 582,-278.5 576,-272.5 576,-266.5 576,-266.5 576,-254.5 576,-254.5 576,-248.5 582,-242.5 588,-242.5"/>
<text text-anchor="middle" x="603" y="-256.8" font-family="Times New Roman,serif" font-size="14.00">5</text>
</g>
<!-- node33&#45;&gt;node34 -->
<g id="edge34" class="edge">
<title>node33&#45;&gt;node34</title>
<path fill="none" stroke="#00bfff" d="M603,-315.31C603,-307.29 603,-297.55 603,-288.57"/>
<polygon fill="#00bfff" stroke="#00bfff" points="606.5,-288.53 603,-278.53 599.5,-288.53 606.5,-288.53"/>
</g>
<!-- node35 -->
<g id="node36" class="node">
<title>node35</title>
<path fill="#ccff99" stroke="black" d="M660,-242.5C660,-242.5 690,-242.5 690,-242.5 696,-242.5 702,-248.5 702,-254.5 702,-254.5 702,-266.5 702,-266.5 702,-272.5 696,-278.5 690,-278.5 690,-278.5 660,-278.5 660,-278.5 654,-278.5 648,-272.5 648,-266.5 648,-266.5 648,-254.5 648,-254.5 648,-248.5 654,-242.5 660,-242.5"/>
<text text-anchor="middle" x="675" y="-256.8" font-family="Times New Roman,serif" font-size="14.00">x</text>
</g>
<!-- node33&#45;&gt;node35 -->
<g id="edge35" class="edge">
<title>node33&#45;&gt;node35</title>
<path fill="none" stroke="#ccff99" d="M620.43,-315.31C629.45,-306.42 640.61,-295.41 650.49,-285.67"/>
<polygon fill="#ccff99" stroke="#ccff99" points="653.07,-288.04 657.73,-278.53 648.15,-283.06 653.07,-288.04"/>
</g>
<!-- node37 -->
<g id="node38" class="node">
<title>node37</title>
<path fill="#8b00ff" stroke="black" d="M786,-315.5C786,-315.5 816,-315.5 816,-315.5 822,-315.5 828,-321.5 828,-327.5 828,-327.5 828,-339.5 828,-339.5 828,-345.5 822,-351.5 816,-351.5 816,-351.5 786,-351.5 786,-351.5 780,-351.5 774,-345.5 774,-339.5 774,-339.5 774,-327.5 774,-327.5 774,-321.5 780,-315.5 786,-315.5"/>
<text text-anchor="middle" x="801" y="-329.8" font-family="Times New Roman,serif" font-size="14.00">*</text>
</g>
<!-- node36&#45;&gt;node37 -->
<g id="edge37" class="edge">
<title>node36&#45;&gt;node37</title>
<path fill="none" stroke="#8b00ff" d="M801,-388.31C801,-380.29 801,-370.55 801,-361.57"/>
<polygon fill="#8b00ff" stroke="#8b00ff" points="804.5,-361.53 801,-351.53 797.5,-361.53 804.5,-361.53"/>
</g>
<!-- node44 -->
<g id="node45" class="node">
<title>node44</title>
<path fill="#8b00ff" stroke="black" d="M898,-315.5C898,-315.5 928,-315.5 928,-315.5 934,-315.5 940,-321.5 940,-327.5 940,-327.5 940,-339.5 940,-339.5 940,-345.5 934,-351.5 928,-351.5 928,-351.5 898,-351.5 898,-351.5 892,-351.5 886,-345.5 886,-339.5 886,-339.5 886,-327.5 886,-327.5 886,-321.5 892,-315.5 898,-315.5"/>
<text text-anchor="middle" x="913" y="-329.8" font-family="Times New Roman,serif" font-size="14.00">*</text>
</g>
<!-- node36&#45;&gt;node44 -->
<g id="edge44" class="edge">
<title>node36&#45;&gt;node44</title>
<path fill="none" stroke="#8b00ff" d="M827.83,-388.49C842.68,-379.08 861.33,-367.26 877.39,-357.07"/>
<polygon fill="#8b00ff" stroke="#8b00ff" points="879.43,-359.92 886,-351.61 875.68,-354.01 879.43,-359.92"/>
</g>
<!-- node38 -->
<g id="node39" class="node">
<title>node38</title>
<path fill="#8b00ff" stroke="black" d="M750,-242.5C750,-242.5 780,-242.5 780,-242.5 786,-242.5 792,-248.5 792,-254.5 792,-254.5 792,-266.5 792,-266.5 792,-272.5 786,-278.5 780,-278.5 780,-278.5 750,-278.5 750,-278.5 744,-278.5 738,-272.5 738,-266.5 738,-266.5 738,-254.5 738,-254.5 738,-248.5 744,-242.5 750,-242.5"/>
<text text-anchor="middle" x="765" y="-256.8" font-family="Times New Roman,serif" font-size="14.00">^</text>
</g>
<!-- node37&#45;&gt;node38 -->
<g id="edge38" class="edge">
<title>node37&#45;&gt;node38</title>
<path fill="none" stroke="#8b00ff" d="M792.29,-315.31C788.08,-307.03 782.95,-296.91 778.28,-287.69"/>
<polygon fill="#8b00ff" stroke="#8b00ff" points="781.28,-285.87 773.63,-278.53 775.04,-289.03 781.28,-285.87"/>
</g>
<!-- node41 -->
<g id="node42" class="node">
<title>node41</title>
<path fill="#8b00ff" stroke="black" d="M822,-242.5C822,-242.5 852,-242.5 852,-242.5 858,-242.5 864,-248.5 864,-254.5 864,-254.5 864,-266.5 864,-266.5 864,-272.5 858,-278.5 852,-278.5 852,-278.5 822,-278.5 822,-278.5 816,-278.5 810,-272.5 810,-266.5 810,-266.5 810,-254.5 810,-254.5 810,-248.5 816,-242.5 822,-242.5"/>
<text text-anchor="middle" x="837" y="-256.8" font-family="Times New Roman,serif" font-size="14.00">cos</text>
</g>
<!-- node37&#45;&gt;node41 -->
<g id="edge41" class="edge">
<title>node37&#45;&gt;node41</title>
<path fill="none" stroke="#8b00ff" d="M809.71,-315.31C813.92,-307.03 819.05,-296.91 823.72,-287.69"/>
<polygon fill="#8b00ff" stroke="#8b00ff" points="826.96,-289.03 828.37,-278.53 820.72,-285.87 826.96,-289.03"/>
</g>
<!-- node39 -->
<g id="node40" class="node">
<title>node39</title>
<path fill="#ccff99" stroke="black" d="M678,-169.5C678,-169.5 708,-169.5 708,-169.5 714,-169.5 720,-175.5 720,-181.5 720,-181.5 720,-193.5 720,-193.5 720,-199.5 714,-205.5 708,-205.5 708,-205.5 678,-205.5 678,-205.5 672,-205.5 666,-199.5 666,-193.5 666,-193.5 666,-181.5 666,-181.5 666,-175.5 672,-169.5 678,-169.5"/>
<text text-anchor="middle" x="693" y="-183.8" font-family="Times New Roman,serif" font-size="14.00">x</text>
</g>
<!-- node38&#45;&gt;node39 -->
<g id="edge39" class="edge">
<title>node38&#45;&gt;node39</title>
<path fill="none" stroke="#ccff99" d="M747.57,-242.31C738.55,-233.42 727.39,-222.41 717.51,-212.67"/>
<polygon fill="#ccff99" stroke="#ccff99" points="719.85,-210.06 710.27,-205.53 714.93,-215.04 719.85,-210.06"/>
</g>
<!-- node40 -->
<g id="node41" class="node">
<title>node40</title>
<path fill="#00bfff" stroke="black" d="M750,-169.5C750,-169.5 780,-169.5 780,-169.5 786,-169.5 792,-175.5 792,-181.5 792,-181.5 792,-193.5 792,-193.5 792,-199.5 786,-205.5 780,-205.5 780,-205.5 750,-205.5 750,-205.5 744,-205.5 738,-199.5 738,-193.5 738,-193.5 738,-181.5 738,-181.5 738,-175.5 744,-169.5 750,-169.5"/>
<text text-anchor="middle" x="765" y="-183.8" font-family="Times New Roman,serif" font-size="14.00">2</text>
</g>
<!-- node38&#45;&gt;node40 -->
<g id="edge40" class="edge">
<title>node38&#45;&gt;node40</title>
<path fill="none" stroke="#00bfff" d="M765,-242.31C765,-234.29 765,-224.55 765,-215.57"/>
<polygon fill="#00bfff" stroke="#00bfff" points="768.5,-215.53 765,-205.53 761.5,-215.53 768.5,-215.53"/>
</g>
<!-- node42 -->
<g id="node43" class="node">
<title>node42</title>
<path fill="#00bfff" stroke="black" d="M822,-169.5C822,-169.5 852,-169.5 852,-169.5 858,-169.5 864,-175.5 864,-181.5 864,-181.5 864,-193.5 864,-193.5 864,-199.5 858,-205.5 852,-205.5 852,-205.5 822,-205.5 822,-205.5 816,-205.5 810,-199.5 810,-193.5 810,-193.5 810,-181.5 810,-181.5 810,-175.5 816,-169.5 822,-169.5"/>
<text text-anchor="middle" x="837" y="-183.8" font-family="Times New Roman,serif" font-size="14.00">1</text>
</g>
<!-- node41&#45;&gt;node42 -->
<g id="edge42" class="edge">
<title>node41&#45;&gt;node42</title>
<path fill="none" stroke="#00bfff" d="M837,-242.31C837,-234.29 837,-224.55 837,-215.57"/>
<polygon fill="#00bfff" stroke="#00bfff" points="840.5,-215.53 837,-205.53 833.5,-215.53 840.5,-215.53"/>
</g>
<!-- node43 -->
<g id="node44" class="node">
<title>node43</title>
<path fill="#ccff99" stroke="black" d="M894,-169.5C894,-169.5 924,-169.5 924,-169.5 930,-169.5 936,-175.5 936,-181.5 936,-181.5 936,-193.5 936,-193.5 936,-199.5 930,-205.5 924,-205.5 924,-205.5 894,-205.5 894,-205.5 888,-205.5 882,-199.5 882,-193.5 882,-193.5 882,-181.5 882,-181.5 882,-175.5 888,-169.5 894,-169.5"/>
<text text-anchor="middle" x="909" y="-183.8" font-family="Times New Roman,serif" font-size="14.00">x</text>
</g>
<!-- node41&#45;&gt;node43 -->
<g id="edge43" class="edge">
<title>node41&#45;&gt;node43</title>
<path fill="none" stroke="#ccff99" d="M854.43,-242.31C863.45,-233.42 874.61,-222.41 884.49,-212.67"/>
<polygon fill="#ccff99" stroke="#ccff99" points="887.07,-215.04 891.73,-205.53 882.15,-210.06 887.07,-215.04"/>
</g>
<!-- node45 -->
<g id="node46" class="node">
<title>node45</title>
<path fill="#00bfff" stroke="black" d="M894.5,-242.5C894.5,-242.5 931.5,-242.5 931.5,-242.5 937.5,-242.5 943.5,-248.5 943.5,-254.5 943.5,-254.5 943.5,-266.5 943.5,-266.5 943.5,-272.5 937.5,-278.5 931.5,-278.5 931.5,-278.5 894.5,-278.5 894.5,-278.5 888.5,-278.5 882.5,-272.5 882.5,-266.5 882.5,-266.5 882.5,-254.5 882.5,-254.5 882.5,-248.5 888.5,-242.5 894.5,-242.5"/>
<text text-anchor="middle" x="913" y="-256.8" font-family="Times New Roman,serif" font-size="14.00">1.60944</text>
</g>
<!-- node44&#45;&gt;node45 -->
<g id="edge45" class="edge">
<title>node44&#45;&gt;node45</title>
<path fill="none" stroke="#00bfff" d="M913,-315.31C913,-307.29 913,-297.55 913,-288.57"/>
<polygon fill="#00bfff" stroke="#00bfff" points="916.5,-288.53 913,-278.53 909.5,-288.53 916.5,-288.53"/>
</g>
<!-- node46 -->
<g id="node47" class="node">
<title>node46</title>
<path fill="#8b00ff" stroke="black" d="M974,-242.5C974,-242.5 1004,-242.5 1004,-242.5 1010,-242.5 1016,-248.5 1016,-254.5 1016,-254.5 1016,-266.5 1016,-266.5 1016,-272.5 1010,-278.5 1004,-278.5 1004,-278.5 974,-278.5 974,-278.5 968,-278.5 962,-272.5 962,-266.5 962,-266.5 962,-254.5 962,-254.5 962,-248.5 968,-242.5 974,-242.5"/>
<text text-anchor="middle" x="989" y="-256.8" font-family="Times New Roman,serif" font-size="14.00">^</text>
</g>
<!-- node44&#45;&gt;node46 -->
<g id="edge46" class="edge">
<title>node44&#45;&gt;node46</title>
<path fill="none" stroke="#8b00ff" d="M931.4,-315.31C941.01,-306.33 952.93,-295.19 963.43,-285.39"/>
<polygon fill="#8b00ff" stroke="#8b00ff" points="965.85,-287.91 970.77,-278.53 961.08,-282.8 965.85,-287.91"/>
</g>
<!-- node47 -->
<g id="node48" class="node">
<title>node47</title>
<path fill="#00bfff" stroke="black" d="M970,-169.5C970,-169.5 1000,-169.5 1000,-169.5 1006,-169.5 1012,-175.5 1012,-181.5 1012,-181.5 1012,-193.5 1012,-193.5 1012,-199.5 1006,-205.5 1000,-205.5 1000,-205.5 970,-205.5 970,-205.5 964,-205.5 958,-199.5 958,-193.5 958,-193.5 958,-181.5 958,-181.5 958,-175.5 964,-169.5 970,-169.5"/>
<text text-anchor="middle" x="985" y="-183.8" font-family="Times New Roman,serif" font-size="14.00">5</text>
</g>
<!-- node46&#45;&gt;node47 -->
<g id="edge47" class="edge">
<title>node46&#45;&gt;node47</title>
<path fill="none" stroke="#00bfff" d="M988.03,-242.31C987.58,-234.29 987.03,-224.55 986.53,-215.57"/>
<polygon fill="#00bfff" stroke="#00bfff" points="990.02,-215.32 985.96,-205.53 983.03,-215.71 990.02,-215.32"/>
</g>
<!-- node48 -->
<g id="node49" class="node">
<title>node48</title>
<path fill="#ccff99" stroke="black" d="M1042,-169.5C1042,-169.5 1072,-169.5 1072,-169.5 1078,-169.5 1084,-175.5 1084,-181.5 1084,-181.5 1084,-193.5 1084,-193.5 1084,-199.5 1078,-205.5 1072,-205.5 1072,-205.5 1042,-205.5 1042,-205.5 1036,-205.5 1030,-199.5 1030,-193.5 1030,-193.5 1030,-181.5 1030,-181.5 1030,-175.5 1036,-169.5 1042,-169.5"/>
<text text-anchor="middle" x="1057" y="-183.8" font-family="Times New Roman,serif" font-size="14.00">x</text>
</g>
<!-- node46&#45;&gt;node48 -->
<g id="edge48" class="edge">
<title>node46&#45;&gt;node48</title>
<path fill="none" stroke="#ccff99" d="M1005.46,-242.31C1013.9,-233.5 1024.32,-222.63 1033.58,-212.96"/>
<polygon fill="#ccff99" stroke="#ccff99" points="1036.3,-215.17 1040.69,-205.53 1031.25,-210.33 1036.3,-215.17"/>
</g>
</g>
</svg>
