<?xml version="1.0" encoding="UTF-8" standalone="no"?>
<!DOCTYPE svg PUBLIC "-//W3C//DTD SVG 1.1//EN"
 "http://www.w3.org/Graphics/SVG/1.1/DTD/svg11.dtd">
<!-- Generated by graphviz version 6.0.2 (20221011.1828)
 -->
<!-- Title: List Pages: 1 -->
<svg width="952pt" height="579pt"
 viewBox="0.00 0.00 952.00 579.00" xmlns="http://www.w3.org/2000/svg" xmlns:xlink="http://www.w3.org/1999/xlink">
<g id="graph0" class="graph" transform="scale(1 1) rotate(0) translate(4 575)">
<title>List</title>
<polygon fill="#696969" stroke="none" points="-4,4 -4,-575 948,-575 948,4 -4,4"/>
<text text-anchor="middle" x="472" y="-7.8" font-family="Times New Roman,serif" font-size="14.00">tree_dump from function main, Tree/main.cpp:27</text>
<!-- node0 -->
<g id="node1" class="node">
<title>node0</title>
<path fill="#8b00ff" stroke="black" d="M561,-534.5C561,-534.5 591,-534.5 591,-534.5 597,-534.5 603,-540.5 603,-546.5 603,-546.5 603,-558.5 603,-558.5 603,-564.5 597,-570.5 591,-570.5 591,-570.5 561,-570.5 561,-570.5 555,-570.5 549,-564.5 549,-558.5 549,-558.5 549,-546.5 549,-546.5 549,-540.5 555,-534.5 561,-534.5"/>
<text text-anchor="middle" x="576" y="-548.8" font-family="Times New Roman,serif" font-size="14.00">+</text>
</g>
<!-- node1 -->
<g id="node2" class="node">
<title>node1</title>
<path fill="#8b00ff" stroke="black" d="M457,-461.5C457,-461.5 487,-461.5 487,-461.5 493,-461.5 499,-467.5 499,-473.5 499,-473.5 499,-485.5 499,-485.5 499,-491.5 493,-497.5 487,-497.5 487,-497.5 457,-497.5 457,-497.5 451,-497.5 445,-491.5 445,-485.5 445,-485.5 445,-473.5 445,-473.5 445,-467.5 451,-461.5 457,-461.5"/>
<text text-anchor="middle" x="472" y="-475.8" font-family="Times New Roman,serif" font-size="14.00">*</text>
</g>
<!-- node0&#45;&gt;node1 -->
<g id="edge1" class="edge">
<title>node0&#45;&gt;node1</title>
<path fill="none" stroke="#8b00ff" d="M551.09,-534.49C537.43,-525.17 520.3,-513.47 505.48,-503.36"/>
<polygon fill="#8b00ff" stroke="#8b00ff" points="507.3,-500.36 497.07,-497.61 503.35,-506.14 507.3,-500.36"/>
</g>
<!-- node28 -->
<g id="node29" class="node">
<title>node28</title>
<path fill="#8b00ff" stroke="black" d="M631,-461.5C631,-461.5 661,-461.5 661,-461.5 667,-461.5 673,-467.5 673,-473.5 673,-473.5 673,-485.5 673,-485.5 673,-491.5 667,-497.5 661,-497.5 661,-497.5 631,-497.5 631,-497.5 625,-497.5 619,-491.5 619,-485.5 619,-485.5 619,-473.5 619,-473.5 619,-467.5 625,-461.5 631,-461.5"/>
<text text-anchor="middle" x="646" y="-475.8" font-family="Times New Roman,serif" font-size="14.00">+</text>
</g>
<!-- node0&#45;&gt;node28 -->
<g id="edge28" class="edge">
<title>node0&#45;&gt;node28</title>
<path fill="none" stroke="#8b00ff" d="M592.95,-534.31C601.72,-525.42 612.57,-514.41 622.17,-504.67"/>
<polygon fill="#8b00ff" stroke="#8b00ff" points="624.68,-507.11 629.21,-497.53 619.7,-502.19 624.68,-507.11"/>
</g>
<!-- node2 -->
<g id="node3" class="node">
<title>node2</title>
<path fill="#8b00ff" stroke="black" d="M220,-388.5C220,-388.5 250,-388.5 250,-388.5 256,-388.5 262,-394.5 262,-400.5 262,-400.5 262,-412.5 262,-412.5 262,-418.5 256,-424.5 250,-424.5 250,-424.5 220,-424.5 220,-424.5 214,-424.5 208,-418.5 208,-412.5 208,-412.5 208,-400.5 208,-400.5 208,-394.5 214,-388.5 220,-388.5"/>
<text text-anchor="middle" x="235" y="-402.8" font-family="Times New Roman,serif" font-size="14.00">*</text>
</g>
<!-- node1&#45;&gt;node2 -->
<g id="edge2" class="edge">
<title>node1&#45;&gt;node2</title>
<path fill="none" stroke="#8b00ff" d="M444.81,-470.36C402.25,-457.6 319.79,-432.9 271.9,-418.55"/>
<polygon fill="#8b00ff" stroke="#8b00ff" points="272.82,-415.18 262.23,-415.66 270.81,-421.88 272.82,-415.18"/>
</g>
<!-- node13 -->
<g id="node14" class="node">
<title>node13</title>
<path fill="#8b00ff" stroke="black" d="M457,-388.5C457,-388.5 487,-388.5 487,-388.5 493,-388.5 499,-394.5 499,-400.5 499,-400.5 499,-412.5 499,-412.5 499,-418.5 493,-424.5 487,-424.5 487,-424.5 457,-424.5 457,-424.5 451,-424.5 445,-418.5 445,-412.5 445,-412.5 445,-400.5 445,-400.5 445,-394.5 451,-388.5 457,-388.5"/>
<text text-anchor="middle" x="472" y="-402.8" font-family="Times New Roman,serif" font-size="14.00">*</text>
</g>
<!-- node1&#45;&gt;node13 -->
<g id="edge13" class="edge">
<title>node1&#45;&gt;node13</title>
<path fill="none" stroke="#8b00ff" d="M472,-461.31C472,-453.29 472,-443.55 472,-434.57"/>
<polygon fill="#8b00ff" stroke="#8b00ff" points="475.5,-434.53 472,-424.53 468.5,-434.53 475.5,-434.53"/>
</g>
<!-- node3 -->
<g id="node4" class="node">
<title>node3</title>
<path fill="#00bfff" stroke="black" d="M134,-315.5C134,-315.5 178,-315.5 178,-315.5 184,-315.5 190,-321.5 190,-327.5 190,-327.5 190,-339.5 190,-339.5 190,-345.5 184,-351.5 178,-351.5 178,-351.5 134,-351.5 134,-351.5 128,-351.5 122,-345.5 122,-339.5 122,-339.5 122,-327.5 122,-327.5 122,-321.5 128,-315.5 134,-315.5"/>
<text text-anchor="middle" x="156" y="-329.8" font-family="Times New Roman,serif" font-size="14.00">3.000000</text>
</g>
<!-- node2&#45;&gt;node3 -->
<g id="edge3" class="edge">
<title>node2&#45;&gt;node3</title>
<path fill="none" stroke="#00bfff" d="M215.88,-388.31C205.88,-379.33 193.49,-368.19 182.58,-358.39"/>
<polygon fill="#00bfff" stroke="#00bfff" points="184.72,-355.61 174.95,-351.53 180.05,-360.82 184.72,-355.61"/>
</g>
<!-- node4 -->
<g id="node5" class="node">
<title>node4</title>
<path fill="#8b00ff" stroke="black" d="M220,-315.5C220,-315.5 250,-315.5 250,-315.5 256,-315.5 262,-321.5 262,-327.5 262,-327.5 262,-339.5 262,-339.5 262,-345.5 256,-351.5 250,-351.5 250,-351.5 220,-351.5 220,-351.5 214,-351.5 208,-345.5 208,-339.5 208,-339.5 208,-327.5 208,-327.5 208,-321.5 214,-315.5 220,-315.5"/>
<text text-anchor="middle" x="235" y="-329.8" font-family="Times New Roman,serif" font-size="14.00">^</text>
</g>
<!-- node2&#45;&gt;node4 -->
<g id="edge4" class="edge">
<title>node2&#45;&gt;node4</title>
<path fill="none" stroke="#8b00ff" d="M235,-388.31C235,-380.29 235,-370.55 235,-361.57"/>
<polygon fill="#8b00ff" stroke="#8b00ff" points="238.5,-361.53 235,-351.53 231.5,-361.53 238.5,-361.53"/>
</g>
<!-- node5 -->
<g id="node6" class="node">
<title>node5</title>
<path fill="#8b00ff" stroke="black" d="M98,-242.5C98,-242.5 128,-242.5 128,-242.5 134,-242.5 140,-248.5 140,-254.5 140,-254.5 140,-266.5 140,-266.5 140,-272.5 134,-278.5 128,-278.5 128,-278.5 98,-278.5 98,-278.5 92,-278.5 86,-272.5 86,-266.5 86,-266.5 86,-254.5 86,-254.5 86,-248.5 92,-242.5 98,-242.5"/>
<text text-anchor="middle" x="113" y="-256.8" font-family="Times New Roman,serif" font-size="14.00">sin</text>
</g>
<!-- node4&#45;&gt;node5 -->
<g id="edge5" class="edge">
<title>node4&#45;&gt;node5</title>
<path fill="none" stroke="#8b00ff" d="M207.92,-316.74C190.47,-306.59 167.58,-293.27 148.66,-282.25"/>
<polygon fill="#8b00ff" stroke="#8b00ff" points="150.4,-279.22 140,-277.21 146.88,-285.27 150.4,-279.22"/>
</g>
<!-- node10 -->
<g id="node11" class="node">
<title>node10</title>
<path fill="#8b00ff" stroke="black" d="M220,-242.5C220,-242.5 250,-242.5 250,-242.5 256,-242.5 262,-248.5 262,-254.5 262,-254.5 262,-266.5 262,-266.5 262,-272.5 256,-278.5 250,-278.5 250,-278.5 220,-278.5 220,-278.5 214,-278.5 208,-272.5 208,-266.5 208,-266.5 208,-254.5 208,-254.5 208,-248.5 214,-242.5 220,-242.5"/>
<text text-anchor="middle" x="235" y="-256.8" font-family="Times New Roman,serif" font-size="14.00">&#45;</text>
</g>
<!-- node4&#45;&gt;node10 -->
<g id="edge10" class="edge">
<title>node4&#45;&gt;node10</title>
<path fill="none" stroke="#8b00ff" d="M235,-315.31C235,-307.29 235,-297.55 235,-288.57"/>
<polygon fill="#8b00ff" stroke="#8b00ff" points="238.5,-288.53 235,-278.53 231.5,-288.53 238.5,-288.53"/>
</g>
<!-- node6 -->
<g id="node7" class="node">
<title>node6</title>
<path fill="#00bfff" stroke="black" d="M12,-169.5C12,-169.5 56,-169.5 56,-169.5 62,-169.5 68,-175.5 68,-181.5 68,-181.5 68,-193.5 68,-193.5 68,-199.5 62,-205.5 56,-205.5 56,-205.5 12,-205.5 12,-205.5 6,-205.5 0,-199.5 0,-193.5 0,-193.5 0,-181.5 0,-181.5 0,-175.5 6,-169.5 12,-169.5"/>
<text text-anchor="middle" x="34" y="-183.8" font-family="Times New Roman,serif" font-size="14.00">1.000000</text>
</g>
<!-- node5&#45;&gt;node6 -->
<g id="edge6" class="edge">
<title>node5&#45;&gt;node6</title>
<path fill="none" stroke="#00bfff" d="M93.88,-242.31C83.88,-233.33 71.49,-222.19 60.58,-212.39"/>
<polygon fill="#00bfff" stroke="#00bfff" points="62.72,-209.61 52.95,-205.53 58.05,-214.82 62.72,-209.61"/>
</g>
<!-- node7 -->
<g id="node8" class="node">
<title>node7</title>
<path fill="#8b00ff" stroke="black" d="M98,-169.5C98,-169.5 128,-169.5 128,-169.5 134,-169.5 140,-175.5 140,-181.5 140,-181.5 140,-193.5 140,-193.5 140,-199.5 134,-205.5 128,-205.5 128,-205.5 98,-205.5 98,-205.5 92,-205.5 86,-199.5 86,-193.5 86,-193.5 86,-181.5 86,-181.5 86,-175.5 92,-169.5 98,-169.5"/>
<text text-anchor="middle" x="113" y="-183.8" font-family="Times New Roman,serif" font-size="14.00">^</text>
</g>
<!-- node5&#45;&gt;node7 -->
<g id="edge7" class="edge">
<title>node5&#45;&gt;node7</title>
<path fill="none" stroke="#8b00ff" d="M113,-242.31C113,-234.29 113,-224.55 113,-215.57"/>
<polygon fill="#8b00ff" stroke="#8b00ff" points="116.5,-215.53 113,-205.53 109.5,-215.53 116.5,-215.53"/>
</g>
<!-- node8 -->
<g id="node9" class="node">
<title>node8</title>
<path fill="#ccff99" stroke="black" d="M59,-96.5C59,-96.5 89,-96.5 89,-96.5 95,-96.5 101,-102.5 101,-108.5 101,-108.5 101,-120.5 101,-120.5 101,-126.5 95,-132.5 89,-132.5 89,-132.5 59,-132.5 59,-132.5 53,-132.5 47,-126.5 47,-120.5 47,-120.5 47,-108.5 47,-108.5 47,-102.5 53,-96.5 59,-96.5"/>
<text text-anchor="middle" x="74" y="-110.8" font-family="Times New Roman,serif" font-size="14.00">x</text>
</g>
<!-- node7&#45;&gt;node8 -->
<g id="edge8" class="edge">
<title>node7&#45;&gt;node8</title>
<path fill="none" stroke="#ccff99" d="M103.56,-169.31C98.96,-160.94 93.33,-150.7 88.23,-141.4"/>
<polygon fill="#ccff99" stroke="#ccff99" points="91.24,-139.61 83.35,-132.53 85.1,-142.98 91.24,-139.61"/>
</g>
<!-- node9 -->
<g id="node10" class="node">
<title>node9</title>
<path fill="#00bfff" stroke="black" d="M131,-96.5C131,-96.5 175,-96.5 175,-96.5 181,-96.5 187,-102.5 187,-108.5 187,-108.5 187,-120.5 187,-120.5 187,-126.5 181,-132.5 175,-132.5 175,-132.5 131,-132.5 131,-132.5 125,-132.5 119,-126.5 119,-120.5 119,-120.5 119,-108.5 119,-108.5 119,-102.5 125,-96.5 131,-96.5"/>
<text text-anchor="middle" x="153" y="-110.8" font-family="Times New Roman,serif" font-size="14.00">2.000000</text>
</g>
<!-- node7&#45;&gt;node9 -->
<g id="edge9" class="edge">
<title>node7&#45;&gt;node9</title>
<path fill="none" stroke="#00bfff" d="M122.68,-169.31C127.4,-160.94 133.17,-150.7 138.41,-141.4"/>
<polygon fill="#00bfff" stroke="#00bfff" points="141.55,-142.96 143.41,-132.53 135.45,-139.52 141.55,-142.96"/>
</g>
<!-- node11 -->
<g id="node12" class="node">
<title>node11</title>
<path fill="#00bfff" stroke="black" d="M170,-169.5C170,-169.5 214,-169.5 214,-169.5 220,-169.5 226,-175.5 226,-181.5 226,-181.5 226,-193.5 226,-193.5 226,-199.5 220,-205.5 214,-205.5 214,-205.5 170,-205.5 170,-205.5 164,-205.5 158,-199.5 158,-193.5 158,-193.5 158,-181.5 158,-181.5 158,-175.5 164,-169.5 170,-169.5"/>
<text text-anchor="middle" x="192" y="-183.8" font-family="Times New Roman,serif" font-size="14.00">3.000000</text>
</g>
<!-- node10&#45;&gt;node11 -->
<g id="edge11" class="edge">
<title>node10&#45;&gt;node11</title>
<path fill="none" stroke="#00bfff" d="M224.59,-242.31C219.47,-233.85 213.19,-223.48 207.51,-214.11"/>
<polygon fill="#00bfff" stroke="#00bfff" points="210.49,-212.27 202.31,-205.53 204.5,-215.9 210.49,-212.27"/>
</g>
<!-- node12 -->
<g id="node13" class="node">
<title>node12</title>
<path fill="#00bfff" stroke="black" d="M256,-169.5C256,-169.5 300,-169.5 300,-169.5 306,-169.5 312,-175.5 312,-181.5 312,-181.5 312,-193.5 312,-193.5 312,-199.5 306,-205.5 300,-205.5 300,-205.5 256,-205.5 256,-205.5 250,-205.5 244,-199.5 244,-193.5 244,-193.5 244,-181.5 244,-181.5 244,-175.5 250,-169.5 256,-169.5"/>
<text text-anchor="middle" x="278" y="-183.8" font-family="Times New Roman,serif" font-size="14.00">1.000000</text>
</g>
<!-- node10&#45;&gt;node12 -->
<g id="edge12" class="edge">
<title>node10&#45;&gt;node12</title>
<path fill="none" stroke="#00bfff" d="M245.41,-242.31C250.53,-233.85 256.81,-223.48 262.49,-214.11"/>
<polygon fill="#00bfff" stroke="#00bfff" points="265.5,-215.9 267.69,-205.53 259.51,-212.27 265.5,-215.9"/>
</g>
<!-- node14 -->
<g id="node15" class="node">
<title>node14</title>
<path fill="#8b00ff" stroke="black" d="M421,-315.5C421,-315.5 451,-315.5 451,-315.5 457,-315.5 463,-321.5 463,-327.5 463,-327.5 463,-339.5 463,-339.5 463,-345.5 457,-351.5 451,-351.5 451,-351.5 421,-351.5 421,-351.5 415,-351.5 409,-345.5 409,-339.5 409,-339.5 409,-327.5 409,-327.5 409,-321.5 415,-315.5 421,-315.5"/>
<text text-anchor="middle" x="436" y="-329.8" font-family="Times New Roman,serif" font-size="14.00">cos</text>
</g>
<!-- node13&#45;&gt;node14 -->
<g id="edge14" class="edge">
<title>node13&#45;&gt;node14</title>
<path fill="none" stroke="#8b00ff" d="M463.29,-388.31C459.08,-380.03 453.95,-369.91 449.28,-360.69"/>
<polygon fill="#8b00ff" stroke="#8b00ff" points="452.28,-358.87 444.63,-351.53 446.04,-362.03 452.28,-358.87"/>
</g>
<!-- node19 -->
<g id="node20" class="node">
<title>node19</title>
<path fill="#8b00ff" stroke="black" d="M500,-315.5C500,-315.5 530,-315.5 530,-315.5 536,-315.5 542,-321.5 542,-327.5 542,-327.5 542,-339.5 542,-339.5 542,-345.5 536,-351.5 530,-351.5 530,-351.5 500,-351.5 500,-351.5 494,-351.5 488,-345.5 488,-339.5 488,-339.5 488,-327.5 488,-327.5 488,-321.5 494,-315.5 500,-315.5"/>
<text text-anchor="middle" x="515" y="-329.8" font-family="Times New Roman,serif" font-size="14.00">*</text>
</g>
<!-- node13&#45;&gt;node19 -->
<g id="edge19" class="edge">
<title>node13&#45;&gt;node19</title>
<path fill="none" stroke="#8b00ff" d="M482.41,-388.31C487.53,-379.85 493.81,-369.48 499.49,-360.11"/>
<polygon fill="#8b00ff" stroke="#8b00ff" points="502.5,-361.9 504.69,-351.53 496.51,-358.27 502.5,-361.9"/>
</g>
<!-- node15 -->
<g id="node16" class="node">
<title>node15</title>
<path fill="#00bfff" stroke="black" d="M335,-242.5C335,-242.5 379,-242.5 379,-242.5 385,-242.5 391,-248.5 391,-254.5 391,-254.5 391,-266.5 391,-266.5 391,-272.5 385,-278.5 379,-278.5 379,-278.5 335,-278.5 335,-278.5 329,-278.5 323,-272.5 323,-266.5 323,-266.5 323,-254.5 323,-254.5 323,-248.5 329,-242.5 335,-242.5"/>
<text text-anchor="middle" x="357" y="-256.8" font-family="Times New Roman,serif" font-size="14.00">1.000000</text>
</g>
<!-- node14&#45;&gt;node15 -->
<g id="edge15" class="edge">
<title>node14&#45;&gt;node15</title>
<path fill="none" stroke="#00bfff" d="M416.88,-315.31C406.88,-306.33 394.49,-295.19 383.58,-285.39"/>
<polygon fill="#00bfff" stroke="#00bfff" points="385.72,-282.61 375.95,-278.53 381.05,-287.82 385.72,-282.61"/>
</g>
<!-- node16 -->
<g id="node17" class="node">
<title>node16</title>
<path fill="#8b00ff" stroke="black" d="M421,-242.5C421,-242.5 451,-242.5 451,-242.5 457,-242.5 463,-248.5 463,-254.5 463,-254.5 463,-266.5 463,-266.5 463,-272.5 457,-278.5 451,-278.5 451,-278.5 421,-278.5 421,-278.5 415,-278.5 409,-272.5 409,-266.5 409,-266.5 409,-254.5 409,-254.5 409,-248.5 415,-242.5 421,-242.5"/>
<text text-anchor="middle" x="436" y="-256.8" font-family="Times New Roman,serif" font-size="14.00">^</text>
</g>
<!-- node14&#45;&gt;node16 -->
<g id="edge16" class="edge">
<title>node14&#45;&gt;node16</title>
<path fill="none" stroke="#8b00ff" d="M436,-315.31C436,-307.29 436,-297.55 436,-288.57"/>
<polygon fill="#8b00ff" stroke="#8b00ff" points="439.5,-288.53 436,-278.53 432.5,-288.53 439.5,-288.53"/>
</g>
<!-- node17 -->
<g id="node18" class="node">
<title>node17</title>
<path fill="#ccff99" stroke="black" d="M342,-169.5C342,-169.5 372,-169.5 372,-169.5 378,-169.5 384,-175.5 384,-181.5 384,-181.5 384,-193.5 384,-193.5 384,-199.5 378,-205.5 372,-205.5 372,-205.5 342,-205.5 342,-205.5 336,-205.5 330,-199.5 330,-193.5 330,-193.5 330,-181.5 330,-181.5 330,-175.5 336,-169.5 342,-169.5"/>
<text text-anchor="middle" x="357" y="-183.8" font-family="Times New Roman,serif" font-size="14.00">x</text>
</g>
<!-- node16&#45;&gt;node17 -->
<g id="edge17" class="edge">
<title>node16&#45;&gt;node17</title>
<path fill="none" stroke="#ccff99" d="M416.88,-242.31C406.88,-233.33 394.49,-222.19 383.58,-212.39"/>
<polygon fill="#ccff99" stroke="#ccff99" points="385.72,-209.61 375.95,-205.53 381.05,-214.82 385.72,-209.61"/>
</g>
<!-- node18 -->
<g id="node19" class="node">
<title>node18</title>
<path fill="#00bfff" stroke="black" d="M414,-169.5C414,-169.5 458,-169.5 458,-169.5 464,-169.5 470,-175.5 470,-181.5 470,-181.5 470,-193.5 470,-193.5 470,-199.5 464,-205.5 458,-205.5 458,-205.5 414,-205.5 414,-205.5 408,-205.5 402,-199.5 402,-193.5 402,-193.5 402,-181.5 402,-181.5 402,-175.5 408,-169.5 414,-169.5"/>
<text text-anchor="middle" x="436" y="-183.8" font-family="Times New Roman,serif" font-size="14.00">2.000000</text>
</g>
<!-- node16&#45;&gt;node18 -->
<g id="edge18" class="edge">
<title>node16&#45;&gt;node18</title>
<path fill="none" stroke="#00bfff" d="M436,-242.31C436,-234.29 436,-224.55 436,-215.57"/>
<polygon fill="#00bfff" stroke="#00bfff" points="439.5,-215.53 436,-205.53 432.5,-215.53 439.5,-215.53"/>
</g>
<!-- node20 -->
<g id="node21" class="node">
<title>node20</title>
<path fill="#8b00ff" stroke="black" d="M500,-242.5C500,-242.5 530,-242.5 530,-242.5 536,-242.5 542,-248.5 542,-254.5 542,-254.5 542,-266.5 542,-266.5 542,-272.5 536,-278.5 530,-278.5 530,-278.5 500,-278.5 500,-278.5 494,-278.5 488,-272.5 488,-266.5 488,-266.5 488,-254.5 488,-254.5 488,-248.5 494,-242.5 500,-242.5"/>
<text text-anchor="middle" x="515" y="-256.8" font-family="Times New Roman,serif" font-size="14.00">*</text>
</g>
<!-- node19&#45;&gt;node20 -->
<g id="edge20" class="edge">
<title>node19&#45;&gt;node20</title>
<path fill="none" stroke="#8b00ff" d="M515,-315.31C515,-307.29 515,-297.55 515,-288.57"/>
<polygon fill="#8b00ff" stroke="#8b00ff" points="518.5,-288.53 515,-278.53 511.5,-288.53 518.5,-288.53"/>
</g>
<!-- node27 -->
<g id="node28" class="node">
<title>node27</title>
<path fill="#00bfff" stroke="black" d="M572,-242.5C572,-242.5 616,-242.5 616,-242.5 622,-242.5 628,-248.5 628,-254.5 628,-254.5 628,-266.5 628,-266.5 628,-272.5 622,-278.5 616,-278.5 616,-278.5 572,-278.5 572,-278.5 566,-278.5 560,-272.5 560,-266.5 560,-266.5 560,-254.5 560,-254.5 560,-248.5 566,-242.5 572,-242.5"/>
<text text-anchor="middle" x="594" y="-256.8" font-family="Times New Roman,serif" font-size="14.00">1.000000</text>
</g>
<!-- node19&#45;&gt;node27 -->
<g id="edge27" class="edge">
<title>node19&#45;&gt;node27</title>
<path fill="none" stroke="#00bfff" d="M534.12,-315.31C544.12,-306.33 556.51,-295.19 567.42,-285.39"/>
<polygon fill="#00bfff" stroke="#00bfff" points="569.95,-287.82 575.05,-278.53 565.28,-282.61 569.95,-287.82"/>
</g>
<!-- node21 -->
<g id="node22" class="node">
<title>node21</title>
<path fill="#00bfff" stroke="black" d="M500,-169.5C500,-169.5 544,-169.5 544,-169.5 550,-169.5 556,-175.5 556,-181.5 556,-181.5 556,-193.5 556,-193.5 556,-199.5 550,-205.5 544,-205.5 544,-205.5 500,-205.5 500,-205.5 494,-205.5 488,-199.5 488,-193.5 488,-193.5 488,-181.5 488,-181.5 488,-175.5 494,-169.5 500,-169.5"/>
<text text-anchor="middle" x="522" y="-183.8" font-family="Times New Roman,serif" font-size="14.00">2.000000</text>
</g>
<!-- node20&#45;&gt;node21 -->
<g id="edge21" class="edge">
<title>node20&#45;&gt;node21</title>
<path fill="none" stroke="#00bfff" d="M516.69,-242.31C517.49,-234.29 518.45,-224.55 519.33,-215.57"/>
<polygon fill="#00bfff" stroke="#00bfff" points="522.82,-215.82 520.32,-205.53 515.86,-215.14 522.82,-215.82"/>
</g>
<!-- node22 -->
<g id="node23" class="node">
<title>node22</title>
<path fill="#8b00ff" stroke="black" d="M586,-169.5C586,-169.5 616,-169.5 616,-169.5 622,-169.5 628,-175.5 628,-181.5 628,-181.5 628,-193.5 628,-193.5 628,-199.5 622,-205.5 616,-205.5 616,-205.5 586,-205.5 586,-205.5 580,-205.5 574,-199.5 574,-193.5 574,-193.5 574,-181.5 574,-181.5 574,-175.5 580,-169.5 586,-169.5"/>
<text text-anchor="middle" x="601" y="-183.8" font-family="Times New Roman,serif" font-size="14.00">^</text>
</g>
<!-- node20&#45;&gt;node22 -->
<g id="edge22" class="edge">
<title>node20&#45;&gt;node22</title>
<path fill="none" stroke="#8b00ff" d="M535.82,-242.31C546.8,-233.24 560.45,-221.98 572.41,-212.1"/>
<polygon fill="#8b00ff" stroke="#8b00ff" points="574.89,-214.59 580.37,-205.53 570.43,-209.2 574.89,-214.59"/>
</g>
<!-- node23 -->
<g id="node24" class="node">
<title>node23</title>
<path fill="#ccff99" stroke="black" d="M550,-96.5C550,-96.5 580,-96.5 580,-96.5 586,-96.5 592,-102.5 592,-108.5 592,-108.5 592,-120.5 592,-120.5 592,-126.5 586,-132.5 580,-132.5 580,-132.5 550,-132.5 550,-132.5 544,-132.5 538,-126.5 538,-120.5 538,-120.5 538,-108.5 538,-108.5 538,-102.5 544,-96.5 550,-96.5"/>
<text text-anchor="middle" x="565" y="-110.8" font-family="Times New Roman,serif" font-size="14.00">x</text>
</g>
<!-- node22&#45;&gt;node23 -->
<g id="edge23" class="edge">
<title>node22&#45;&gt;node23</title>
<path fill="none" stroke="#ccff99" d="M592.29,-169.31C588.08,-161.03 582.95,-150.91 578.28,-141.69"/>
<polygon fill="#ccff99" stroke="#ccff99" points="581.28,-139.87 573.63,-132.53 575.04,-143.03 581.28,-139.87"/>
</g>
<!-- node24 -->
<g id="node25" class="node">
<title>node24</title>
<path fill="#8b00ff" stroke="black" d="M622,-96.5C622,-96.5 652,-96.5 652,-96.5 658,-96.5 664,-102.5 664,-108.5 664,-108.5 664,-120.5 664,-120.5 664,-126.5 658,-132.5 652,-132.5 652,-132.5 622,-132.5 622,-132.5 616,-132.5 610,-126.5 610,-120.5 610,-120.5 610,-108.5 610,-108.5 610,-102.5 616,-96.5 622,-96.5"/>
<text text-anchor="middle" x="637" y="-110.8" font-family="Times New Roman,serif" font-size="14.00">&#45;</text>
</g>
<!-- node22&#45;&gt;node24 -->
<g id="edge24" class="edge">
<title>node22&#45;&gt;node24</title>
<path fill="none" stroke="#8b00ff" d="M609.71,-169.31C613.92,-161.03 619.05,-150.91 623.72,-141.69"/>
<polygon fill="#8b00ff" stroke="#8b00ff" points="626.96,-143.03 628.37,-132.53 620.72,-139.87 626.96,-143.03"/>
</g>
<!-- node25 -->
<g id="node26" class="node">
<title>node25</title>
<path fill="#00bfff" stroke="black" d="M572,-23.5C572,-23.5 616,-23.5 616,-23.5 622,-23.5 628,-29.5 628,-35.5 628,-35.5 628,-47.5 628,-47.5 628,-53.5 622,-59.5 616,-59.5 616,-59.5 572,-59.5 572,-59.5 566,-59.5 560,-53.5 560,-47.5 560,-47.5 560,-35.5 560,-35.5 560,-29.5 566,-23.5 572,-23.5"/>
<text text-anchor="middle" x="594" y="-37.8" font-family="Times New Roman,serif" font-size="14.00">2.000000</text>
</g>
<!-- node24&#45;&gt;node25 -->
<g id="edge25" class="edge">
<title>node24&#45;&gt;node25</title>
<path fill="none" stroke="#00bfff" d="M626.59,-96.31C621.47,-87.85 615.19,-77.48 609.51,-68.11"/>
<polygon fill="#00bfff" stroke="#00bfff" points="612.49,-66.27 604.31,-59.53 606.5,-69.9 612.49,-66.27"/>
</g>
<!-- node26 -->
<g id="node27" class="node">
<title>node26</title>
<path fill="#00bfff" stroke="black" d="M658,-23.5C658,-23.5 702,-23.5 702,-23.5 708,-23.5 714,-29.5 714,-35.5 714,-35.5 714,-47.5 714,-47.5 714,-53.5 708,-59.5 702,-59.5 702,-59.5 658,-59.5 658,-59.5 652,-59.5 646,-53.5 646,-47.5 646,-47.5 646,-35.5 646,-35.5 646,-29.5 652,-23.5 658,-23.5"/>
<text text-anchor="middle" x="680" y="-37.8" font-family="Times New Roman,serif" font-size="14.00">1.000000</text>
</g>
<!-- node24&#45;&gt;node26 -->
<g id="edge26" class="edge">
<title>node24&#45;&gt;node26</title>
<path fill="none" stroke="#00bfff" d="M647.41,-96.31C652.53,-87.85 658.81,-77.48 664.49,-68.11"/>
<polygon fill="#00bfff" stroke="#00bfff" points="667.5,-69.9 669.69,-59.53 661.51,-66.27 667.5,-69.9"/>
</g>
<!-- node29 -->
<g id="node30" class="node">
<title>node29</title>
<path fill="#8b00ff" stroke="black" d="M631,-388.5C631,-388.5 661,-388.5 661,-388.5 667,-388.5 673,-394.5 673,-400.5 673,-400.5 673,-412.5 673,-412.5 673,-418.5 667,-424.5 661,-424.5 661,-424.5 631,-424.5 631,-424.5 625,-424.5 619,-418.5 619,-412.5 619,-412.5 619,-400.5 619,-400.5 619,-394.5 625,-388.5 631,-388.5"/>
<text text-anchor="middle" x="646" y="-402.8" font-family="Times New Roman,serif" font-size="14.00">*</text>
</g>
<!-- node28&#45;&gt;node29 -->
<g id="edge29" class="edge">
<title>node28&#45;&gt;node29</title>
<path fill="none" stroke="#8b00ff" d="M646,-461.31C646,-453.29 646,-443.55 646,-434.57"/>
<polygon fill="#8b00ff" stroke="#8b00ff" points="649.5,-434.53 646,-424.53 642.5,-434.53 649.5,-434.53"/>
</g>
<!-- node34 -->
<g id="node35" class="node">
<title>node34</title>
<path fill="#8b00ff" stroke="black" d="M742,-388.5C742,-388.5 772,-388.5 772,-388.5 778,-388.5 784,-394.5 784,-400.5 784,-400.5 784,-412.5 784,-412.5 784,-418.5 778,-424.5 772,-424.5 772,-424.5 742,-424.5 742,-424.5 736,-424.5 730,-418.5 730,-412.5 730,-412.5 730,-400.5 730,-400.5 730,-394.5 736,-388.5 742,-388.5"/>
<text text-anchor="middle" x="757" y="-402.8" font-family="Times New Roman,serif" font-size="14.00">*</text>
</g>
<!-- node28&#45;&gt;node34 -->
<g id="edge34" class="edge">
<title>node28&#45;&gt;node34</title>
<path fill="none" stroke="#8b00ff" d="M672.59,-461.49C687.31,-452.08 705.79,-440.26 721.71,-430.07"/>
<polygon fill="#8b00ff" stroke="#8b00ff" points="723.71,-432.95 730.24,-424.61 719.93,-427.05 723.71,-432.95"/>
</g>
<!-- node30 -->
<g id="node31" class="node">
<title>node30</title>
<path fill="#00bfff" stroke="black" d="M581,-315.5C581,-315.5 625,-315.5 625,-315.5 631,-315.5 637,-321.5 637,-327.5 637,-327.5 637,-339.5 637,-339.5 637,-345.5 631,-351.5 625,-351.5 625,-351.5 581,-351.5 581,-351.5 575,-351.5 569,-345.5 569,-339.5 569,-339.5 569,-327.5 569,-327.5 569,-321.5 575,-315.5 581,-315.5"/>
<text text-anchor="middle" x="603" y="-329.8" font-family="Times New Roman,serif" font-size="14.00">1.000000</text>
</g>
<!-- node29&#45;&gt;node30 -->
<g id="edge30" class="edge">
<title>node29&#45;&gt;node30</title>
<path fill="none" stroke="#00bfff" d="M635.59,-388.31C630.47,-379.85 624.19,-369.48 618.51,-360.11"/>
<polygon fill="#00bfff" stroke="#00bfff" points="621.49,-358.27 613.31,-351.53 615.5,-361.9 621.49,-358.27"/>
</g>
<!-- node31 -->
<g id="node32" class="node">
<title>node31</title>
<path fill="#8b00ff" stroke="black" d="M667,-315.5C667,-315.5 697,-315.5 697,-315.5 703,-315.5 709,-321.5 709,-327.5 709,-327.5 709,-339.5 709,-339.5 709,-345.5 703,-351.5 697,-351.5 697,-351.5 667,-351.5 667,-351.5 661,-351.5 655,-345.5 655,-339.5 655,-339.5 655,-327.5 655,-327.5 655,-321.5 661,-315.5 667,-315.5"/>
<text text-anchor="middle" x="682" y="-329.8" font-family="Times New Roman,serif" font-size="14.00">ln</text>
</g>
<!-- node29&#45;&gt;node31 -->
<g id="edge31" class="edge">
<title>node29&#45;&gt;node31</title>
<path fill="none" stroke="#8b00ff" d="M654.71,-388.31C658.92,-380.03 664.05,-369.91 668.72,-360.69"/>
<polygon fill="#8b00ff" stroke="#8b00ff" points="671.96,-362.03 673.37,-351.53 665.72,-358.87 671.96,-362.03"/>
</g>
<!-- node32 -->
<g id="node33" class="node">
<title>node32</title>
<path fill="#00bfff" stroke="black" d="M658,-242.5C658,-242.5 702,-242.5 702,-242.5 708,-242.5 714,-248.5 714,-254.5 714,-254.5 714,-266.5 714,-266.5 714,-272.5 708,-278.5 702,-278.5 702,-278.5 658,-278.5 658,-278.5 652,-278.5 646,-272.5 646,-266.5 646,-266.5 646,-254.5 646,-254.5 646,-248.5 652,-242.5 658,-242.5"/>
<text text-anchor="middle" x="680" y="-256.8" font-family="Times New Roman,serif" font-size="14.00">1.000000</text>
</g>
<!-- node31&#45;&gt;node32 -->
<g id="edge32" class="edge">
<title>node31&#45;&gt;node32</title>
<path fill="none" stroke="#00bfff" d="M681.52,-315.31C681.29,-307.29 681.02,-297.55 680.76,-288.57"/>
<polygon fill="#00bfff" stroke="#00bfff" points="684.26,-288.43 680.48,-278.53 677.26,-288.62 684.26,-288.43"/>
</g>
<!-- node33 -->
<g id="node34" class="node">
<title>node33</title>
<path fill="#ccff99" stroke="black" d="M744,-242.5C744,-242.5 774,-242.5 774,-242.5 780,-242.5 786,-248.5 786,-254.5 786,-254.5 786,-266.5 786,-266.5 786,-272.5 780,-278.5 774,-278.5 774,-278.5 744,-278.5 744,-278.5 738,-278.5 732,-272.5 732,-266.5 732,-266.5 732,-254.5 732,-254.5 732,-248.5 738,-242.5 744,-242.5"/>
<text text-anchor="middle" x="759" y="-256.8" font-family="Times New Roman,serif" font-size="14.00">x</text>
</g>
<!-- node31&#45;&gt;node33 -->
<g id="edge33" class="edge">
<title>node31&#45;&gt;node33</title>
<path fill="none" stroke="#ccff99" d="M700.64,-315.31C710.38,-306.33 722.46,-295.19 733.1,-285.39"/>
<polygon fill="#ccff99" stroke="#ccff99" points="735.55,-287.88 740.53,-278.53 730.81,-282.73 735.55,-287.88"/>
</g>
<!-- node35 -->
<g id="node36" class="node">
<title>node35</title>
<path fill="#ccff99" stroke="black" d="M742,-315.5C742,-315.5 772,-315.5 772,-315.5 778,-315.5 784,-321.5 784,-327.5 784,-327.5 784,-339.5 784,-339.5 784,-345.5 778,-351.5 772,-351.5 772,-351.5 742,-351.5 742,-351.5 736,-351.5 730,-345.5 730,-339.5 730,-339.5 730,-327.5 730,-327.5 730,-321.5 736,-315.5 742,-315.5"/>
<text text-anchor="middle" x="757" y="-329.8" font-family="Times New Roman,serif" font-size="14.00">x</text>
</g>
<!-- node34&#45;&gt;node35 -->
<g id="edge35" class="edge">
<title>node34&#45;&gt;node35</title>
<path fill="none" stroke="#ccff99" d="M757,-388.31C757,-380.29 757,-370.55 757,-361.57"/>
<polygon fill="#ccff99" stroke="#ccff99" points="760.5,-361.53 757,-351.53 753.5,-361.53 760.5,-361.53"/>
</g>
<!-- node36 -->
<g id="node37" class="node">
<title>node36</title>
<path fill="#8b00ff" stroke="black" d="M816,-315.5C816,-315.5 846,-315.5 846,-315.5 852,-315.5 858,-321.5 858,-327.5 858,-327.5 858,-339.5 858,-339.5 858,-345.5 852,-351.5 846,-351.5 846,-351.5 816,-351.5 816,-351.5 810,-351.5 804,-345.5 804,-339.5 804,-339.5 804,-327.5 804,-327.5 804,-321.5 810,-315.5 816,-315.5"/>
<text text-anchor="middle" x="831" y="-329.8" font-family="Times New Roman,serif" font-size="14.00">*</text>
</g>
<!-- node34&#45;&gt;node36 -->
<g id="edge36" class="edge">
<title>node34&#45;&gt;node36</title>
<path fill="none" stroke="#8b00ff" d="M774.91,-388.31C784.18,-379.42 795.66,-368.41 805.81,-358.67"/>
<polygon fill="#8b00ff" stroke="#8b00ff" points="808.46,-360.98 813.25,-351.53 803.61,-355.93 808.46,-360.98"/>
</g>
<!-- node37 -->
<g id="node38" class="node">
<title>node37</title>
<path fill="#8b00ff" stroke="black" d="M816,-242.5C816,-242.5 846,-242.5 846,-242.5 852,-242.5 858,-248.5 858,-254.5 858,-254.5 858,-266.5 858,-266.5 858,-272.5 852,-278.5 846,-278.5 846,-278.5 816,-278.5 816,-278.5 810,-278.5 804,-272.5 804,-266.5 804,-266.5 804,-254.5 804,-254.5 804,-248.5 810,-242.5 816,-242.5"/>
<text text-anchor="middle" x="831" y="-256.8" font-family="Times New Roman,serif" font-size="14.00">/</text>
</g>
<!-- node36&#45;&gt;node37 -->
<g id="edge37" class="edge">
<title>node36&#45;&gt;node37</title>
<path fill="none" stroke="#8b00ff" d="M831,-315.31C831,-307.29 831,-297.55 831,-288.57"/>
<polygon fill="#8b00ff" stroke="#8b00ff" points="834.5,-288.53 831,-278.53 827.5,-288.53 834.5,-288.53"/>
</g>
<!-- node40 -->
<g id="node41" class="node">
<title>node40</title>
<path fill="#00bfff" stroke="black" d="M888,-242.5C888,-242.5 932,-242.5 932,-242.5 938,-242.5 944,-248.5 944,-254.5 944,-254.5 944,-266.5 944,-266.5 944,-272.5 938,-278.5 932,-278.5 932,-278.5 888,-278.5 888,-278.5 882,-278.5 876,-272.5 876,-266.5 876,-266.5 876,-254.5 876,-254.5 876,-248.5 882,-242.5 888,-242.5"/>
<text text-anchor="middle" x="910" y="-256.8" font-family="Times New Roman,serif" font-size="14.00">1.000000</text>
</g>
<!-- node36&#45;&gt;node40 -->
<g id="edge40" class="edge">
<title>node36&#45;&gt;node40</title>
<path fill="none" stroke="#00bfff" d="M850.12,-315.31C860.12,-306.33 872.51,-295.19 883.42,-285.39"/>
<polygon fill="#00bfff" stroke="#00bfff" points="885.95,-287.82 891.05,-278.53 881.28,-282.61 885.95,-287.82"/>
</g>
<!-- node38 -->
<g id="node39" class="node">
<title>node38</title>
<path fill="#00bfff" stroke="black" d="M770,-169.5C770,-169.5 814,-169.5 814,-169.5 820,-169.5 826,-175.5 826,-181.5 826,-181.5 826,-193.5 826,-193.5 826,-199.5 820,-205.5 814,-205.5 814,-205.5 770,-205.5 770,-205.5 764,-205.5 758,-199.5 758,-193.5 758,-193.5 758,-181.5 758,-181.5 758,-175.5 764,-169.5 770,-169.5"/>
<text text-anchor="middle" x="792" y="-183.8" font-family="Times New Roman,serif" font-size="14.00">1.000000</text>
</g>
<!-- node37&#45;&gt;node38 -->
<g id="edge38" class="edge">
<title>node37&#45;&gt;node38</title>
<path fill="none" stroke="#00bfff" d="M821.56,-242.31C816.96,-233.94 811.33,-223.7 806.23,-214.4"/>
<polygon fill="#00bfff" stroke="#00bfff" points="809.24,-212.61 801.35,-205.53 803.1,-215.98 809.24,-212.61"/>
</g>
<!-- node39 -->
<g id="node40" class="node">
<title>node39</title>
<path fill="#ccff99" stroke="black" d="M856,-169.5C856,-169.5 886,-169.5 886,-169.5 892,-169.5 898,-175.5 898,-181.5 898,-181.5 898,-193.5 898,-193.5 898,-199.5 892,-205.5 886,-205.5 886,-205.5 856,-205.5 856,-205.5 850,-205.5 844,-199.5 844,-193.5 844,-193.5 844,-181.5 844,-181.5 844,-175.5 850,-169.5 856,-169.5"/>
<text text-anchor="middle" x="871" y="-183.8" font-family="Times New Roman,serif" font-size="14.00">x</text>
</g>
<!-- node37&#45;&gt;node39 -->
<g id="edge39" class="edge">
<title>node37&#45;&gt;node39</title>
<path fill="none" stroke="#ccff99" d="M840.68,-242.31C845.4,-233.94 851.17,-223.7 856.41,-214.4"/>
<polygon fill="#ccff99" stroke="#ccff99" points="859.55,-215.96 861.41,-205.53 853.45,-212.52 859.55,-215.96"/>
</g>
</g>
</svg>
