<?xml version="1.0" encoding="UTF-8" standalone="no"?>
<!DOCTYPE svg PUBLIC "-//W3C//DTD SVG 1.1//EN"
 "http://www.w3.org/Graphics/SVG/1.1/DTD/svg11.dtd">
<!-- Generated by graphviz version 6.0.2 (20221011.1828)
 -->
<!-- Title: List Pages: 1 -->
<svg width="300pt" height="214pt"
 viewBox="0.00 0.00 300.00 214.00" xmlns="http://www.w3.org/2000/svg" xmlns:xlink="http://www.w3.org/1999/xlink">
<g id="graph0" class="graph" transform="scale(1 1) rotate(0) translate(4 210)">
<title>List</title>
<polygon fill="#696969" stroke="none" points="-4,4 -4,-210 296,-210 296,4 -4,4"/>
<text text-anchor="middle" x="146" y="-7.8" font-family="Times New Roman,serif" font-size="14.00">tree_dump from function main, Tree/main.cpp:15</text>
<!-- node0 -->
<g id="node1" class="node">
<title>node0</title>
<path fill="#8b00ff" stroke="black" d="M113,-169.5C113,-169.5 143,-169.5 143,-169.5 149,-169.5 155,-175.5 155,-181.5 155,-181.5 155,-193.5 155,-193.5 155,-199.5 149,-205.5 143,-205.5 143,-205.5 113,-205.5 113,-205.5 107,-205.5 101,-199.5 101,-193.5 101,-193.5 101,-181.5 101,-181.5 101,-175.5 107,-169.5 113,-169.5"/>
<text text-anchor="middle" x="128" y="-183.8" font-family="Times New Roman,serif" font-size="14.00">+</text>
</g>
<!-- node1 -->
<g id="node2" class="node">
<title>node1</title>
<path fill="#ccff99" stroke="black" d="M77,-96.5C77,-96.5 107,-96.5 107,-96.5 113,-96.5 119,-102.5 119,-108.5 119,-108.5 119,-120.5 119,-120.5 119,-126.5 113,-132.5 107,-132.5 107,-132.5 77,-132.5 77,-132.5 71,-132.5 65,-126.5 65,-120.5 65,-120.5 65,-108.5 65,-108.5 65,-102.5 71,-96.5 77,-96.5"/>
<text text-anchor="middle" x="92" y="-110.8" font-family="Times New Roman,serif" font-size="14.00">x</text>
</g>
<!-- node0&#45;&gt;node1 -->
<g id="edge1" class="edge">
<title>node0&#45;&gt;node1</title>
<path fill="none" stroke="#ccff99" d="M119.29,-169.31C115.08,-161.03 109.95,-150.91 105.28,-141.69"/>
<polygon fill="#ccff99" stroke="#ccff99" points="108.28,-139.87 100.63,-132.53 102.04,-143.03 108.28,-139.87"/>
</g>
<!-- node2 -->
<g id="node3" class="node">
<title>node2</title>
<path fill="#8b00ff" stroke="black" d="M149,-96.5C149,-96.5 179,-96.5 179,-96.5 185,-96.5 191,-102.5 191,-108.5 191,-108.5 191,-120.5 191,-120.5 191,-126.5 185,-132.5 179,-132.5 179,-132.5 149,-132.5 149,-132.5 143,-132.5 137,-126.5 137,-120.5 137,-120.5 137,-108.5 137,-108.5 137,-102.5 143,-96.5 149,-96.5"/>
<text text-anchor="middle" x="164" y="-110.8" font-family="Times New Roman,serif" font-size="14.00">+</text>
</g>
<!-- node0&#45;&gt;node2 -->
<g id="edge2" class="edge">
<title>node0&#45;&gt;node2</title>
<path fill="none" stroke="#8b00ff" d="M136.71,-169.31C140.92,-161.03 146.05,-150.91 150.72,-141.69"/>
<polygon fill="#8b00ff" stroke="#8b00ff" points="153.96,-143.03 155.37,-132.53 147.72,-139.87 153.96,-143.03"/>
</g>
<!-- node3 -->
<g id="node4" class="node">
<title>node3</title>
<path fill="#00bfff" stroke="black" d="M113,-23.5C113,-23.5 143,-23.5 143,-23.5 149,-23.5 155,-29.5 155,-35.5 155,-35.5 155,-47.5 155,-47.5 155,-53.5 149,-59.5 143,-59.5 143,-59.5 113,-59.5 113,-59.5 107,-59.5 101,-53.5 101,-47.5 101,-47.5 101,-35.5 101,-35.5 101,-29.5 107,-23.5 113,-23.5"/>
<text text-anchor="middle" x="128" y="-37.8" font-family="Times New Roman,serif" font-size="14.00">2</text>
</g>
<!-- node2&#45;&gt;node3 -->
<g id="edge3" class="edge">
<title>node2&#45;&gt;node3</title>
<path fill="none" stroke="#00bfff" d="M155.29,-96.31C151.08,-88.03 145.95,-77.91 141.28,-68.69"/>
<polygon fill="#00bfff" stroke="#00bfff" points="144.28,-66.87 136.63,-59.53 138.04,-70.03 144.28,-66.87"/>
</g>
<!-- node4 -->
<g id="node5" class="node">
<title>node4</title>
<path fill="#00bfff" stroke="black" d="M185,-23.5C185,-23.5 215,-23.5 215,-23.5 221,-23.5 227,-29.5 227,-35.5 227,-35.5 227,-47.5 227,-47.5 227,-53.5 221,-59.5 215,-59.5 215,-59.5 185,-59.5 185,-59.5 179,-59.5 173,-53.5 173,-47.5 173,-47.5 173,-35.5 173,-35.5 173,-29.5 179,-23.5 185,-23.5"/>
<text text-anchor="middle" x="200" y="-37.8" font-family="Times New Roman,serif" font-size="14.00">3</text>
</g>
<!-- node2&#45;&gt;node4 -->
<g id="edge4" class="edge">
<title>node2&#45;&gt;node4</title>
<path fill="none" stroke="#00bfff" d="M172.71,-96.31C176.92,-88.03 182.05,-77.91 186.72,-68.69"/>
<polygon fill="#00bfff" stroke="#00bfff" points="189.96,-70.03 191.37,-59.53 183.72,-66.87 189.96,-70.03"/>
</g>
</g>
</svg>
